<?xml version="1.0" standalone="no"?>
<!DOCTYPE svg PUBLIC "-//W3C//DTD SVG 1.1//EN" "http://www.w3.org/Graphics/SVG/1.1/DTD/svg11.dtd" >
<svg xmlns="http://www.w3.org/2000/svg">
<metadata></metadata>
<defs>
<font id="cartogothic_stdbold_italic" horiz-adv-x="536" >
<font-face units-per-em="1000" ascent="758" descent="-242" />
<missing-glyph horiz-adv-x="250" />
<glyph unicode="ft" horiz-adv-x="711" d="M54 400l20 94h101q24 110 50 151q52 84 161 84q38 0 87 -10l-31 -95q-19 6 -37 6q-60 0 -84 -58q-8 -21 -21 -78h204l22 102l134 42l-31 -144h120l-20 -94h-120l-38 -182q-12 -58 -12 -73q0 -53 50 -53q23 0 62 13l-16 -98q-41 -14 -84 -14q-65 0 -101.5 35.5t-36.5 98.5 q0 33 10 79l41 194h-202l-83 -400h-129l85 400h-101z" />
<glyph unicode="ff" horiz-adv-x="706" d="M54 400l20 94h101q24 110 50 151q52 84 161 84q38 0 87 -10l-31 -95q-19 6 -37 6q-60 0 -84 -58q-8 -21 -21 -78h206q26 113 50 151q52 84 162 84q37 0 86 -10l-31 -95q-19 6 -36 6q-60 0 -84 -58q-7 -15 -21 -78h118l-20 -94h-116l-83 -400h-130l85 400h-204l-83 -400 h-129l85 400h-101z" />
<glyph unicode="fi" horiz-adv-x="640" d="M54 400l20 94h101q25 111 50 151q52 84 161 84q38 0 86 -10l-30 -95q-19 6 -37 6q-60 0 -84 -58q-9 -22 -21 -78h118l-20 -94h-116l-83 -400h-129l85 400h-101zM401 0l103 494h129l-103 -494h-129zM521 585l25 121h134l-25 -121h-134z" />
<glyph unicode="fl" horiz-adv-x="643" d="M54 400l20 94h101q25 113 50 151q52 85 161 85q31 0 87 -10l-31 -96q-22 7 -37 7q-60 0 -84 -58q-8 -23 -21 -79h118l-20 -94h-116l-83 -400h-129l85 400h-101zM401 0l153 719h129l-153 -719h-129z" />
<glyph unicode="ffi" horiz-adv-x="972" d="M54 400l20 94h101q24 110 50 151q52 84 161 84q38 0 87 -10l-31 -95q-19 6 -37 6q-60 0 -84 -58q-8 -21 -21 -78h206q25 111 50 151q52 84 162 84q37 0 86 -10l-31 -95q-19 6 -36 6q-60 0 -84 -58q-9 -22 -21 -78h118l-20 -94h-116l-83 -400h-130l85 400h-204l-83 -400 h-129l85 400h-101zM733 0l103 494h129l-103 -494h-129zM852 585l26 121h134l-26 -121h-134z" />
<glyph unicode="ffl" horiz-adv-x="975" d="M54 400l20 94h101q24 110 50 151q52 84 161 84q38 0 87 -10l-31 -95q-19 6 -37 6q-60 0 -84 -58q-8 -21 -21 -78h206q25 110 50 151q54 85 161 85q31 0 87 -10l-31 -96q-21 7 -37 7q-59 0 -83 -58q-8 -23 -21 -79h118l-20 -94h-116l-83 -400h-130l85 400h-204l-83 -400 h-129l85 400h-101zM733 0l153 719h128l-152 -719h-129z" />
<glyph unicode=" "  horiz-adv-x="250" />
<glyph unicode="&#x09;" horiz-adv-x="250" />
<glyph unicode="&#xa0;" horiz-adv-x="250" />
<glyph unicode="!" horiz-adv-x="375" d="M78 0l26 125h132l-26 -125h-132zM131 193l76 474h152l-122 -474h-106z" />
<glyph unicode="&#x22;" horiz-adv-x="407" d="M115 452l34 268h140l-80 -268h-94zM298 452l33 268h141l-80 -268h-94z" />
<glyph unicode="#" d="M18 184l19 90h90l28 133h-90l19 90h90l37 170h102l-36 -170h99l36 170h103l-37 -170h90l-19 -90h-90l-28 -133h90l-19 -90h-90l-39 -184h-103l39 184h-98l-39 -184h-103l39 184h-90zM230 274h98l29 133h-99z" />
<glyph unicode="$" d="M11 34l37 118q67 -55 170 -54l42 197q-44 22 -64 33.5t-48 34.5t-39.5 51t-11.5 65q0 54 28 99.5t77 69.5q48 24 139 28l17 79h50l-17 -81q72 -1 156 -31l-35 -111q-59 40 -143 41l-37 -174q43 -23 63.5 -35t49 -36t40.5 -53t12 -67q0 -54 -27 -102.5t-73 -74.5 q-55 -32 -151 -39l-17 -79h-50l17 81q-61 2 -100 10.5t-85 29.5zM228 494q0 -22 12 -36.5t47 -36.5l32 152q-41 -3 -66 -25t-25 -54zM268 98q44 7 70.5 32.5t26.5 62.5q0 46 -60 79z" />
<glyph unicode="%" horiz-adv-x="960" d="M111 479q0 83 43 147q50 71 144 71q69 0 106 -35.5t37 -101.5q0 -39 -14 -81t-37 -73q-45 -63 -139 -63q-68 0 -104 35t-36 101zM196 -41l493 749h76l-493 -749h-76zM203 479q0 -63 50 -63q47 0 72 62q17 45 17 84q0 62 -52 62q-48 0 -72 -65q-15 -37 -15 -80zM529 121 q0 84 43 146q50 72 144 72q69 0 106 -35.5t37 -102.5q0 -85 -51 -154q-45 -63 -139 -63q-68 0 -104 35t-36 102zM632 115q0 -58 45 -58q43 0 66 62q17 49 17 88q0 59 -46 59q-44 0 -67 -65q-15 -40 -15 -86z" />
<glyph unicode="&#x26;" horiz-adv-x="697" d="M60 180q0 97 81 155q39 27 108 47q-31 41 -43 69t-12 60q0 74 57 121.5t146 47.5q86 0 138.5 -43t52.5 -113q0 -83 -76 -136q-36 -24 -103 -45l99 -144q51 62 61 161h114q-14 -148 -113 -252l78 -108h-145l-23 33q-80 -45 -186 -45q-107 0 -170.5 52t-63.5 140zM189 183 q0 -44 33 -73t83 -29q69 0 117 40l-120 177q-47 -15 -72 -35q-41 -34 -41 -80zM319 507q0 -21 6.5 -37.5t27.5 -48.5q9 3 23 7.5t18 6.5q83 33 83 89q0 28 -21 46.5t-52 18.5q-37 0 -61 -23t-24 -59z" />
<glyph unicode="'" horiz-adv-x="225" d="M115 452l34 268h140l-80 -268h-94z" />
<glyph unicode="(" horiz-adv-x="322" d="M49 193q0 93 23 173t77 172q39 67 130 181h134q-89 -103 -151 -221q-86 -165 -86 -346q0 -157 50 -355h-108q-69 250 -69 396z" />
<glyph unicode=")" horiz-adv-x="429" d="M37 -203q90 104 152 222q85 163 85 345q0 156 -50 355h108q69 -255 69 -396q0 -134 -50.5 -249.5t-179.5 -276.5h-134z" />
<glyph unicode="*" d="M144 574l51 89l114 -80l14 136l100 -22l-42 -128l135 23l9 -99l-134 -2l63 -113l-92 -41l-42 124l-100 -102l-67 75l115 84z" />
<glyph unicode="+" d="M62 303v87h187v183h92v-183h188v-87h-188v-183h-92v183h-187z" />
<glyph unicode="," horiz-adv-x="269" d="M-32 -107l99 239h145l-129 -239h-115z" />
<glyph unicode="-" horiz-adv-x="242" d="M-5 198l22 104h242l-22 -104h-242z" />
<glyph unicode="." horiz-adv-x="269" d="M22 0l28 132h136l-28 -132h-136z" />
<glyph unicode="/" horiz-adv-x="481" d="M-86 -203l506 922h111l-505 -922h-112z" />
<glyph unicode="0" d="M49 214q0 80 20 168t51 146q81 151 225 151q191 0 191 -239q0 -72 -20 -157t-50 -143q-41 -80 -95 -116t-131 -36q-89 0 -140 60.5t-51 165.5zM176 189q0 -47 20 -74t55 -27q40 0 68.5 38.5t52.5 125.5q37 134 37 224q0 49 -18.5 76.5t-51.5 27.5q-77 0 -122 -154 q-41 -140 -41 -237z" />
<glyph unicode="1" d="M122 521l226 146h119l-142 -667h-136l84 391q20 92 36 136q-34 -37 -77 -64l-52 -33z" />
<glyph unicode="2" d="M-8 0l24 111q121 94 202 165q96 82 127 122.5t31 81.5t-26 65.5t-70 24.5q-61 0 -162 -49l-5 114q109 44 190 44q97 0 155.5 -50t58.5 -133q0 -57 -30 -111.5t-97 -119.5q-96 -93 -204 -164q21 3 41 3h232l-22 -104h-445z" />
<glyph unicode="3" d="M5 26l29 104q81 -39 155 -39q70 0 113.5 31t43.5 81q0 95 -154 95q-21 0 -40 -2l19 105h38q81 0 127 20q27 11 43.5 33.5t16.5 48.5q0 35 -27 56t-71 21q-69 0 -162 -40l15 109q87 30 175 30q94 0 149.5 -44t55.5 -118q0 -44 -21.5 -81.5t-60.5 -60.5q-30 -19 -83 -28 q61 -18 89.5 -53t28.5 -93q0 -94 -80 -156q-76 -57 -196 -57q-127 0 -203 38z" />
<glyph unicode="4" d="M14 137l15 112l333 418h170l-91 -433h90l-21 -97h-90l-29 -137h-130l29 137h-276zM138 228q20 6 53 6h120l39 182q18 85 42 161q-39 -75 -116 -180.5t-138 -168.5z" />
<glyph unicode="5" d="M35 21l23 108q72 -33 147 -33q71 0 114.5 34.5t43.5 90.5q0 49 -36.5 77.5t-100.5 28.5q-56 0 -125 -23l83 363h389l-22 -103l-263 -2l-31 -136q28 2 31 2q94 0 155 -56.5t61 -144.5q0 -98 -68 -168q-70 -71 -205 -71q-85 0 -196 33z" />
<glyph unicode="6" d="M57 205q0 80 20 166t53 146q47 85 112.5 123.5t165.5 38.5q89 0 156 -29l-32 -95q-57 25 -115 25q-142 0 -202 -184q49 37 114 37q83 0 131.5 -50.5t48.5 -135.5q0 -110 -63 -187q-60 -72 -179 -72q-101 0 -155.5 56.5t-54.5 160.5zM182 182q0 -44 21.5 -69.5t59.5 -25.5 q46 0 78.5 44t32.5 107q0 100 -81 100q-49 0 -80 -43.5t-31 -112.5z" />
<glyph unicode="7" d="M41 0l327 506q29 44 48 61q-19 -4 -57 -4h-260l22 104h448l-23 -112l-344 -555h-161z" />
<glyph unicode="8" d="M34 172q0 144 164 188q-81 46 -81 132q0 41 18.5 78.5t50.5 62.5q61 46 166 46q96 0 153.5 -44t57.5 -117q0 -83 -73 -135q-27 -19 -73 -32q93 -45 93 -147q0 -97 -73 -159q-66 -57 -178 -57q-104 0 -164.5 49.5t-60.5 134.5zM168 174q0 -40 26.5 -65.5t68.5 -25.5 q47 0 79 32t32 79q0 65 -76 110q-130 -43 -130 -130zM244 490q0 -53 76 -95l26 8q41 13 65.5 41t24.5 60q0 33 -25 54.5t-64 21.5q-44 0 -73.5 -26t-29.5 -64z" />
<glyph unicode="9" d="M27 15l33 95q51 -23 109 -23q95 0 150 71q27 35 54 117q-55 -40 -117 -40q-83 0 -131 49.5t-48 135.5q0 116 68 192q62 67 170 67q101 0 156 -57t55 -163q0 -88 -24 -183.5t-60 -152.5q-45 -71 -103.5 -103t-144.5 -32q-102 0 -167 27zM211 425q0 -44 22.5 -70.5 t59.5 -26.5q46 0 78 43.5t32 107.5q0 49 -21.5 75t-60.5 26q-46 0 -78 -45t-32 -110z" />
<glyph unicode=":" horiz-adv-x="269" d="M22 0l28 132h136l-28 -132h-136zM99 362l28 132h136l-28 -132h-136z" />
<glyph unicode=";" horiz-adv-x="269" d="M-32 -107l99 239h145l-129 -239h-115zM108 362l28 132h136l-28 -132h-136z" />
<glyph unicode="&#x3c;" horiz-adv-x="500" d="M58 287v107l433 220v-127l-297 -147l297 -148v-126z" />
<glyph unicode="=" d="M62 226v87h467v-87h-467zM62 380v87h467v-87h-467z" />
<glyph unicode="&#x3e;" horiz-adv-x="500" d="M58 65v127l298 148l-298 148v126l433 -221v-107z" />
<glyph unicode="?" horiz-adv-x="482" d="M111 0l27 125h134l-27 -125h-134zM116 552l3 109q61 16 136 16q109 0 172.5 -47.5t63.5 -130.5q0 -68 -56 -125q-8 -9 -88 -74q-39 -32 -54 -54.5t-20 -54.5h-118q8 68 31 103t102 102q65 55 65 101q0 35 -33.5 57t-87.5 22q-52 0 -116 -24z" />
<glyph unicode="@" horiz-adv-x="769" d="M77 328q0 148 102.5 251t251.5 103q137 0 227.5 -84.5t90.5 -212.5q0 -92 -50 -162.5t-115 -70.5q-29 0 -50 15.5t-28 40.5q-20 -30 -53.5 -47t-71.5 -17q-61 0 -101.5 45t-40.5 113q0 81 52.5 141.5t123.5 60.5q69 0 98 -50l8 39h87l-37 -192q-7 -37 -7 -45 q0 -32 23 -32q31 0 58 51t27 110q0 96 -66 157t-170 61q-116 0 -195 -80t-79 -197q0 -113 75 -191q70 -71 199 -71q95 0 184 31l20 -79q-91 -31 -206 -31q-155 0 -251 90q-50 47 -78 114t-28 139zM339 305q0 -32 18.5 -52t47.5 -20q34 0 60 32t26 73q0 32 -17.5 52t-46.5 20 q-35 0 -61.5 -31.5t-26.5 -73.5z" />
<glyph unicode="A" horiz-adv-x="696" d="M-37 0l407 667h149l124 -667h-136l-25 155h-280l-89 -155h-150zM261 260h204l-30 185q-10 60 -11 104h-5q-16 -43 -43 -88z" />
<glyph unicode="B" horiz-adv-x="588" d="M25 0l142 667h171q109 0 158 -31q32 -21 52 -57.5t20 -75.5q0 -41 -22 -77.5t-60 -58.5q-21 -12 -64 -21q35 -8 52 -19q60 -36 60 -121q0 -52 -27.5 -96.5t-77.5 -71.5q-69 -38 -208 -38h-196zM174 98h36q57 0 85 5t50 19q56 33 56 96q0 51 -47 71q-24 10 -87 10h-50z M236 390h40q79 0 121.5 27t42.5 76q0 42 -38 59q-24 10 -74 10h-56z" />
<glyph unicode="C" horiz-adv-x="589" d="M72 292q0 74 28.5 146t77.5 124q107 112 286 112q94 0 192 -34l-33 -108q-60 35 -138 35q-121 0 -195 -79q-35 -37 -55 -87t-20 -100q0 -85 55.5 -141t140.5 -56q69 0 135 30l-19 -121q-87 -20 -154 -20q-136 0 -218.5 82t-82.5 217z" />
<glyph unicode="D" horiz-adv-x="697" d="M33 0l142 667h146q104 0 162 -14t103 -50q91 -74 91 -220q0 -98 -41 -184.5t-111 -135.5q-51 -35 -118.5 -49t-187.5 -14h-186zM191 101q108 1 154.5 10t83.5 35q48 35 77.5 99.5t29.5 135.5q0 120 -93 163q-44 21 -121 21h-33z" />
<glyph unicode="E" horiz-adv-x="535" d="M32 0l142 667h396l-23 -105h-260l-35 -166h236l-22 -105h-236l-40 -186h266l-22 -105h-402z" />
<glyph unicode="F" horiz-adv-x="515" d="M24 0l142 667h372l-22 -105h-237l-36 -169h226l-22 -105h-226l-61 -288h-136z" />
<glyph unicode="G" horiz-adv-x="697" d="M74 289q0 82 29.5 157.5t82.5 127.5q103 101 291 101q117 0 225 -35l-33 -115q-95 48 -184 48q-132 0 -203 -86q-64 -80 -64 -192q0 -90 52.5 -145.5t138.5 -55.5q32 0 65 12l37 174h-144l22 105h273l-78 -364q-76 -29 -194 -29q-146 0 -230 80q-86 81 -86 217z" />
<glyph unicode="H" horiz-adv-x="696" d="M32 0l142 667h136l-57 -268h267l56 268h136l-141 -667h-136l61 288h-267l-61 -288h-136z" />
<glyph unicode="I" horiz-adv-x="267" d="M17 0l142 667h139l-142 -667h-139z" />
<glyph unicode="J" horiz-adv-x="374" d="M-33 7l29 113q31 -10 62 -10q55 0 82 40q15 23 27 79l93 438h136l-96 -449q-19 -88 -29 -111q-50 -114 -198 -114q-52 0 -106 14z" />
<glyph unicode="K" horiz-adv-x="645" d="M34 0l142 667h136l-43 -203q-10 -51 -21 -75q34 44 87 95l191 183h185l-338 -305l213 -362h-158l-121 218q-58 103 -66 134q-2 -23 -13 -78l-58 -274h-136z" />
<glyph unicode="L" horiz-adv-x="481" d="M24 0l142 667h136l-118 -556h262l-24 -111h-398z" />
<glyph unicode="M" horiz-adv-x="911" d="M31 0l142 667h219l33 -305q13 -121 13 -168q0 -19 -1 -34h5q16 62 75 167l190 340h224l-142 -667h-136l82 385q13 61 38 146l3 11q3 10 5 18h-9q-14 -31 -32 -63l-275 -497h-120l-45 365q-10 80 -15 195h-7l-119 -560h-128z" />
<glyph unicode="N" horiz-adv-x="698" d="M27 0l142 667h170l114 -395q18 -61 30 -123h5q9 66 16 96l89 422h128l-141 -667h-175l-112 394q-25 89 -27 123h-5q-2 -26 -13 -79l-93 -438h-128z" />
<glyph unicode="O" horiz-adv-x="749" d="M68 269q0 84 31.5 164t86.5 138q104 109 267 109q132 0 205 -75t73 -210q0 -79 -31 -159.5t-84 -138.5q-99 -110 -271 -110q-142 0 -215 90q-62 77 -62 192zM208 261q0 -78 39 -125t104 -47q92 0 157 79q38 47 61 110.5t23 122.5q0 81 -39 129t-106 48q-45 0 -87.5 -22 t-72.5 -60q-36 -46 -57.5 -109.5t-21.5 -125.5z" />
<glyph unicode="P" horiz-adv-x="535" d="M20 0l142 667h151q120 0 179 -36q79 -47 79 -144q0 -50 -21.5 -96t-59.5 -78q-73 -60 -204 -60q-13 0 -73 2l-54 -255h-139zM232 356q23 -3 43 -3q68 0 110.5 35t42.5 92q0 62 -61 78q-23 6 -91 6z" />
<glyph unicode="Q" horiz-adv-x="750" d="M69 271q0 80 31.5 158.5t86.5 138.5q102 112 268 112q136 0 210 -83q68 -79 68 -194q0 -93 -34 -178.5t-94 -141.5q-47 -45 -114 -75l139 -137h-161l-97 113h-26q-113 0 -182 57q-45 37 -70 98t-25 132zM209 258q0 -78 39.5 -125.5t104.5 -47.5q95 0 167.5 95t72.5 219 q0 84 -38.5 131.5t-106.5 47.5q-97 0 -160 -83q-37 -47 -58 -111t-21 -126z" />
<glyph unicode="R" horiz-adv-x="590" d="M26 0l142 667h212q211 0 211 -156q0 -104 -83 -153q-43 -26 -114 -29q36 -6 51 -23t27 -70l55 -236h-139l-44 208q-11 52 -29 62t-94 11l-60 -281h-135zM242 380q15 -1 38 -1q82 0 123 27q44 29 44 85q0 42 -26 58.5t-92 16.5q-27 0 -48 -1z" />
<glyph unicode="S" horiz-adv-x="535" d="M14 29l35 113q87 -47 162 -47q58 0 93 29t35 77q0 29 -18.5 49t-78.5 54q-60 35 -81 55q-51 45 -51 115q0 91 69 146q66 54 184 54q86 0 173 -30l-34 -108q-73 36 -141 36q-52 0 -83.5 -22.5t-31.5 -58.5q0 -32 24 -51q20 -15 62 -38q70 -39 100 -70q50 -52 50 -125 q0 -43 -19.5 -85.5t-51.5 -70.5q-67 -58 -192 -58q-100 0 -205 36z" />
<glyph unicode="T" horiz-adv-x="537" d="M80 556l24 111h521l-24 -111h-190l-118 -556h-139l118 556h-192z" />
<glyph unicode="U" horiz-adv-x="702" d="M80 189q0 54 12 107l79 371h136l-77 -360q-12 -60 -12 -100q0 -53 31.5 -84.5t83.5 -31.5q76 0 122 60q32 42 53 141l80 375h136l-84 -395q-31 -143 -104 -210q-79 -73 -202 -73q-114 0 -184 51t-70 149z" />
<glyph unicode="V" horiz-adv-x="641" d="M105 667h136l52 -428q3 -25 5 -58l2 -32q0 -2 2 -22q1 4 3 8.5t3.5 7t1.5 4.5l12 28q5 14 26 53l239 439h142l-373 -667h-160z" />
<glyph unicode="W" horiz-adv-x="965" d="M106 667h134l16 -376l1 -41q1 -59 -5 -116h8q7 22 22.5 62.5t26.5 68.5t12 30l165 372h183l5 -355v-44q1 -50 -7 -134h9q29 86 55 143l180 390h141l-323 -667h-167l-8 428l-1 42q-1 22 5 85h-7q-24 -82 -62 -165l-175 -390h-167z" />
<glyph unicode="X" horiz-adv-x="643" d="M-36 0l308 361l-148 306h143l62 -140q23 -50 34 -94h4q18 31 60 82l127 152h158l-276 -320l154 -347h-145l-79 198q-18 44 -23 71h-5q-38 -60 -68 -96l-141 -173h-165z" />
<glyph unicode="Y" horiz-adv-x="641" d="M106 667h141l71 -182q15 -39 28 -86q0 -2 4 -14q13 24 44 64l172 218h156l-321 -392l-59 -275h-136l59 275z" />
<glyph unicode="Z" horiz-adv-x="535" d="M-13 0l21 99l352 401q32 37 53 54q4 2 14 12q-31 -4 -67 -4h-242l22 105h459l-22 -105l-354 -401q-33 -37 -67 -62q42 6 96 6h228l-22 -105h-471z" />
<glyph unicode="[" horiz-adv-x="323" d="M-8 -203l200 922h216l-18 -86h-101l-162 -750h101l-19 -86h-217z" />
<glyph unicode="\" horiz-adv-x="434" d="M141 719h105l115 -922h-107z" />
<glyph unicode="]" horiz-adv-x="376" d="M-11 -203l18 86h100l163 751h-101l18 85h217l-199 -922h-216z" />
<glyph unicode="^" horiz-adv-x="500" d="M29 336l161 335h168l161 -335h-134l-111 233l-111 -233h-134z" />
<glyph unicode="_" horiz-adv-x="500" d="M0 -47h500v-115h-500v115z" />
<glyph unicode="`" horiz-adv-x="500" d="M194 715h122l76 -137h-73z" />
<glyph unicode="a" d="M20 127q0 57 33.5 98.5t94.5 61.5q60 19 151 19h6.5h16.5t33 -1h17q2 28 2 29q0 40 -27 61.5t-77 21.5q-74 0 -156 -40l19 104q79 24 171 24q87 0 137.5 -41.5t50.5 -113.5q0 -33 -14 -101l-29 -145q-11 -57 -18 -104h-106l9 54q0 2 0.5 5.5t1.5 5.5l4 10q0 3 1 7 q-59 -90 -170 -90q-68 0 -109.5 37t-41.5 98zM147 137q0 -26 18.5 -42t47.5 -16q55 0 93 40.5t50 110.5h-41q-67 0 -107 -15q-28 -10 -44.5 -31.5t-16.5 -46.5z" />
<glyph unicode="b" horiz-adv-x="590" d="M20 0l155 719h127l-46 -221q-10 -44 -19 -68l4 -2q53 73 143 73q82 0 130 -55.5t48 -148.5q0 -119 -66 -210q-68 -94 -191 -94q-118 0 -142 88h-3q0 -1 -1 -7l-2 -12l-17 -62h-120zM197 196q0 -49 24 -76.5t67 -27.5q74 0 114 79q27 52 27 114q0 54 -24 85.5t-66 31.5 q-59 0 -100.5 -60.5t-41.5 -145.5z" />
<glyph unicode="c" horiz-adv-x="428" d="M40 206q0 58 22.5 115.5t60.5 97.5q73 78 207 78q68 0 129 -19l-31 -103q-43 23 -92 23q-72 0 -114 -49q-50 -61 -50 -137q0 -52 31.5 -82.5t84.5 -30.5q54 0 99 24l-12 -105q-66 -21 -122 -21q-97 0 -155 57t-58 152z" />
<glyph unicode="d" horiz-adv-x="587" d="M42 196q0 124 71 217q66 88 179 88q71 0 113 -37q22 -19 35 -60q2 14 2 17q2 20 2 22q1 3 1.5 7t3 16t6.5 32l47 221h129l-130 -608q-9 -42 -19 -111h-121l13 67q1 7 4 15l-3 1q-53 -90 -157 -90q-80 0 -128 55.5t-48 147.5zM175 197q0 -47 22.5 -76t58.5 -29 q60 0 104.5 58.5t44.5 135.5q0 54 -23.5 83t-67.5 29q-69 0 -108 -74q-31 -57 -31 -127z" />
<glyph unicode="e" horiz-adv-x="535" d="M40 195q0 119 70 213q75 100 212 100q91 0 141.5 -50t50.5 -141q0 -59 -12 -108h-341q-2 -16 -2 -21q0 -49 36.5 -77t100.5 -28q76 0 152 38l-15 -103q-82 -29 -165 -29q-104 0 -166 56t-62 150zM176 296h222q3 28 3 37q0 40 -24.5 64t-65.5 24q-47 0 -83 -33t-52 -92z " />
<glyph unicode="f" horiz-adv-x="374" d="M54 400l20 94h101q24 110 50 151q52 84 161 84q38 0 87 -10l-31 -95q-19 6 -37 6q-60 0 -84 -58q-8 -21 -21 -78h118l-20 -94h-116l-83 -400h-129l85 400h-101z" />
<glyph unicode="g" horiz-adv-x="588" d="M9 -175l33 106q44 -23 78.5 -32t75.5 -9q36 0 63 8.5t44.5 22t31.5 38t22.5 48t18.5 61.5q0 3 6 20l5 14l-4 2q-48 -101 -165 -101q-79 0 -127 54.5t-48 145.5q0 120 66 211q67 90 183 90q123 0 147 -95l2 -8l2 12l1 7q0 1 2 11l13 63h125q-9 -36 -10 -39l-5 -25 q-12 -56 -26 -121.5t-30 -140t-26 -121.5q-28 -136 -96 -195q-75 -64 -200 -64q-95 0 -182 37zM177 209q0 -50 22 -78.5t61 -28.5q60 0 103 54t43 130q0 56 -23.5 85t-68.5 29q-59 0 -98 -54.5t-39 -136.5z" />
<glyph unicode="h" horiz-adv-x="588" d="M23 0l153 719h128l-53 -252q-6 -24 -14 -48q47 82 152 82q70 0 112.5 -42.5t42.5 -111.5q0 -55 -19 -141l-44 -206h-129l45 209q19 89 19 115q0 33 -19.5 53.5t-50.5 20.5q-33 0 -64 -20t-48 -52q-24 -44 -40 -125l-42 -201h-129z" />
<glyph unicode="i" horiz-adv-x="268" d="M24 0l103 494h129l-103 -494h-129zM143 585l26 121h134l-26 -121h-134z" />
<glyph unicode="j" horiz-adv-x="268" d="M-98 -198l30 92q19 -5 29 -5q32 0 46 36q6 13 20 81l103 488h128l-108 -520q-21 -106 -58 -144q-40 -40 -103 -40q-37 0 -87 12zM146 585l26 121h134l-26 -121h-134z" />
<glyph unicode="k" d="M25 0l153 719h128l-86 -407l-3 -12q0 -4 -3 -15q16 31 56 71l138 138h168l-243 -228l151 -266h-145l-94 181q-30 58 -36 87q-2 -16 -4 -27l-51 -241h-129z" />
<glyph unicode="l" horiz-adv-x="266" d="M22 0l153 719h128l-152 -719h-129z" />
<glyph unicode="m" horiz-adv-x="856" d="M22 0l72 352q20 96 26 142h121l-6 -48q0 -2 -1 -4v-4l-1 -2l-2 -8l-2 -6q50 79 147 79q64 0 102 -36q25 -23 26 -67q21 37 42 56q53 48 127 48q65 0 104.5 -40t39.5 -105q0 -41 -21 -138l-47 -219h-128l47 222q2 9 8 38.5t9 47.5t3 33q0 26 -16 41.5t-44 15.5 q-49 0 -82 -47t-54 -146l-43 -205h-128l51 244q14 65 14 94q0 28 -16 44t-44 16q-49 0 -89 -56q-23 -31 -40 -116l-47 -226h-128z" />
<glyph unicode="n" horiz-adv-x="589" d="M22 0l75 354q4 18 8 40t5 27q9 49 12 73h123l-8 -44l-3 -13q-2 -10 -5 -20l3 -1q21 36 44 51q47 34 111 34q71 0 113 -42.5t42 -113.5q0 -51 -18 -136l-45 -209h-128l45 214q18 86 18 111q0 33 -19 53t-50 20q-66 0 -107 -65q-23 -37 -43 -127l-44 -206h-129z" />
<glyph unicode="o" horiz-adv-x="588" d="M39 206q0 55 21 112t56 99q77 91 216 91q109 0 168.5 -58.5t59.5 -165.5q0 -128 -83.5 -213t-208.5 -85q-108 0 -171 66q-58 63 -58 154zM172 198q0 -53 28 -85.5t73 -32.5q64 0 110 61.5t46 147.5q0 59 -27 92t-75 33q-65 0 -105 -58q-50 -71 -50 -158z" />
<glyph unicode="p" horiz-adv-x="590" d="M-23 -203l119 556q17 80 23 141h124l-22 -84h4q29 47 66 68.5t89 21.5q82 0 131 -57t49 -152q0 -126 -72 -212t-178 -86q-108 0 -144 91q-2 -4 -2 -5t-2 -19l-56 -263h-129zM195 206q0 -52 24.5 -83t65.5 -31q59 0 100.5 57t41.5 137q0 54 -24.5 84.5t-68.5 30.5 q-58 0 -98.5 -57t-40.5 -138z" />
<glyph unicode="q" horiz-adv-x="589" d="M44 203q0 126 74 216q67 82 176 82q122 0 146 -93l4 1q2 14 4 26l13 59h125q-8 -26 -20 -79l-132 -618h-128l35 169q8 38 21 78q3 6 6 21q-41 -43 -70 -57.5t-76 -14.5q-82 0 -130 56.5t-48 153.5zM176 199q0 -49 23 -78t62 -29q64 0 104 63q41 62 41 131 q0 53 -23.5 82.5t-66.5 29.5q-58 0 -99 -58.5t-41 -140.5z" />
<glyph unicode="r" horiz-adv-x="375" d="M22 0l73 341q17 80 26 153h124l-9 -54q-1 -11 -3 -16l-3 -13v-3q-1 -2 -2 -5.5t-1 -6.5q31 55 68 79t89 24q20 0 40 -5l-25 -119q-24 8 -45 8q-64 0 -102.5 -44t-58.5 -140l-42 -199h-129z" />
<glyph unicode="s" horiz-adv-x="428" d="M0 23l30 102q65 -41 128 -41q39 0 64 17t25 44q0 24 -24 41q-11 8 -63 38q-47 27 -67.5 56t-20.5 68q0 72 57.5 114t155.5 42q75 0 143 -23l-29 -94q-53 23 -100 23q-45 0 -71 -15t-26 -41q0 -19 12.5 -29.5t65.5 -38.5q52 -27 74.5 -57.5t22.5 -74.5q0 -75 -59.5 -119.5 t-159.5 -44.5q-94 0 -158 33z" />
<glyph unicode="t" horiz-adv-x="374" d="M51 400l20 94h95l22 102l134 42l-30 -144h119l-20 -94h-119l-39 -182q-12 -58 -12 -73q0 -53 50 -53q23 0 62 13l-15 -98q-42 -14 -84 -14q-66 0 -102.5 35.5t-36.5 98.5q0 30 10 79l41 194h-95z" />
<glyph unicode="u" horiz-adv-x="588" d="M62 146q0 63 62 348h129l-51 -242q-12 -60 -12 -83q0 -32 20 -53.5t50 -21.5q28 0 56.5 19.5t48.5 51.5q20 33 40 126l43 203h128l-79 -379q-18 -88 -20 -115h-121l10 53q0 2 1 5l1 5l2 7q1 1 1 6q-58 -85 -151 -85q-73 0 -115.5 42t-42.5 113z" />
<glyph unicode="v" horiz-adv-x="537" d="M69 494h131l39 -267q8 -52 8 -109h3q29 69 68 140l130 236h138l-291 -494h-142z" />
<glyph unicode="w" horiz-adv-x="857" d="M67 494h127l31 -289q0 -2 1.5 -15t1.5 -19l1 -34q0 -1 2 -19q11 22 24 53q2 5 5.5 12.5t5.5 12.5l2 4q28 57 80.5 163.5t64.5 130.5h145l23 -274q4 -58 4 -79v-23h4q14 44 55 122l133 254h133l-274 -494h-145l-25 274q-4 56 -4 63q0 11 3 47h-5q-19 -64 -54 -132 l-130 -252h-145z" />
<glyph unicode="x" horiz-adv-x="535" d="M-39 0l228 261l-108 233h137l42 -105q15 -38 22 -66q16 25 50 67l88 104h152l-208 -235l120 -259h-140l-60 140q-5 11 -9.5 28.5t-6.5 24.5q-6 -9 -9.5 -16.5t-7.5 -13t-18 -22.5l-116 -141h-156z" />
<glyph unicode="y" d="M-43 -196l29 96q34 -10 59 -10q55 0 92 59l18 29l-87 516h131l40 -282q6 -38 7 -87h4q11 30 41 84l154 285h141l-337 -576q-42 -71 -85 -99t-111 -28q-41 0 -96 13z" />
<glyph unicode="z" horiz-adv-x="481" d="M-11 0l19 89l248 251q38 38 79 61q-43 -4 -72 -4h-178l20 97h392l-20 -93l-244 -246q-44 -44 -79 -66q30 5 74 5h196l-20 -94h-415z" />
<glyph unicode="{" horiz-adv-x="366" d="M15 -110q0 24 6 51l39 182q5 25 5 43q0 39 -41 48l19 88q32 8 48.5 27t25.5 64l39 182q19 89 68.5 118t174.5 26l-19 -89q-8 1 -18 1q-46 0 -63 -12q-13 -9 -19 -24t-16 -60l-32 -152q-11 -52 -29.5 -78t-58.5 -47q23 -17 31.5 -33.5t8.5 -41.5q0 -19 -6 -51l-32 -152 q-9 -42 -9 -58q0 -23 15.5 -29.5t69.5 -6.5l-19 -89q-94 1 -117 6q-71 14 -71 87z" />
<glyph unicode="|" horiz-adv-x="500" d="M210 -167v834h128v-834h-128z" />
<glyph unicode="}" horiz-adv-x="366" d="M-17 -203l19 89q8 -1 18 -1q46 0 63 12q13 9 19 24t16 60l32 152q11 52 29.5 78t58.5 47q-23 17 -31.5 33.5t-8.5 41.5q0 19 6 51l32 152q9 42 9 58q0 23 -15.5 29.5t-69.5 6.5l19 89q94 -1 117 -6q71 -14 71 -87q0 -24 -6 -51l-39 -182q-5 -25 -5 -43q0 -39 41 -48 l-19 -88q-32 -8 -48.5 -27t-25.5 -64l-39 -182q-19 -89 -68.5 -118t-174.5 -26z" />
<glyph unicode="~" horiz-adv-x="667" d="M114 607q7 14 8 17q19 44 31 62t32 34q32 26 81 26q35 0 103 -26q66 -24 88 -24q23 0 38 11t33 40l73 -42q-23 -47 -38 -68.5t-36 -36.5q-40 -28 -85 -28q-28 0 -102 27q-65 23 -82 23q-25 0 -39.5 -12.5t-33.5 -48.5z" />
<glyph unicode="&#xa1;" horiz-adv-x="374" d="M37 -173l122 474h106l-76 -474h-152zM159 369l27 125h132l-27 -125h-132z" />
<glyph unicode="&#xa2;" d="M47 293q0 79 36.5 148.5t96.5 104.5q56 34 141 39l17 83h50l-17 -83q59 -3 96 -21l-32 -102q-37 23 -85 24l-64 -300q5 -1 12 -1q53 0 97 25l-13 -105q-51 -21 -103 -21q-8 0 -15 1l-18 -85h-50l19 88q-57 12 -88 34q-80 56 -80 171zM180 300q0 -67 58 -104l60 285 q-44 -15 -68 -45q-50 -60 -50 -136z" />
<glyph unicode="&#xa3;" d="M3 0l21 97h85l47 221h-73l15 71h73q19 92 32.5 130.5t36.5 68.5q69 91 207 91q77 0 142 -23l-29 -108q-44 25 -96 25q-69 0 -107 -41q-14 -15 -21.5 -36t-22.5 -80l-7 -27h148l-15 -71h-148l-47 -221h224l-21 -97h-444z" />
<glyph unicode="&#xa4;" d="M35 497l55 55l84 -83q53 35 113 35q58 0 110 -34l82 81l55 -55l-81 -81q37 -58 37 -112q0 -58 -36 -110l83 -83l-55 -55l-82 82q-53 -37 -115 -37q-55 0 -112 36l-82 -81l-55 55l82 82q-36 51 -36 111q0 59 37 110zM175 302q0 -46 32.5 -78.5t78.5 -32.5t78.5 32.5 t32.5 78.5t-32.5 78.5t-77.5 32.5q-47 0 -79.5 -32.5t-32.5 -78.5z" />
<glyph unicode="&#xa5;" d="M27 195l15 71h170l2 9l-21 77h-143l15 71h109l-67 244h141l38 -182q7 -33 11 -86l1 -14q12 32 28 64l137 218h156l-168 -244h106l-16 -71h-139l-55 -86h166l-15 -71h-166l-41 -195h-136l42 195h-170z" />
<glyph unicode="&#xa6;" horiz-adv-x="500" d="M210 153h128v-320h-128v320zM210 320v347h128v-347h-128z" />
<glyph unicode="&#xa7;" d="M-38 -174l33 115q81 -45 174 -45q58 0 94.5 26t36.5 67q0 32 -33 53q-20 14 -109 56q-50 24 -78 60t-28 76q0 53 32 101q24 36 84 76q-28 28 -38.5 48.5t-10.5 47.5q0 38 19 78t51 70q78 72 200 72q72 0 166 -26l-35 -108q-82 31 -148 31q-64 0 -98 -30q-30 -28 -30 -61 q0 -27 24 -48q13 -11 28 -19t94 -43q111 -51 111 -135q0 -58 -40 -109q-29 -38 -83 -66q49 -38 49 -97q0 -39 -21 -81.5t-56 -74.5q-77 -71 -196 -71q-85 0 -192 37zM157 277q0 -43 55 -73q27 -15 116 -56q66 48 66 101q0 27 -20.5 47.5t-71.5 42.5q-29 13 -81 40 q-64 -53 -64 -102z" />
<glyph unicode="&#xa8;" horiz-adv-x="500" d="M180 589l24 111h109l-24 -111h-109zM369 589l24 111h109l-23 -111h-110z" />
<glyph unicode="&#xa9;" horiz-adv-x="789" d="M73 333q0 146 102 247.5t250 101.5q139 0 239.5 -103t100.5 -245q0 -145 -101 -247t-244 -102t-245 102.5t-102 245.5zM141 333q0 -118 82 -202.5t197 -84.5q114 0 195.5 84.5t81.5 202.5t-80.5 203t-192.5 85q-119 0 -201 -83.5t-82 -204.5zM227 339q0 89 58 141t157 52 q45 0 104 -18l-8 -74q-42 23 -89 23q-59 0 -93 -33t-34 -89t36.5 -90.5t94.5 -34.5q41 0 91 17l3 -76q-53 -13 -98 -13q-105 0 -163.5 51.5t-58.5 143.5z" />
<glyph unicode="&#xaa;" horiz-adv-x="356" d="M58 280l12 57h276l-12 -57h-276zM84 452q0 53 46.5 81.5t133.5 28.5h9q9 -1 27 -1h5q1 5 1 11q0 47 -63 47q-46 0 -103 -27l13 72q52 16 113 16q57 0 90 -26t33 -71q0 -18 -8 -59l-17 -86q-7 -36 -11 -66h-76l5 34q-40 -39 -98 -39q-45 0 -72.5 23.5t-27.5 61.5zM173 459 q0 -14 11 -22.5t28 -8.5q31 0 53.5 22t28.5 57q-5 1 -21 1q-100 0 -100 -49z" />
<glyph unicode="&#xab;" horiz-adv-x="537" d="M51 250l137 180h131l-144 -183l76 -208h-113zM257 245l144 185h131l-151 -200l73 -191h-112z" />
<glyph unicode="&#xac;" horiz-adv-x="500" d="M58 147v120h433v-267h-128v147h-305z" />
<glyph unicode="&#xad;" horiz-adv-x="242" d="M-5 198l22 104h242l-22 -104h-242z" />
<glyph unicode="&#xae;" horiz-adv-x="789" d="M73 333q0 146 102 247.5t250 101.5q139 0 239.5 -103t100.5 -245q0 -145 -101 -247t-244 -102t-245 102.5t-102 245.5zM141 333q0 -118 82 -202.5t197 -84.5q114 0 195.5 84.5t81.5 202.5t-80.5 203t-192.5 85q-119 0 -201 -83.5t-82 -204.5zM284 147v382h136 q75 0 108 -22q41 -28 41 -81q0 -34 -18.5 -57.5t-51.5 -31.5q14 -10 20.5 -19.5t17.5 -33.5l60 -137h-100l-45 108q-12 29 -24 38t-38 9h-15v-155h-91zM374 369h32q68 0 68 49q0 43 -61 43h-39v-92z" />
<glyph unicode="&#xaf;" horiz-adv-x="500" d="M178 606l14 67h311l-14 -67h-311z" />
<glyph unicode="&#xb0;" horiz-adv-x="377" d="M111 578q0 61 45.5 105t108.5 44q64 0 108.5 -44t44.5 -106q0 -63 -45 -107.5t-108 -44.5q-64 0 -109 44.5t-45 108.5zM187 577q0 -32 22.5 -55t55.5 -23q31 0 54 22.5t23 54.5t-23 54.5t-55 22.5q-31 0 -54 -22.5t-23 -53.5z" />
<glyph unicode="&#xb1;" d="M45 73v87h467v-87h-467zM45 376v87h187v170h92v-170h188v-87h-188v-169h-92v169h-187z" />
<glyph unicode="&#xb2;" horiz-adv-x="247" d="M59 400l11 51q90 65 121 95t31 49q0 15 -10.5 24t-27.5 9q-28 0 -73 -21l-3 54q49 20 87 20q44 0 70.5 -21.5t26.5 -57.5q0 -44 -55 -95q-48 -42 -72 -56h105l-10 -51h-201z" />
<glyph unicode="&#xb3;" horiz-adv-x="247" d="M64 412l15 52q37 -18 70 -18q28 0 44.5 10.5t16.5 28.5q0 35 -63 35q-10 0 -22 -2l10 52q23 0 36 1t28.5 4t22.5 10.5t7 19.5t-10.5 19.5t-27.5 7.5q-31 0 -74 -18l7 54q42 13 80 13q42 0 67.5 -19t25.5 -50q0 -48 -56 -69q38 -19 38 -58q0 -40 -34 -65t-89 -25 q-56 0 -92 17z" />
<glyph unicode="&#xb4;" horiz-adv-x="500" d="M254 578l102 137h132l-158 -137h-76z" />
<glyph unicode="&#xb5;" horiz-adv-x="588" d="M-24 -203l148 697h129l-51 -242q-12 -59 -12 -82q0 -33 20 -54.5t50 -21.5q28 0 56.5 19.5t48.5 51.5q20 35 40 126l43 203h128l-79 -379q-16 -76 -20 -115h-121l10 53q0 2 1 5l1 5l3 7q0 3 1 6q-59 -85 -153 -85q-39 0 -77 17l-31 -211h-135z" />
<glyph unicode="&#xb6;" d="M67 410q0 54 20.5 107.5t54.5 88.5q61 61 172 61h277l-20 -97h-40l-164 -773h-100l164 773h-78l-164 -773h-100l103 484h-11q-52 0 -83 35t-31 94z" />
<glyph unicode="&#xb7;" horiz-adv-x="269" d="M59 184l28 132h136l-28 -132h-136z" />
<glyph unicode="&#xb8;" horiz-adv-x="500" d="M136 -183l25 42q33 -19 64 -19q26 0 42 11.5t16 30.5q0 13 -11 20.5t-29 7.5q-14 0 -36 -6l-17 22l57 74h50l-43 -55q23 4 39 4q71 0 71 -56q0 -41 -39.5 -69.5t-95.5 -28.5q-45 0 -93 22z" />
<glyph unicode="&#xb9;" horiz-adv-x="247" d="M110 614l103 62h57l-59 -276h-67l34 161q6 29 9 40q-12 -10 -21 -15l-26 -15z" />
<glyph unicode="&#xba;" horiz-adv-x="403" d="M58 280l12 57h322l-12 -57h-322zM96 498q0 71 48 126q50 56 140 56q71 0 110 -36.5t39 -102.5q0 -77 -53.5 -128t-133.5 -51q-66 0 -108 38t-42 98zM189 494q0 -30 17 -48.5t44 -18.5q38 0 64.5 34t26.5 82q0 34 -16.5 53t-45.5 19q-37 0 -63.5 -35.5t-26.5 -85.5z" />
<glyph unicode="&#xbb;" horiz-adv-x="535" d="M14 70l151 200l-73 191h112l85 -206l-143 -185h-132zM227 70l144 183l-76 208h113l87 -211l-137 -180h-131z" />
<glyph unicode="&#xbc;" horiz-adv-x="921" d="M115 580l148 89h80l-85 -402h-95l50 235q10 47 16 65q-9 -9 -36 -26l-36 -22zM201 -41l492 749h76l-492 -749h-76zM561 81l10 72l209 250h114l-54 -255h57l-14 -67h-57l-17 -81h-91l17 81h-174zM658 147q8 1 21 1h70l22 103q11 43 16 62q-57 -85 -129 -166z" />
<glyph unicode="&#xbd;" horiz-adv-x="921" d="M115 580l148 89h80l-85 -402h-95l50 235q10 47 16 65q-9 -9 -36 -26l-36 -22zM201 -41l492 749h76l-492 -749h-76zM548 0l16 72q68 50 128 99q58 47 76.5 69.5t18.5 45.5t-15.5 37t-41.5 14q-38 0 -106 -32l-4 77q71 28 125 28q64 0 102 -31t38 -83q0 -64 -80 -138 q-54 -49 -111 -88l159 1l-15 -71h-290z" />
<glyph unicode="&#xbe;" horiz-adv-x="921" d="M46 284l20 71q54 -25 102 -25q41 0 66.5 16t25.5 43q0 53 -94 53q-13 0 -30 -1l13 72h11l18 -1q50 -3 80.5 12.5t30.5 42.5q0 19 -16 30.5t-42 11.5q-42 0 -107 -26l10 75q58 19 114 19q62 0 98.5 -27.5t36.5 -73.5q0 -73 -87 -101q60 -27 60 -86q0 -57 -49 -93t-128 -36 q-80 0 -133 24zM200 -41l493 749h76l-493 -749h-76zM561 81l9 72l209 250h115l-54 -255h57l-15 -67h-56l-17 -81h-92l17 81h-173zM657 147q9 1 21 1h71l21 103q0 1 17 62q-54 -80 -130 -166z" />
<glyph unicode="&#xbf;" horiz-adv-x="482" d="M10 -5q0 68 56 125q8 9 88 74q39 32 54 54.5t20 54.5h118q-10 -69 -32.5 -103.5t-100.5 -101.5q-65 -55 -65 -101q0 -35 33.5 -57t87.5 -22q47 0 115 23l-2 -108q-63 -16 -137 -16q-109 0 -172 48t-63 130zM229 369l27 125h133l-26 -125h-134z" />
<glyph unicode="&#xc0;" horiz-adv-x="696" d="M-37 0l407 667h149l124 -667h-136l-25 155h-280l-89 -155h-150zM261 260h204l-30 185q-10 60 -11 104h-5q-16 -43 -43 -88zM301 863h127l77 -130h-80z" />
<glyph unicode="&#xc1;" horiz-adv-x="696" d="M-37 0l407 667h149l124 -667h-136l-25 155h-280l-89 -155h-150zM261 260h204l-30 185q-10 60 -11 104h-5q-16 -43 -43 -88zM411 733l104 130h134l-155 -130h-83z" />
<glyph unicode="&#xc2;" horiz-adv-x="696" d="M-37 0l407 667h149l124 -667h-136l-25 155h-280l-89 -155h-150zM261 260h204l-30 185q-10 60 -11 104h-5q-16 -43 -43 -88zM302 733l129 130h116l77 -130h-100l-45 76l-77 -76h-100z" />
<glyph unicode="&#xc3;" horiz-adv-x="696" d="M-37 0l407 667h149l124 -667h-136l-25 155h-280l-89 -155h-150zM261 260h204l-30 185q-10 60 -11 104h-5q-16 -43 -43 -88zM302 744q38 113 121 113q27 0 80 -27q34 -18 47 -18q14 0 27 11t20 28h53q-10 -52 -41 -81.5t-74 -29.5q-16 0 -26.5 3.5t-51.5 24.5 q-34 17 -56 17q-27 0 -45 -41h-54z" />
<glyph unicode="&#xc4;" horiz-adv-x="696" d="M-37 0l407 667h149l124 -667h-136l-25 155h-280l-89 -155h-150zM261 260h204l-30 185q-10 60 -11 104h-5q-16 -43 -43 -88zM307 738l24 115h111l-24 -115h-111zM511 738l24 115h111l-24 -115h-111z" />
<glyph unicode="&#xc5;" horiz-adv-x="696" d="M-37 0l407 667h149l124 -667h-136l-25 155h-280l-89 -155h-150zM261 260h204l-30 185q-10 60 -11 104h-5q-16 -43 -43 -88zM372 807q0 41 30 70.5t73 29.5q40 0 69.5 -30t29.5 -71q0 -42 -29.5 -71.5t-71.5 -29.5t-71.5 29.5t-29.5 72.5zM430 806q0 -18 12.5 -30.5 t30.5 -12.5t30.5 13t12.5 30t-12.5 30t-29.5 13q-18 0 -31 -12.5t-13 -30.5z" />
<glyph unicode="&#xc6;" horiz-adv-x="910" d="M-38 0l515 667h472l-23 -105h-260l-21 -169h225l-23 -105h-214l-22 -183h225l-23 -105h-346l18 156h-248l-120 -156h-155zM315 261h186l23 187q0 14 9 62q1 9 3 17.5t3 13t1 5.5q0 2 2 20q-30 -48 -72 -103z" />
<glyph unicode="&#xc7;" horiz-adv-x="589" d="M72 292q0 74 28.5 146t77.5 124q106 112 286 112q94 0 192 -34l-33 -108q-58 35 -138 35q-121 0 -195 -79q-35 -37 -55 -87t-20 -100q0 -85 55.5 -141t140.5 -56q68 0 135 31l-19 -121q-89 -23 -148 -21l-41 -53q22 5 42 5q74 0 74 -59q0 -43 -39.5 -72.5t-97.5 -29.5 q-44 0 -95 22l24 46q35 -19 66 -19q26 0 41.5 11.5t15.5 31.5q0 28 -44 28q-13 0 -32 -5l-18 22l55 74q-95 13 -152 59q-106 86 -106 238z" />
<glyph unicode="&#xc8;" horiz-adv-x="535" d="M32 0l142 667h396l-23 -105h-260l-35 -166h236l-22 -105h-236l-40 -186h266l-22 -105h-402zM232 863h127l77 -130h-80z" />
<glyph unicode="&#xc9;" horiz-adv-x="535" d="M32 0l142 667h396l-23 -105h-260l-35 -166h236l-22 -105h-236l-40 -186h266l-22 -105h-402zM329 733l104 130h134l-155 -130h-83z" />
<glyph unicode="&#xca;" horiz-adv-x="535" d="M32 0l142 667h396l-23 -105h-260l-35 -166h236l-22 -105h-236l-40 -186h266l-22 -105h-402zM230 733l129 130h116l77 -130h-100l-45 76l-77 -76h-100z" />
<glyph unicode="&#xcb;" horiz-adv-x="535" d="M32 0l142 667h396l-23 -105h-260l-35 -166h236l-22 -105h-236l-40 -186h266l-22 -105h-402zM235 738l24 115h111l-24 -115h-111zM439 738l24 115h111l-24 -115h-111z" />
<glyph unicode="&#xcc;" horiz-adv-x="267" d="M17 0l142 667h139l-142 -667h-139zM99 863h124l71 -130h-80z" />
<glyph unicode="&#xcd;" horiz-adv-x="267" d="M17 0l142 667h139l-142 -667h-139zM193 733l97 130h131l-145 -130h-83z" />
<glyph unicode="&#xce;" horiz-adv-x="267" d="M17 0l142 667h139l-142 -667h-139zM95 733l119 130h116l67 -130h-97l-38 76l-71 -76h-96z" />
<glyph unicode="&#xcf;" horiz-adv-x="267" d="M17 0l142 667h139l-142 -667h-139zM111 738l24 115h104l-24 -115h-104zM268 738l25 115h104l-25 -115h-104z" />
<glyph unicode="&#xd0;" horiz-adv-x="697" d="M29 297l20 93h67l58 277h146q104 0 162.5 -14t103.5 -50q90 -73 90 -219q0 -101 -40.5 -186.5t-110.5 -134.5q-52 -35 -119.5 -49t-187.5 -14h-185l63 297h-67zM190 101q109 1 156 10t84 35q48 35 77.5 99.5t29.5 134.5q0 122 -93 164q-45 21 -122 21h-33l-37 -175h146 l-20 -93h-146z" />
<glyph unicode="&#xd1;" horiz-adv-x="698" d="M27 0l142 667h170l114 -395q18 -61 30 -123h5q9 66 16 96l89 422h128l-141 -667h-175l-112 394q-25 89 -27 123h-5q-2 -26 -13 -79l-93 -438h-128zM310 744q38 113 121 113q27 0 80 -27q34 -18 47 -18q14 0 27 11t20 28h53q-10 -52 -41 -81.5t-74 -29.5q-16 0 -26.5 3.5 t-51.5 24.5q-34 17 -56 17q-27 0 -45 -41h-54z" />
<glyph unicode="&#xd2;" horiz-adv-x="749" d="M68 269q0 84 31.5 164t86.5 138q104 109 267 109q132 0 205 -75t73 -210q0 -79 -31 -159.5t-84 -138.5q-99 -110 -271 -110q-142 0 -215 90q-62 77 -62 192zM208 261q0 -78 39 -125t104 -47q92 0 157 79q38 47 61 110.5t23 122.5q0 81 -39 129t-106 48q-45 0 -87.5 -22 t-72.5 -60q-36 -46 -57.5 -109.5t-21.5 -125.5zM330 863h127l77 -130h-80z" />
<glyph unicode="&#xd3;" horiz-adv-x="749" d="M68 269q0 84 31.5 164t86.5 138q104 109 267 109q132 0 205 -75t73 -210q0 -79 -31 -159.5t-84 -138.5q-99 -110 -271 -110q-142 0 -215 90q-62 77 -62 192zM208 261q0 -78 39 -125t104 -47q92 0 157 79q38 47 61 110.5t23 122.5q0 81 -39 129t-106 48q-45 0 -87.5 -22 t-72.5 -60q-36 -46 -57.5 -109.5t-21.5 -125.5zM424 733l104 130h134l-155 -130h-83z" />
<glyph unicode="&#xd4;" horiz-adv-x="749" d="M68 269q0 84 31.5 164t86.5 138q104 109 267 109q132 0 205 -75t73 -210q0 -79 -31 -159.5t-84 -138.5q-99 -110 -271 -110q-142 0 -215 90q-62 77 -62 192zM208 261q0 -78 39 -125t104 -47q92 0 157 79q38 47 61 110.5t23 122.5q0 81 -39 129t-106 48q-45 0 -87.5 -22 t-72.5 -60q-36 -46 -57.5 -109.5t-21.5 -125.5zM328 733l129 130h116l77 -130h-100l-45 76l-77 -76h-100z" />
<glyph unicode="&#xd5;" horiz-adv-x="749" d="M68 269q0 84 31.5 164t86.5 138q104 109 267 109q132 0 205 -75t73 -210q0 -79 -31 -159.5t-84 -138.5q-99 -110 -271 -110q-142 0 -215 90q-62 77 -62 192zM208 261q0 -78 39 -125t104 -47q92 0 157 79q38 47 61 110.5t23 122.5q0 81 -39 129t-106 48q-45 0 -87.5 -22 t-72.5 -60q-36 -46 -57.5 -109.5t-21.5 -125.5zM328 744q38 113 121 113q27 0 80 -27q34 -18 47 -18q14 0 27 11t20 28h53q-10 -52 -41 -81.5t-74 -29.5q-16 0 -26.5 3.5t-51.5 24.5q-34 17 -56 17q-27 0 -45 -41h-54z" />
<glyph unicode="&#xd6;" horiz-adv-x="749" d="M68 269q0 84 31.5 164t86.5 138q104 109 267 109q132 0 205 -75t73 -210q0 -79 -31 -159.5t-84 -138.5q-99 -110 -271 -110q-142 0 -215 90q-62 77 -62 192zM208 261q0 -78 39 -125t104 -47q92 0 157 79q38 47 61 110.5t23 122.5q0 81 -39 129t-106 48q-45 0 -87.5 -22 t-72.5 -60q-36 -46 -57.5 -109.5t-21.5 -125.5zM333 738l24 115h111l-24 -115h-111zM537 738l24 115h111l-24 -115h-111z" />
<glyph unicode="&#xd7;" d="M90 203l144 144l-144 144l61 61l144 -144l144 144l61 -61l-144 -144l144 -144l-61 -61l-144 143l-144 -143z" />
<glyph unicode="&#xd8;" horiz-adv-x="749" d="M45 26l70 71q-48 75 -48 172q0 84 31.5 164.5t86.5 137.5q105 109 267 109q109 0 181 -54l65 67l54 -54l-68 -69q46 -76 46 -167q0 -85 -30.5 -166t-84.5 -140q-101 -110 -269 -110q-116 0 -180 54l-67 -68zM207 260q0 -30 9 -66l325 345q-36 39 -99 39q-69 0 -124.5 -50 t-83 -122t-27.5 -146zM256 128q32 -39 99 -39q94 0 165 96t71 223q0 31 -9 63z" />
<glyph unicode="&#xd9;" horiz-adv-x="702" d="M80 189q0 54 12 107l79 371h136l-77 -360q-12 -60 -12 -100q0 -53 31.5 -84.5t83.5 -31.5q76 0 122 60q32 42 53 141l80 375h136l-84 -395q-31 -143 -104 -210q-79 -73 -202 -73q-114 0 -184 51t-70 149zM313 863h127l77 -130h-80z" />
<glyph unicode="&#xda;" horiz-adv-x="702" d="M80 189q0 54 12 107l79 371h136l-77 -360q-12 -60 -12 -100q0 -53 31.5 -84.5t83.5 -31.5q76 0 122 60q32 42 53 141l80 375h136l-84 -395q-31 -143 -104 -210q-79 -73 -202 -73q-114 0 -184 51t-70 149zM407 733l104 130h134l-155 -130h-83z" />
<glyph unicode="&#xdb;" horiz-adv-x="702" d="M80 189q0 54 12 107l79 371h136l-77 -360q-12 -60 -12 -100q0 -53 31.5 -84.5t83.5 -31.5q76 0 122 60q32 42 53 141l80 375h136l-84 -395q-31 -143 -104 -210q-79 -73 -202 -73q-114 0 -184 51t-70 149zM308 733l129 130h116l77 -130h-100l-45 76l-77 -76h-100z" />
<glyph unicode="&#xdc;" horiz-adv-x="702" d="M80 189q0 54 12 107l79 371h136l-77 -360q-12 -60 -12 -100q0 -53 31.5 -84.5t83.5 -31.5q76 0 122 60q32 42 53 141l80 375h136l-84 -395q-31 -143 -104 -210q-79 -73 -202 -73q-114 0 -184 51t-70 149zM313 738l24 115h111l-24 -115h-111zM517 738l24 115h111l-24 -115 h-111z" />
<glyph unicode="&#xdd;" horiz-adv-x="641" d="M106 667h141l71 -182q15 -39 28 -86q0 -2 4 -14q13 24 44 64l172 218h156l-321 -392l-59 -275h-136l59 275zM365 733l104 130h134l-155 -130h-83z" />
<glyph unicode="&#xde;" horiz-adv-x="534" d="M20 0l142 667h138l-19 -94h12q120 0 179 -36q79 -49 79 -143q0 -106 -81 -174q-71 -60 -204 -60q-13 0 -73 2l-34 -162h-139zM209 262q34 -2 46 -2q70 0 113 35t43 91q0 62 -63 78q-23 6 -95 6z" />
<glyph unicode="&#xdf;" horiz-adv-x="588" d="M20 0l103 485q27 127 91 185.5t176 58.5q92 0 145 -45t53 -122q0 -72 -43 -119.5t-120 -60.5l-1 -5q50 -10 75 -31q50 -39 50 -114q0 -47 -19.5 -93.5t-53.5 -79.5q-69 -66 -193 -66q-40 0 -84 10l22 100q29 -11 58 -11q61 0 101.5 41.5t40.5 103.5t-49 85q-20 10 -77 10 l19 91q65 1 95 26q21 17 35.5 50t14.5 63q0 33 -23 55t-58 22q-50 0 -80 -38t-54 -152l-95 -449h-129z" />
<glyph unicode="&#xe0;" d="M20 127q0 57 33.5 98.5t94.5 61.5q60 19 151 19h6.5t16.5 -0.5t33 -0.5h17q2 28 2 29q0 40 -27 61.5t-77 21.5q-74 0 -156 -40l19 104q79 24 171 24q87 0 137.5 -41.5t50.5 -113.5q0 -33 -14 -101l-29 -145q-11 -57 -18 -104h-106l9 54q0 2 0.5 5.5t1.5 5.5l4 10q0 3 1 7 q-59 -90 -170 -90q-68 0 -109.5 37t-41.5 98zM147 137q0 -26 18.5 -42t47.5 -16q55 0 93 40.5t50 110.5h-41q-67 0 -107 -15q-28 -10 -44.5 -31.5t-16.5 -46.5zM190 715h122l76 -137h-73z" />
<glyph unicode="&#xe1;" d="M20 127q0 57 33.5 98.5t94.5 61.5q60 19 151 19h6.5t16.5 -0.5t33 -0.5h17q2 28 2 29q0 40 -27 61.5t-77 21.5q-74 0 -156 -40l19 104q79 24 171 24q87 0 137.5 -41.5t50.5 -113.5q0 -33 -14 -101l-29 -145q-11 -57 -18 -104h-106l9 54q0 2 0.5 5.5t1.5 5.5l4 10q0 3 1 7 q-59 -90 -170 -90q-68 0 -109.5 37t-41.5 98zM147 137q0 -26 18.5 -42t47.5 -16q55 0 93 40.5t50 110.5h-41q-67 0 -107 -15q-28 -10 -44.5 -31.5t-16.5 -46.5zM285 578l102 137h132l-158 -137h-76z" />
<glyph unicode="&#xe2;" d="M20 127q0 57 33.5 98.5t94.5 61.5q60 19 151 19h6.5t16.5 -0.5t33 -0.5h17q2 28 2 29q0 40 -27 61.5t-77 21.5q-74 0 -156 -40l19 104q79 24 171 24q87 0 137.5 -41.5t50.5 -113.5q0 -33 -14 -101l-29 -145q-11 -57 -18 -104h-106l9 54q0 2 0.5 5.5t1.5 5.5l4 10q0 3 1 7 q-59 -90 -170 -90q-68 0 -109.5 37t-41.5 98zM147 137q0 -26 18.5 -42t47.5 -16q55 0 93 40.5t50 110.5h-41q-67 0 -107 -15q-28 -10 -44.5 -31.5t-16.5 -46.5zM175 578l131 137h105l73 -137h-90l-43 83l-86 -83h-90z" />
<glyph unicode="&#xe3;" d="M20 127q0 57 33.5 98.5t94.5 61.5q60 19 151 19h6.5t16.5 -0.5t33 -0.5h17q2 28 2 29q0 40 -27 61.5t-77 21.5q-74 0 -156 -40l19 104q79 24 171 24q87 0 137.5 -41.5t50.5 -113.5q0 -33 -14 -101l-29 -145q-11 -57 -18 -104h-106l9 54q0 2 0.5 5.5t1.5 5.5l4 10q0 3 1 7 q-59 -90 -170 -90q-68 0 -109.5 37t-41.5 98zM147 137q0 -26 18.5 -42t47.5 -16q55 0 93 40.5t50 110.5h-41q-67 0 -107 -15q-28 -10 -44.5 -31.5t-16.5 -46.5zM182 594q31 107 107 107q25 0 70 -22q45 -21 56 -21q25 0 42 38h49q-10 -47 -41.5 -77t-70.5 -30q-26 0 -62 20 q-41 22 -59 22q-14 0 -23 -8t-19 -29h-49z" />
<glyph unicode="&#xe4;" d="M20 127q0 57 33.5 98.5t94.5 61.5q60 19 151 19h6.5t16.5 -0.5t33 -0.5h17q2 28 2 29q0 40 -27 61.5t-77 21.5q-74 0 -156 -40l19 104q79 24 171 24q87 0 137.5 -41.5t50.5 -113.5q0 -33 -14 -101l-29 -145q-11 -57 -18 -104h-106l9 54q0 2 0.5 5.5t1.5 5.5l4 10q0 3 1 7 q-59 -90 -170 -90q-68 0 -109.5 37t-41.5 98zM147 137q0 -26 18.5 -42t47.5 -16q55 0 93 40.5t50 110.5h-41q-67 0 -107 -15q-28 -10 -44.5 -31.5t-16.5 -46.5zM193 589l24 111h109l-24 -111h-109zM382 589l24 111h109l-23 -111h-110z" />
<glyph unicode="&#xe5;" d="M20 127q0 57 33.5 98.5t94.5 61.5q60 19 151 19h6.5t16.5 -0.5t33 -0.5h17q2 28 2 29q0 40 -27 61.5t-77 21.5q-74 0 -156 -40l19 104q79 24 171 24q87 0 137.5 -41.5t50.5 -113.5q0 -33 -14 -101l-29 -145q-11 -57 -18 -104h-106l9 54q0 2 0.5 5.5t1.5 5.5l4 10q0 3 1 7 q-59 -90 -170 -90q-68 0 -109.5 37t-41.5 98zM147 137q0 -26 18.5 -42t47.5 -16q55 0 93 40.5t50 110.5h-41q-67 0 -107 -15q-28 -10 -44.5 -31.5t-16.5 -46.5zM251 651q0 41 30 70.5t73 29.5q40 0 69.5 -30t29.5 -71q0 -42 -29.5 -71.5t-71.5 -29.5t-71.5 29.5t-29.5 72.5z M307 650q0 -19 13 -32t32 -13t32 13t13 32q0 18 -13 31.5t-31 13.5q-19 0 -32.5 -13t-13.5 -32z" />
<glyph unicode="&#xe6;" horiz-adv-x="857" d="M21 131q0 46 27 84.5t74 59.5q64 29 184 29q27 0 81 -3l2 26q0 86 -99 86q-77 0 -171 -41l16 104q100 27 188 27q73 0 114 -30q26 -18 34 -62q19 43 65.5 68.5t107.5 25.5q91 0 140.5 -50t49.5 -142q0 -47 -13 -103h-333q-1 -6 -1 -17q0 -51 35.5 -79.5t99.5 -28.5 q61 0 136 29l-22 -104q-85 -19 -162 -19q-138 0 -170 104q-28 -50 -66 -71q-57 -33 -140 -33q-82 0 -129.5 37.5t-47.5 102.5zM151 142q0 -29 21 -47.5t55 -18.5q65 0 108 58q23 32 38 93q-4 0 -8.5 0.5t-9.5 0.5l-35 1q-83 2 -126 -20.5t-43 -66.5zM505 297h210q5 23 5 37 q0 38 -24 61t-63 23q-44 0 -78 -31.5t-50 -89.5z" />
<glyph unicode="&#xe7;" horiz-adv-x="428" d="M40 206q0 58 22.5 115.5t60.5 97.5q73 78 207 78q68 0 129 -19l-31 -103q-42 23 -92 23q-72 0 -114 -49q-50 -61 -50 -137q0 -52 31.5 -82.5t84.5 -30.5q54 0 99 24l-12 -105q-61 -21 -113 -21l-41 -52q21 5 39 5q33 0 51.5 -14.5t18.5 -41.5q0 -41 -39 -70t-95 -29 q-45 0 -93 22l24 42q33 -19 65 -19q25 0 41 11.5t16 30.5q0 13 -11 20.5t-28 7.5q-16 0 -36 -6l-17 22l57 74q-84 14 -129 67.5t-45 138.5z" />
<glyph unicode="&#xe8;" horiz-adv-x="535" d="M40 195q0 119 70 213q75 100 212 100q91 0 141.5 -50t50.5 -141q0 -59 -12 -108h-341q-2 -16 -2 -21q0 -49 36.5 -77t100.5 -28q76 0 152 38l-15 -103q-82 -29 -165 -29q-104 0 -166 56t-62 150zM176 296h222q3 28 3 37q0 40 -24.5 64t-65.5 24q-47 0 -83 -33t-52 -92z M202 715h122l76 -137h-73z" />
<glyph unicode="&#xe9;" horiz-adv-x="535" d="M40 195q0 119 70 213q75 100 212 100q91 0 141.5 -50t50.5 -141q0 -59 -12 -108h-341q-2 -16 -2 -21q0 -49 36.5 -77t100.5 -28q76 0 152 38l-15 -103q-82 -29 -165 -29q-104 0 -166 56t-62 150zM176 296h222q3 28 3 37q0 40 -24.5 64t-65.5 24q-47 0 -83 -33t-52 -92z M297 578l102 137h132l-158 -137h-76z" />
<glyph unicode="&#xea;" horiz-adv-x="535" d="M40 195q0 119 70 213q75 100 212 100q91 0 141.5 -50t50.5 -141q0 -59 -12 -108h-341q-2 -16 -2 -21q0 -49 36.5 -77t100.5 -28q76 0 152 38l-15 -103q-82 -29 -165 -29q-104 0 -166 56t-62 150zM176 296h222q3 28 3 37q0 40 -24.5 64t-65.5 24q-47 0 -83 -33t-52 -92z M194 578l131 137h105l73 -137h-90l-43 83l-86 -83h-90z" />
<glyph unicode="&#xeb;" horiz-adv-x="535" d="M40 195q0 119 70 213q75 100 212 100q91 0 141.5 -50t50.5 -141q0 -59 -12 -108h-341q-2 -16 -2 -21q0 -49 36.5 -77t100.5 -28q76 0 152 38l-15 -103q-82 -29 -165 -29q-104 0 -166 56t-62 150zM176 296h222q3 28 3 37q0 40 -24.5 64t-65.5 24q-47 0 -83 -33t-52 -92z M206 589l24 111h109l-24 -111h-109zM395 589l24 111h109l-23 -111h-110z" />
<glyph unicode="&#xec;" horiz-adv-x="268" d="M24 0l103 494h129l-103 -494h-129zM68 715h119l69 -137h-73z" />
<glyph unicode="&#xed;" horiz-adv-x="268" d="M24 0l103 494h129l-103 -494h-129zM160 578l95 137h129l-148 -137h-76z" />
<glyph unicode="&#xee;" horiz-adv-x="268" d="M24 0l103 494h129l-103 -494h-129zM61 578l121 137h105l63 -137h-87l-37 83l-78 -83h-87z" />
<glyph unicode="&#xef;" horiz-adv-x="268" d="M24 0l103 494h129l-103 -494h-129zM81 589l24 111h100l-24 -111h-100zM234 589l24 111h100l-24 -111h-100z" />
<glyph unicode="&#xf0;" horiz-adv-x="588" d="M39 204q0 56 21 114.5t55 99.5q33 39 83.5 62t102.5 23q36 0 61 -9t60 -34q-17 103 -65 139l-101 -54l-39 50l84 45q-43 16 -97 26l29 61q57 -2 147 -45l108 59l39 -51l-92 -50q57 -56 91.5 -147t34.5 -187q0 -143 -80.5 -231.5t-211.5 -88.5q-110 0 -172 67 q-58 61 -58 151zM170 199q0 -53 28 -85.5t74 -32.5q63 0 103 50q25 31 39.5 74.5t14.5 85.5q0 58 -27.5 91t-75.5 33q-63 0 -105 -58q-51 -72 -51 -158z" />
<glyph unicode="&#xf1;" horiz-adv-x="589" d="M22 0l75 354q4 18 8 40t5 27q9 49 12 73h123l-8 -44l-3 -13q-2 -10 -5 -20l3 -1q21 36 44 51q47 34 111 34q71 0 113 -42.5t42 -113.5q0 -51 -18 -136l-45 -209h-128l45 214q18 86 18 111q0 33 -19 53t-50 20q-66 0 -107 -65q-23 -37 -43 -127l-44 -206h-129zM213 594 q31 107 107 107q25 0 70 -22q45 -21 56 -21q25 0 42 38h49q-10 -47 -41.5 -77t-70.5 -30q-26 0 -62 20q-41 22 -59 22q-14 0 -23 -8t-19 -29h-49z" />
<glyph unicode="&#xf2;" horiz-adv-x="588" d="M39 206q0 55 21 112t56 99q77 91 216 91q109 0 168.5 -58.5t59.5 -165.5q0 -128 -83.5 -213t-208.5 -85q-108 0 -171 66q-58 63 -58 154zM172 198q0 -53 28 -85.5t73 -32.5q64 0 110 61.5t46 147.5q0 59 -27 92t-75 33q-65 0 -105 -58q-50 -71 -50 -158zM217 715h122 l76 -137h-73z" />
<glyph unicode="&#xf3;" horiz-adv-x="588" d="M39 206q0 55 21 112t56 99q77 91 216 91q109 0 168.5 -58.5t59.5 -165.5q0 -128 -83.5 -213t-208.5 -85q-108 0 -171 66q-58 63 -58 154zM172 198q0 -53 28 -85.5t73 -32.5q64 0 110 61.5t46 147.5q0 59 -27 92t-75 33q-65 0 -105 -58q-50 -71 -50 -158zM312 578l102 137 h132l-158 -137h-76z" />
<glyph unicode="&#xf4;" horiz-adv-x="588" d="M39 206q0 55 21 112t56 99q77 91 216 91q109 0 168.5 -58.5t59.5 -165.5q0 -128 -83.5 -213t-208.5 -85q-108 0 -171 66q-58 63 -58 154zM172 198q0 -53 28 -85.5t73 -32.5q64 0 110 61.5t46 147.5q0 59 -27 92t-75 33q-65 0 -105 -58q-50 -71 -50 -158zM214 578l131 137 h105l73 -137h-90l-43 83l-86 -83h-90z" />
<glyph unicode="&#xf5;" horiz-adv-x="588" d="M39 206q0 55 21 112t56 99q77 91 216 91q109 0 168.5 -58.5t59.5 -165.5q0 -128 -83.5 -213t-208.5 -85q-108 0 -171 66q-58 63 -58 154zM172 198q0 -53 28 -85.5t73 -32.5q64 0 110 61.5t46 147.5q0 59 -27 92t-75 33q-65 0 -105 -58q-50 -71 -50 -158zM228 594 q31 107 107 107q25 0 70 -22q45 -21 56 -21q25 0 42 38h49q-10 -47 -41.5 -77t-70.5 -30q-26 0 -62 20q-41 22 -59 22q-14 0 -23 -8t-19 -29h-49z" />
<glyph unicode="&#xf6;" horiz-adv-x="588" d="M39 206q0 55 21 112t56 99q77 91 216 91q109 0 168.5 -58.5t59.5 -165.5q0 -128 -83.5 -213t-208.5 -85q-108 0 -171 66q-58 63 -58 154zM172 198q0 -53 28 -85.5t73 -32.5q64 0 110 61.5t46 147.5q0 59 -27 92t-75 33q-65 0 -105 -58q-50 -71 -50 -158zM225 589l24 111 h109l-24 -111h-109zM414 589l24 111h109l-23 -111h-110z" />
<glyph unicode="&#xf7;" d="M62 303v87h467v-87h-467zM239 122v107h112v-107h-112zM239 465v107h112v-107h-112z" />
<glyph unicode="&#xf8;" horiz-adv-x="588" d="M25 18l56 55q-42 65 -42 133q0 56 20.5 112t56.5 99q76 91 215 91q92 0 147 -40l53 52l46 -47l-53 -52q37 -55 37 -135q0 -130 -82.5 -215t-208.5 -85q-84 0 -144 41l-55 -55zM172 202q0 -13 3 -40l219 226q-26 26 -65 26q-67 0 -107 -58q-50 -72 -50 -154zM210 104 q29 -24 62 -24q64 0 105 52q24 30 38.5 71.5t14.5 78.5q0 13 -5 46z" />
<glyph unicode="&#xf9;" horiz-adv-x="588" d="M62 146q0 63 62 348h129l-51 -242q-12 -60 -12 -83q0 -32 20 -53.5t50 -21.5q28 0 56.5 19.5t48.5 51.5q20 33 40 126l43 203h128l-79 -379q-18 -88 -20 -115h-121l10 53q0 2 1 5l1 5l2 7q1 1 1 6q-58 -85 -151 -85q-73 0 -115.5 42t-42.5 113zM220 715h122l76 -137h-73z " />
<glyph unicode="&#xfa;" horiz-adv-x="588" d="M62 146q0 63 62 348h129l-51 -242q-12 -60 -12 -83q0 -32 20 -53.5t50 -21.5q28 0 56.5 19.5t48.5 51.5q20 33 40 126l43 203h128l-79 -379q-18 -88 -20 -115h-121l10 53q0 2 1 5l1 5l2 7q1 1 1 6q-58 -85 -151 -85q-73 0 -115.5 42t-42.5 113zM318 578l102 137h132 l-158 -137h-76z" />
<glyph unicode="&#xfb;" horiz-adv-x="588" d="M62 146q0 63 62 348h129l-51 -242q-12 -60 -12 -83q0 -32 20 -53.5t50 -21.5q28 0 56.5 19.5t48.5 51.5q20 33 40 126l43 203h128l-79 -379q-18 -88 -20 -115h-121l10 53q0 2 1 5l1 5l2 7q1 1 1 6q-58 -85 -151 -85q-73 0 -115.5 42t-42.5 113zM219 578l131 137h105 l73 -137h-90l-43 83l-86 -83h-90z" />
<glyph unicode="&#xfc;" horiz-adv-x="588" d="M62 146q0 63 62 348h129l-51 -242q-12 -60 -12 -83q0 -32 20 -53.5t50 -21.5q28 0 56.5 19.5t48.5 51.5q20 33 40 126l43 203h128l-79 -379q-18 -88 -20 -115h-121l10 53q0 2 1 5l1 5l2 7q1 1 1 6q-58 -85 -151 -85q-73 0 -115.5 42t-42.5 113zM227 589l24 111h109 l-24 -111h-109zM416 589l24 111h109l-23 -111h-110z" />
<glyph unicode="&#xfd;" d="M-43 -196l29 96q34 -10 59 -10q55 0 92 59l18 29l-87 516h131l40 -282q6 -38 7 -87h4q11 30 41 84l154 285h141l-337 -576q-42 -71 -85 -99t-111 -28q-41 0 -96 13zM284 578l102 137h132l-158 -137h-76z" />
<glyph unicode="&#xfe;" horiz-adv-x="589" d="M-22 -203l196 922h129l-38 -178q-13 -62 -43 -131h4q29 47 66 68.5t89 21.5q82 0 131 -57t49 -152q0 -126 -72 -212t-178 -86q-108 0 -144 91q-1 -2 -1 -5q-1 -4 -1 -10l-2 -9l-56 -263h-129zM196 204q0 -52 24.5 -83t65.5 -31q58 0 100 58t42 138q0 53 -25 84t-68 31 q-58 0 -98.5 -57.5t-40.5 -139.5z" />
<glyph unicode="&#xff;" d="M-43 -196l29 96q34 -10 59 -10q55 0 92 59l18 29l-87 516h131l40 -282q6 -38 7 -87h4q11 30 41 84l154 285h141l-337 -576q-42 -71 -85 -99t-111 -28q-41 0 -96 13zM197 589l24 111h109l-24 -111h-109zM386 589l24 111h109l-23 -111h-110z" />
<glyph unicode="&#x131;" horiz-adv-x="268" d="M24 0l103 494h129l-103 -494h-129z" />
<glyph unicode="&#x141;" horiz-adv-x="481" d="M-2 194l25 115l76 45l66 313h136l-55 -259l159 90l-24 -115l-159 -90l-39 -182h262l-24 -111h-397l50 239z" />
<glyph unicode="&#x142;" horiz-adv-x="286" d="M19 251l22 105l76 43l68 320h129l-58 -274l75 42l-22 -105l-76 -42l-72 -340h-129l63 294z" />
<glyph unicode="&#x152;" horiz-adv-x="910" d="M69 292q0 76 28.5 146.5t81.5 123.5q36 37 78 60t92 34.5t111 11.5q32 0 96.5 -2.5t99.5 -2.5h293l-22 -105h-250l-36 -167h228l-22 -105h-228l-39 -181h255l-22 -105h-329q-5 0 -47.5 -1.5t-54.5 -1.5q-155 0 -232 78q-81 83 -81 217zM204 285q0 -87 56 -140 q49 -46 134 -46q27 0 50 6l97 453q-37 8 -69 8q-131 0 -204 -94q-64 -83 -64 -187z" />
<glyph unicode="&#x153;" horiz-adv-x="910" d="M40 203q0 65 27.5 129.5t73.5 104.5q79 70 198 70q85 0 136 -39q24 -18 39 -57q49 94 186 94q85 0 137 -46q53 -47 53 -143q0 -42 -11 -105h-334q-1 -8 -1 -22q0 -49 37 -79.5t98 -30.5q55 0 136 33l-22 -101q-74 -20 -157 -20q-135 0 -170 90q-66 -93 -194 -93 q-104 0 -168 59.5t-64 155.5zM175 206q0 -58 26.5 -91t72.5 -33q79 0 123 79q33 58 33 124q0 60 -27 94t-75 34q-63 0 -108 -61t-45 -146zM564 298h206q4 21 4 36q0 39 -21.5 62t-58.5 23q-43 0 -78 -32.5t-52 -88.5z" />
<glyph unicode="&#x160;" horiz-adv-x="535" d="M14 29l35 113q87 -47 162 -47q58 0 93 29t35 77q0 29 -18.5 49t-78.5 54q-60 35 -81 55q-51 45 -51 115q0 91 69 146q66 54 184 54q86 0 173 -30l-34 -108q-73 36 -141 36q-52 0 -83.5 -22.5t-31.5 -58.5q0 -32 24 -51q20 -15 62 -38q70 -39 100 -70q50 -52 50 -125 q0 -43 -19.5 -85.5t-51.5 -70.5q-67 -58 -192 -58q-100 0 -205 36zM237 863h100l45 -76l77 76h100l-129 -130h-116z" />
<glyph unicode="&#x161;" horiz-adv-x="428" d="M0 23l30 102q65 -41 128 -41q39 0 64 17t25 44q0 24 -24 41q-11 8 -63 38q-47 27 -67.5 56t-20.5 68q0 72 57.5 114t155.5 42q75 0 143 -23l-29 -94q-53 23 -100 23q-45 0 -71 -15t-26 -41q0 -19 12.5 -29.5t65.5 -38.5q52 -27 74.5 -57.5t22.5 -74.5q0 -75 -59.5 -119.5 t-159.5 -44.5q-94 0 -158 33zM163 715h90l44 -83l85 83h90l-131 -137h-105z" />
<glyph unicode="&#x178;" horiz-adv-x="641" d="M106 667h141l71 -182q15 -39 28 -86q0 -2 4 -14q13 24 44 64l172 218h156l-321 -392l-59 -275h-136l59 275zM271 738l24 115h111l-24 -115h-111zM475 738l24 115h111l-24 -115h-111z" />
<glyph unicode="&#x17d;" horiz-adv-x="535" d="M-13 0l21 99l352 401q32 37 53 54q4 2 14 12q-31 -4 -67 -4h-242l22 105h459l-22 -105l-354 -401q-33 -37 -67 -62q42 6 96 6h228l-22 -105h-471zM252 863h100l45 -76l77 76h100l-129 -130h-116z" />
<glyph unicode="&#x17e;" horiz-adv-x="481" d="M-11 0l19 89l247 249q38 38 79 61q-43 -4 -72 -4h-178l20 97h392l-20 -93l-243 -244q-44 -44 -79 -66q30 5 74 5h196l-20 -94h-415zM196 715h90l44 -83l85 83h90l-131 -137h-105z" />
<glyph unicode="&#x192;" d="M-9 -120l28 93q25 -9 58 -9q38 0 58 27.5t36 101.5l61 289h-103l16 71h102l11 51q28 132 63 177q49 64 145 64q49 0 110 -15l-27 -94q-24 10 -48 10q-47 0 -68 -26.5t-38 -108.5l-12 -58h105l-15 -71h-106l-65 -307q-26 -119 -69 -162q-47 -48 -129 -48q-48 0 -113 15z " />
<glyph unicode="&#x2c6;" horiz-adv-x="500" d="M172 578l131 137h105l73 -137h-90l-43 83l-86 -83h-90z" />
<glyph unicode="&#x2c7;" horiz-adv-x="500" d="M201 715h90l44 -83l85 83h90l-131 -137h-105z" />
<glyph unicode="&#x2d8;" horiz-adv-x="500" d="M211 684q0 7 2 31h65q1 -3 1 -7v-4q0 -30 16.5 -46.5t45.5 -16.5q63 0 92 74h65q-48 -141 -170 -141q-53 0 -85 30t-32 80z" />
<glyph unicode="&#x2d9;" horiz-adv-x="500" d="M275 589l24 111h109l-24 -111h-109z" />
<glyph unicode="&#x2da;" horiz-adv-x="500" d="M240 651q0 41 30 70.5t73 29.5q40 0 69.5 -30t29.5 -71q0 -42 -29.5 -71.5t-71.5 -29.5t-71.5 29.5t-29.5 72.5zM296 650q0 -19 13 -32t32 -13t32 13t13 32q0 18 -13 31.5t-31 13.5q-19 0 -32.5 -13t-13.5 -32z" />
<glyph unicode="&#x2db;" horiz-adv-x="500" d="M288 -113q0 61 95 113h64q-41 -28 -58.5 -49.5t-17.5 -43.5q0 -16 10.5 -25.5t28.5 -9.5q16 0 39 10l-6 -47q-33 -17 -71 -17q-37 0 -60.5 19t-23.5 50z" />
<glyph unicode="&#x2dc;" horiz-adv-x="500" d="M161 594q31 107 107 107q25 0 70 -22q45 -21 56 -21q25 0 42 38h49q-10 -47 -41.5 -77t-70.5 -30q-26 0 -62 20q-41 22 -59 22q-14 0 -23 -8t-19 -29h-49z" />
<glyph unicode="&#x2dd;" horiz-adv-x="500" d="M191 578l79 137h115l-124 -137h-70zM359 578l79 137h115l-124 -137h-70z" />
<glyph unicode="&#x3a9;" horiz-adv-x="667" d="M53 0v115h137q-58 37 -86 75q-51 70 -51 176q0 137 86.5 227t218.5 90t218 -90t86 -227q0 -88 -32 -146.5t-105 -104.5h137v-115h-269v102q56 31 86 72q51 68 51 178q0 86 -38 140q-24 35 -60 55.5t-75 20.5q-70 0 -121 -59q-52 -58 -52 -157q0 -89 33.5 -149.5 t105.5 -100.5v-102h-270z" />
<glyph unicode="&#x3c0;" horiz-adv-x="664" d="M62 365v115h589v-115h-76v-365h-128v365h-180v-365h-128v365h-77z" />
<glyph unicode="&#x2000;" horiz-adv-x="453" />
<glyph unicode="&#x2001;" horiz-adv-x="907" />
<glyph unicode="&#x2002;" horiz-adv-x="453" />
<glyph unicode="&#x2003;" horiz-adv-x="907" />
<glyph unicode="&#x2004;" horiz-adv-x="302" />
<glyph unicode="&#x2005;" horiz-adv-x="226" />
<glyph unicode="&#x2006;" horiz-adv-x="151" />
<glyph unicode="&#x2007;" horiz-adv-x="151" />
<glyph unicode="&#x2008;" horiz-adv-x="113" />
<glyph unicode="&#x2009;" horiz-adv-x="181" />
<glyph unicode="&#x200a;" horiz-adv-x="50" />
<glyph unicode="&#x2010;" horiz-adv-x="242" d="M-5 198l22 104h242l-22 -104h-242z" />
<glyph unicode="&#x2011;" horiz-adv-x="242" d="M-5 198l22 104h242l-22 -104h-242z" />
<glyph unicode="&#x2012;" horiz-adv-x="242" d="M-5 198l22 104h242l-22 -104h-242z" />
<glyph unicode="&#x2013;" d="M20 198l22 104h487l-22 -104h-487z" />
<glyph unicode="&#x2014;" horiz-adv-x="721" d="M-5 198l22 104h721l-22 -104h-721z" />
<glyph unicode="&#x2018;" horiz-adv-x="268" d="M88 480l128 239h116l-99 -239h-145z" />
<glyph unicode="&#x2019;" horiz-adv-x="265" d="M92 480l99 239h145l-129 -239h-115z" />
<glyph unicode="&#x201a;" horiz-adv-x="265" d="M-32 -107l99 239h145l-129 -239h-115z" />
<glyph unicode="&#x201c;" horiz-adv-x="531" d="M123 480l128 239h116l-99 -239h-145zM321 480l128 239h116l-99 -239h-145z" />
<glyph unicode="&#x201d;" horiz-adv-x="531" d="M123 480l99 239h145l-129 -239h-115zM321 480l99 239h145l-129 -239h-115z" />
<glyph unicode="&#x201e;" horiz-adv-x="529" d="M7 -107l99 239h145l-129 -239h-115zM205 -107l99 239h145l-129 -239h-115z" />
<glyph unicode="&#x2020;" d="M89 435l21 98h164l40 186h119l-40 -186h167l-21 -98h-167l-135 -638h-119l136 638h-165z" />
<glyph unicode="&#x2021;" d="M-3 3l21 98h165l71 334h-165l21 98h164l40 186h119l-40 -186h167l-21 -98h-167l-71 -334h167l-21 -98h-167l-43 -206h-119l44 206h-165z" />
<glyph unicode="&#x2022;" horiz-adv-x="667" d="M196 338q0 58 40.5 98.5t99.5 40.5q56 0 96.5 -41t40.5 -98t-40.5 -97.5t-97.5 -40.5q-58 0 -98.5 40.5t-40.5 97.5z" />
<glyph unicode="&#x2024;" horiz-adv-x="268" d="M25 0l26 121h125l-26 -121h-125z" />
<glyph unicode="&#x2025;" d="M25 0l26 121h125l-26 -121h-125zM293 0l26 121h125l-26 -121h-125z" />
<glyph unicode="&#x2026;" horiz-adv-x="806" d="M22 0l28 132h136l-28 -132h-136zM291 0l28 132h136l-28 -132h-136zM559 0l28 132h136l-28 -132h-136z" />
<glyph unicode="&#x202f;" horiz-adv-x="181" />
<glyph unicode="&#x2030;" horiz-adv-x="1057" d="M56 481q0 90 40 151q42 65 122 65q59 0 90.5 -31t31.5 -89q0 -37 -13.5 -83.5t-31.5 -72.5q-40 -59 -120 -59q-119 0 -119 119zM63 -42l525 751h76l-525 -751h-76zM139 476q0 -49 39 -49q22 0 35.5 17t24.5 55q16 53 16 85q0 47 -40 47q-23 0 -36 -15.5t-24 -57.5 q-15 -56 -15 -82zM398 102q0 91 40 152q42 65 122 65q58 0 90 -31t32 -87q0 -36 -14 -84.5t-31 -74.5q-41 -59 -120 -59q-119 0 -119 119zM481 97q0 -49 39 -49q22 0 35.5 17t24.5 55q16 57 16 85q0 48 -40 48q-23 0 -36 -15.5t-24 -58.5q-15 -55 -15 -82zM739 102 q0 89 40 152q42 65 122 65q58 0 90 -31t32 -88q0 -37 -13.5 -84.5t-31.5 -73.5q-43 -59 -120 -59q-119 0 -119 119zM822 98q0 -50 39 -50q22 0 35.5 17t24.5 55q16 55 16 86q0 47 -40 47q-23 0 -36 -15.5t-24 -58.5q-15 -55 -15 -81z" />
<glyph unicode="&#x2032;" horiz-adv-x="225" d="M115 452l34 268h140l-80 -268h-94z" />
<glyph unicode="&#x2033;" horiz-adv-x="407" d="M115 452l34 268h140l-80 -268h-94zM298 452l33 268h141l-80 -268h-94z" />
<glyph unicode="&#x2039;" horiz-adv-x="268" d="M25 250l140 190h132l-147 -195l68 -197h-110z" />
<glyph unicode="&#x203a;" horiz-adv-x="267" d="M-14 60l147 195l-68 197h110l83 -202l-140 -190h-132z" />
<glyph unicode="&#x2044;" horiz-adv-x="212" d="M-154 -41l493 749h76l-493 -749h-76z" />
<glyph unicode="&#x205f;" horiz-adv-x="226" />
<glyph unicode="&#x2070;" horiz-adv-x="247" d="M83 492q0 72 29 125q36 64 101 64q87 0 87 -103q0 -66 -29 -119q-35 -64 -101 -64q-40 0 -63.5 26t-23.5 71zM147 483q0 -39 29 -39q28 0 45 62q15 52 15 86q0 40 -27 40q-30 0 -46 -58q-16 -53 -16 -91z" />
<glyph unicode="&#x2074;" horiz-adv-x="247" d="M68 455l7 50l143 171h81l-37 -173h39l-11 -48h-38l-12 -55h-65l11 55h-118zM139 503h58l14 68q2 13 9 35q-33 -48 -81 -103z" />
<glyph unicode="&#x2075;" horiz-adv-x="247" d="M77 410l11 53q37 -15 68 -15q29 0 45.5 12t16.5 32q0 18 -15 28.5t-41 10.5q-23 0 -59 -11l36 156h176l-11 -50l-113 -1l-10 -45q4 1 8 1q43 0 71 -24t28 -62q0 -45 -33 -72.5t-88 -27.5q-40 0 -90 15z" />
<glyph unicode="&#x2076;" horiz-adv-x="247" d="M86 490q0 70 30 123q39 68 124 68q37 0 72 -13l-17 -48q-28 12 -53 12q-51 0 -76 -59q20 10 41 10q38 0 60.5 -21.5t22.5 -58.5q0 -49 -29 -78.5t-79 -29.5q-46 0 -71 24.5t-25 70.5zM149 479q0 -35 32 -35q18 0 30 15.5t12 38.5q0 38 -32 38q-19 0 -30.5 -16t-11.5 -41z " />
<glyph unicode="&#x2077;" horiz-adv-x="247" d="M77 400l141 208q2 2 6 7t7 9h-130l11 51h201l-11 -50l-145 -225h-80z" />
<glyph unicode="&#x2078;" horiz-adv-x="247" d="M76 474q0 51 62 76q-28 21 -28 52q0 36 29 57.5t77 21.5q43 0 69 -19t26 -50q0 -45 -54 -68q33 -20 33 -58q0 -40 -31 -65.5t-81 -25.5q-47 0 -74.5 21t-27.5 58zM143 476q0 -15 10.5 -24.5t27.5 -9.5t29 11.5t12 27.5q0 24 -30 40h-3q-20 -6 -33 -19t-13 -26zM174 602 q0 -18 30 -34q43 11 43 37q0 12 -10 19.5t-25 7.5q-16 0 -27 -8.5t-11 -21.5z" />
<glyph unicode="&#x2079;" horiz-adv-x="247" d="M74 408l17 47q27 -11 50 -11q30 0 47 13.5t31 46.5q-23 -10 -42 -10q-39 0 -61 21t-22 59q0 49 29 78t77 29q46 0 71 -24.5t25 -69.5q0 -84 -35 -136q-37 -56 -110 -56q-47 0 -77 13zM161 577q0 -16 9 -26t23 -10q17 0 28.5 15t11.5 38q0 38 -32 38q-17 0 -28.5 -16 t-11.5 -39z" />
<glyph unicode="&#x2080;" horiz-adv-x="247" d="M-2 92q0 72 29 125q36 64 101 64q87 0 87 -103q0 -66 -29 -119q-35 -64 -101 -64q-40 0 -63.5 26t-23.5 71zM62 83q0 -39 29 -39q28 0 45 62q15 52 15 86q0 40 -27 40q-30 0 -46 -58q-16 -53 -16 -91z" />
<glyph unicode="&#x2081;" horiz-adv-x="247" d="M25 214l103 62h57l-59 -276h-67l34 161q7 31 9 40q-10 -9 -21 -15l-26 -15z" />
<glyph unicode="&#x2082;" horiz-adv-x="247" d="M-26 0l11 51q90 65 121 95t31 49q0 15 -10.5 24t-27.5 9q-26 0 -73 -22l-3 55q49 20 87 20q44 0 70.5 -21.5t26.5 -57.5q0 -44 -55 -95q-48 -42 -72 -56h105l-10 -51h-201z" />
<glyph unicode="&#x2083;" horiz-adv-x="247" d="M-21 12l15 52q37 -18 70 -18q28 0 44.5 10.5t16.5 28.5q0 35 -63 35q-2 0 -4.5 -0.5t-7.5 -1t-10 -0.5l10 52q51 -1 72.5 7t21.5 28q0 12 -10.5 19.5t-27.5 7.5q-30 0 -74 -18l7 53q39 14 80 14q42 0 67.5 -19t25.5 -51q0 -49 -56 -68q38 -19 38 -58q0 -40 -34 -65 t-89 -25q-56 0 -92 17z" />
<glyph unicode="&#x2084;" horiz-adv-x="247" d="M-17 55l7 50l143 171h81l-37 -173h39l-11 -48h-38l-12 -55h-65l11 55h-118zM54 103h58l14 68q2 13 9 35q-34 -50 -81 -103z" />
<glyph unicode="&#x2085;" horiz-adv-x="247" d="M-8 10l11 53q38 -15 68 -15q29 0 45.5 12t16.5 32q0 18 -15 28.5t-41 10.5q-23 0 -59 -11l36 156h176l-11 -51h-113l-10 -45q4 1 8 1q41 2 70 -23.5t29 -62.5q0 -45 -33 -72.5t-88 -27.5q-41 0 -90 15z" />
<glyph unicode="&#x2086;" horiz-adv-x="247" d="M1 90q0 70 30 123q39 68 124 68q37 0 72 -13l-17 -48q-27 12 -53 12q-51 0 -76 -59q21 9 41 9q38 0 60.5 -21.5t22.5 -58.5q0 -49 -29.5 -78t-78.5 -29q-46 0 -71 24.5t-25 70.5zM64 79q0 -35 32 -35q18 0 30 15.5t12 38.5q0 37 -32 37q-19 0 -30.5 -15.5t-11.5 -40.5z " />
<glyph unicode="&#x2087;" horiz-adv-x="247" d="M-8 0l141 208q2 2 6 7t7 9h-130l11 51h201l-11 -50l-145 -225h-80z" />
<glyph unicode="&#x2088;" horiz-adv-x="247" d="M-9 73q0 52 62 77q-28 21 -28 52q0 36 29 57.5t77 21.5q43 0 69 -19t26 -50q0 -44 -54 -68q33 -20 33 -58q0 -40 -31 -65.5t-81 -25.5q-47 0 -74.5 21t-27.5 57zM58 75q0 -14 11 -23.5t27 -9.5q17 0 29 11.5t12 27.5q0 23 -30 40q-1 0 -3 -1q-20 -5 -33 -18t-13 -27z M89 202q0 -19 30 -35q43 13 43 38q0 12 -10 19.5t-25 7.5q-16 0 -27 -8.5t-11 -21.5z" />
<glyph unicode="&#x2089;" horiz-adv-x="247" d="M-12 8l17 47q27 -11 50 -11q30 0 47 13.5t31 46.5q-23 -10 -42 -10q-39 0 -61 21t-22 59q0 49 29 78t77 29q46 0 71 -24.5t25 -69.5q0 -83 -35 -136q-37 -56 -110 -56q-47 0 -77 13zM75 177q0 -16 9 -26t23 -10q17 0 28.5 15t11.5 38q0 38 -32 38q-17 0 -28.5 -16 t-11.5 -39z" />
<glyph unicode="&#x20ac;" horiz-adv-x="699" d="M49 251l37 69h54q1 13 5 33h-74l36 69h57q45 124 138 191t220 67q108 0 177 -51l-64 -120q-43 69 -119 69q-133 0 -205 -156h279l-36 -69h-266q-5 -20 -7 -33h255l-37 -69h-222q4 -76 42 -119t100 -43q79 0 142 63l-32 -149q-57 -16 -117 -16q-122 0 -194.5 69.5 t-80.5 194.5h-88z" />
<glyph unicode="&#x2113;" horiz-adv-x="500" d="M114 179q0 13 15 28q30 32 45 53q35 184 81 292q51 125 128 125q35 0 56.5 -25.5t21.5 -67.5q0 -85 -68 -192q-29 -43 -107 -125l-14 -70q-16 -80 -16 -113q0 -30 16 -30q20 0 42 48q10 20 22 20q18 0 18 -21q0 -43 -35 -79.5t-76 -36.5q-40 0 -59 33.5t-19 104.5 q0 22 2 57q-25 -26 -34 -26q-7 0 -13 8t-6 17zM301 357q101 117 101 217q0 40 -18 40q-17 0 -31 -39q-28 -82 -52 -218z" />
<glyph unicode="&#x2117;" horiz-adv-x="789" d="M73 333q0 146 102 247.5t250 101.5q139 0 239.5 -103t100.5 -245q0 -145 -101 -247t-244 -102t-245 102.5t-102 245.5zM141 333q0 -118 82 -202.5t197 -84.5q114 0 195.5 84.5t81.5 202.5t-80.5 203t-192.5 85q-119 0 -201 -83.5t-82 -204.5zM293 147v382h136 q75 0 108 -22q41 -28 41 -81q0 -47 -35 -85.5t-114 -38.5h-45v-155h-91zM383 369h35q68 0 68 49q0 43 -61 43h-42v-92z" />
<glyph unicode="&#x2122;" horiz-adv-x="869" d="M-46 598v71h322v-71h-114v-311h-93v311h-115zM318 287v382h140l60 -173q20 -58 28 -95q8 36 22 75l72 193h142v-382h-91v293l-9 -31l-96 -262h-78l-75 208q-17 47 -29 92v-300h-86z" />
<glyph unicode="&#x2126;" horiz-adv-x="667" d="M53 0v115h137q-58 37 -86 75q-51 70 -51 176q0 137 86.5 227t218.5 90t218 -90t86 -227q0 -88 -32 -146.5t-105 -104.5h137v-115h-269v102q56 31 86 72q51 68 51 178q0 86 -38 140q-24 35 -60 55.5t-75 20.5q-70 0 -121 -59q-52 -58 -52 -157q0 -89 33.5 -149.5 t105.5 -100.5v-102h-270z" />
<glyph unicode="&#x212e;" horiz-adv-x="874" d="M60 332q0 158 111 252q113 95 284 95q170 0 277 -100q105 -99 105 -265h-615v-184q87 -102 235 -102q142 0 229 102h100q-111 -142 -339 -142q-165 0 -276 93q-111 95 -111 251zM222 357h461v171q-84 110 -233 110q-148 0 -228 -110v-171z" />
<glyph unicode="&#x2153;" horiz-adv-x="921" d="M115 580l148 89h80l-85 -402h-95l50 235q10 47 16 65q-9 -9 -36 -26l-36 -22zM201 -41l492 749h76l-492 -749h-76zM556 17l20 71q57 -25 102 -25q41 0 66.5 16.5t25.5 43.5q0 53 -94 53q-14 0 -30 -2l13 72q50 0 69 2q33 3 52.5 17t19.5 35q0 19 -16.5 30.5t-42.5 11.5 q-44 0 -106 -26l9 75q60 19 115 19q62 0 98.5 -27.5t36.5 -73.5q0 -72 -88 -101q60 -26 60 -85q0 -58 -49 -94t-128 -36q-80 0 -133 24z" />
<glyph unicode="&#x2154;" horiz-adv-x="921" d="M38 267l15 72q83 61 129 99q58 48 76.5 70.5t18.5 44.5q0 23 -15.5 37t-42.5 14q-37 0 -105 -32l-4 77q71 28 125 28q64 0 102 -31t38 -83q0 -64 -80 -138q-50 -47 -112 -88l159 1l-15 -71h-289zM200 -41l493 749h76l-493 -749h-76zM556 17l20 71q56 -25 101 -25 q42 0 67.5 16.5t25.5 43.5q0 53 -94 53q-15 0 -30 -2l13 72q49 0 68 2q33 3 52.5 17t19.5 35q0 19 -16 30.5t-42 11.5q-45 0 -107 -26l10 75q58 19 114 19q62 0 98.5 -27.5t36.5 -73.5q0 -72 -87 -101q60 -26 60 -85q0 -58 -49.5 -94t-128.5 -36t-132 24z" />
<glyph unicode="&#x215b;" horiz-adv-x="921" d="M115 580l148 89h80l-85 -402h-95l50 235q10 47 16 65q-9 -9 -36 -26l-36 -22zM201 -41l492 749h76l-492 -749h-76zM574 107q0 40 25 69.5t69 41.5q-44 25 -44 78q0 52 41.5 83t110.5 31q62 0 100 -27.5t38 -72.5q0 -33 -22.5 -60.5t-59.5 -38.5q51 -25 51 -87 q0 -58 -45 -94.5t-117 -36.5q-68 0 -107.5 31t-39.5 83zM668 109q0 -23 16 -37t41 -14q27 0 45 17t18 42q0 36 -45 62q-35 -10 -55 -29t-20 -41zM713 296q0 -29 45 -54q67 22 67 58q0 19 -15 30.5t-38 11.5q-25 0 -42 -13t-17 -33z" />
<glyph unicode="&#x215c;" horiz-adv-x="921" d="M46 284l20 71q54 -25 102 -25q41 0 66.5 16t25.5 43q0 53 -94 53q-13 0 -30 -1l13 72h11l18 -1q50 -3 80.5 12.5t30.5 42.5q0 19 -16 30.5t-42 11.5q-42 0 -107 -26l10 75q58 19 114 19q62 0 98.5 -27.5t36.5 -73.5q0 -73 -87 -101q60 -27 60 -86q0 -57 -49 -93t-128 -36 q-80 0 -133 24zM200 -41l493 749h76l-493 -749h-76zM573 107q0 40 25 69.5t69 41.5q-44 27 -44 78q0 52 41.5 83t110.5 31q62 0 100 -27.5t38 -72.5q0 -33 -22.5 -60.5t-59.5 -38.5q51 -25 51 -87q0 -58 -45 -94.5t-117 -36.5q-68 0 -107.5 31t-39.5 83zM667 109 q0 -23 16 -37t41 -14q27 0 45 17t18 42q0 36 -45 62q-35 -11 -55 -29.5t-20 -40.5zM712 296q0 -30 46 -54q2 1 6 2q27 8 43.5 23t16.5 33q0 19 -15 30.5t-38 11.5q-25 0 -42 -13t-17 -33z" />
<glyph unicode="&#x215d;" horiz-adv-x="921" d="M65 281l16 74q51 -22 97 -22q43 0 68 18t25 49q0 28 -22.5 44t-61.5 16q-36 0 -84 -16l52 225h254l-15 -70l-165 -1l-16 -70q6 1 15 1q61 0 101 -35t40 -89q0 -60 -43 -101q-45 -44 -132 -44q-59 0 -129 21zM200 -41l492 749h76l-492 -749h-76zM573 107q0 40 25 69.5 t69 41.5q-44 27 -44 78q0 52 41.5 83t110.5 31q62 0 100 -27.5t38 -72.5q0 -33 -22.5 -60.5t-59.5 -38.5q51 -25 51 -87q0 -58 -45 -94.5t-117 -36.5q-68 0 -107.5 31t-39.5 83zM667 109q0 -23 16 -37t41 -14q27 0 45 17t18 42q0 36 -45 62q-35 -10 -55 -29t-20 -41z M712 296q0 -29 45 -54q67 22 67 58q0 19 -15 30.5t-38 11.5q-25 0 -42 -13t-17 -33z" />
<glyph unicode="&#x215e;" horiz-adv-x="921" d="M66 267l205 302q10 14 21 28q-10 -1 -24 -1h-167l15 71h290l-15 -72l-213 -328h-112zM200 -41l493 749h76l-493 -749h-76zM573 107q0 40 25 69.5t69 41.5q-44 27 -44 78q0 52 41.5 83t110.5 31q62 0 100 -27.5t38 -72.5q0 -33 -22.5 -60.5t-59.5 -38.5q51 -25 51 -87 q0 -58 -45 -94.5t-117 -36.5q-68 0 -107.5 31t-39.5 83zM667 109q0 -23 16 -37t41 -14q27 0 45 17t18 42q0 36 -45 62q-35 -11 -55 -29.5t-20 -40.5zM712 296q0 -30 46 -54q2 1 6 2q27 8 43.5 23t16.5 33q0 19 -15 30.5t-38 11.5q-25 0 -42 -13t-17 -33z" />
<glyph unicode="&#x21e7;" horiz-adv-x="1090" d="M93 261l568 467l366 -467h-233l-55 -261h-467l55 261h-234zM299 339h123l-57 -262h312l56 262h124l-220 279z" />
<glyph unicode="&#x2202;" horiz-adv-x="500" d="M40 221q0 89 59.5 150.5t147.5 61.5q75 0 122 -47q-29 71 -103 115t-179 53l16 111q98 -11 163.5 -36t116.5 -71q124 -109 124 -290q0 -126 -64.5 -201.5t-171.5 -75.5q-96 0 -163.5 67t-67.5 163zM170 217q0 -55 29.5 -92.5t73.5 -37.5t73.5 36.5t29.5 91.5 q0 53 -29.5 88.5t-73.5 35.5t-73.5 -35t-29.5 -87z" />
<glyph unicode="&#x2206;" horiz-adv-x="667" d="M41 0l245 667h139l249 -667h-633zM224 120h264l-132 391z" />
<glyph unicode="&#x220f;" horiz-adv-x="732" d="M64 -122h83v760h-83v120h653v-120h-84v-760h84v-120h-292v120h80v760h-230v-760h80v-120h-291v120z" />
<glyph unicode="&#x2211;" horiz-adv-x="667" d="M45 -109l244 384l-244 350v133h599v-251h-115l-14 131h-325l250 -363l-250 -397h335l8 130h120v-250h-608v133z" />
<glyph unicode="&#x2212;" d="M62 303v87h467v-87h-467z" />
<glyph unicode="&#x221a;" horiz-adv-x="667" d="M24 271v120h200l19 -89q13 -61 13 -147h11q8 136 44 293l89 383h291v-120h-179l-166 -711h-170l-58 271h-94z" />
<glyph unicode="&#x221e;" horiz-adv-x="667" d="M41 340q0 71 45.5 117t116.5 46q80 0 152 -79q70 79 156 79q71 0 117 -45.5t46 -116.5t-46 -117.5t-116 -46.5q-84 0 -151 80q-73 -80 -157 -80q-71 0 -117 46t-46 117zM167 340q0 -22 16.5 -38t38.5 -16q36 0 72 54l-2 4l-2 2q-29 48 -68 48q-23 0 -39 -15.5t-16 -38.5z M421 340q0 -1 1.5 -3t2.5 -3q32 -49 69 -49q23 0 38.5 16t15.5 39q0 22 -16 38t-39 16q-36 0 -72 -54z" />
<glyph unicode="&#x222b;" horiz-adv-x="500" d="M73 -232l23 115q35 -10 56 -10q43 0 53 35q5 20 5 97v480q0 128 10 166q13 50 56.5 78.5t106.5 28.5q37 0 92 -10l-24 -115q-34 10 -55 10q-53 0 -57 -56q-1 -5 -1 -143v-413q0 -101 -4 -135.5t-19 -60.5q-42 -77 -149 -77q-39 0 -93 10z" />
<glyph unicode="&#x2248;" horiz-adv-x="500" d="M31 192q32 79 65 109t87 30q33 0 103 -26q65 -24 88 -24t38 11t33 40l73 -42q-23 -47 -38 -68.5t-36 -36.5q-40 -28 -85 -28q-28 0 -102 27q-65 23 -82 23q-25 0 -40 -12.5t-33 -48.5zM31 394q33 79 65.5 108.5t86.5 29.5q31 0 103 -26q64 -23 87 -23q24 0 39 10.5 t33 40.5l73 -42q-23 -47 -38 -68.5t-36 -36.5q-40 -28 -85 -28q-25 0 -102 27q-61 22 -82 22q-25 0 -40 -12.5t-33 -47.5z" />
<glyph unicode="&#x2260;" d="M62 226v87h167l31 67h-198v87h239l49 105l83 -39l-31 -66h127v-87h-167l-31 -67h198v-87h-239l-49 -105l-83 39l31 66h-127z" />
<glyph unicode="&#x2264;" horiz-adv-x="500" d="M58 2v120h433v-120h-433zM58 353v108l433 207v-121l-298 -138l298 -138v-121z" />
<glyph unicode="&#x2265;" horiz-adv-x="500" d="M58 2v120h433v-120h-433zM58 150v121l298 138l-298 138v121l433 -208v-107z" />
<glyph unicode="&#x2303;" horiz-adv-x="856" d="M141 356l378 311l245 -311l-95 -78l-183 233l-284 -233z" />
<glyph unicode="&#x2318;" horiz-adv-x="842" d="M66 110q0 70 59 127.5t132 57.5h76l16 77h-76q-55 0 -90 34.5t-35 86.5q0 72 59 128.5t131 56.5q54 0 89 -35.5t35 -87.5q0 -15 -3 -30l-17 -77h76l17 77q14 63 68 108t118 45q54 0 88.5 -34.5t34.5 -86.5q0 -73 -58.5 -129t-129.5 -56h-77l-16 -77h77q54 0 88 -34.5 t34 -86.5q0 -73 -57.5 -129t-129.5 -56q-56 0 -91 34.5t-35 86.5q0 10 4 32l17 77h-76l-17 -77q-14 -63 -67.5 -108t-117.5 -45q-56 0 -91 34.5t-35 86.5zM145 127q0 -26 17.5 -44t45.5 -18q32 0 58.5 23t33.5 54l17 77h-76q-36 0 -66 -27.5t-30 -64.5zM227 508 q0 -26 17 -43t45 -17h76l17 77q2 10 2 16q0 26 -17.5 43.5t-44.5 17.5q-37 0 -66 -28.5t-29 -65.5zM410 295h76l16 77h-76zM528 127q0 -26 17.5 -44t45.5 -18q36 0 65 28.5t29 64.5q0 26 -17 43.5t-44 17.5h-77l-17 -77q-2 -10 -2 -15zM595 448h77q36 0 65.5 28.5t29.5 63.5 q0 26 -17.5 44t-44.5 18q-32 0 -59 -22.5t-34 -54.5z" />
<glyph unicode="&#x2325;" horiz-adv-x="923" d="M167 590l16 77h268l167 -590h207l-16 -77h-267l-168 590h-207zM623 590l16 77h312l-16 -77h-312z" />
<glyph unicode="&#x2460;" horiz-adv-x="820" d="M100 307q0 109 58.5 205t155 152t202.5 56q139 0 230 -92t91 -228q0 -108 -59 -204t-155.5 -152t-202.5 -56q-139 0 -229.5 91.5t-90.5 227.5zM393 474l19 -52l52 53l-56 -334h79l72 427h-58z" />
<glyph unicode="&#x2461;" horiz-adv-x="820" d="M100 307q0 109 58.5 205t155 152t202.5 56q139 0 230 -92t91 -228q0 -108 -59 -204t-155.5 -152t-202.5 -56q-139 0 -229.5 91.5t-90.5 227.5zM324 141h222l10 60h-128q3 4 31 35t43 50q91 117 91 195q0 44 -24 69t-66 25q-57 0 -102 -31l-6 -68q14 11 40 24.5t47 13.5 q28 0 28 -43q0 -33 -20.5 -73t-42 -65.5t-61.5 -68t-51 -55.5z" />
<glyph unicode="&#x2462;" horiz-adv-x="820" d="M100 307q0 109 58.5 205t155 152t202.5 56q139 0 230 -92t91 -228q0 -108 -59 -204t-155.5 -152t-202.5 -56q-139 0 -229.5 91.5t-90.5 227.5zM333 152q30 -18 76 -18q72 0 116.5 40.5t44.5 111.5q0 58 -49 76q35 13 57.5 45.5t22.5 74.5q0 43 -28 68t-77 25 q-52 0 -85 -23l-8 -66q42 28 75 28q42 0 42 -45q0 -38 -23.5 -57t-55.5 -19h-25l-10 -62h30q54 0 54 -52q0 -37 -22.5 -60.5t-56.5 -23.5q-25 0 -67 25z" />
<glyph unicode="&#x2463;" horiz-adv-x="820" d="M100 307q0 109 58.5 205t155 152t202.5 56q139 0 230 -92t91 -228q0 -108 -59 -204t-155.5 -152t-202.5 -56q-139 0 -229.5 91.5t-90.5 227.5zM313 233h134l-15 -92h76l15 92h44l11 60h-44l46 275h-99l-157 -274zM402 293l81 153l-25 -153h-56z" />
<glyph unicode="&#x2464;" horiz-adv-x="820" d="M100 307q0 109 58.5 205t155 152t202.5 56q139 0 230 -92t91 -228q0 -108 -59 -204t-155.5 -152t-202.5 -56q-139 0 -229.5 91.5t-90.5 227.5zM333 153q51 -18 90 -18q68 0 116 49t48 132q0 47 -26 74t-67 27q-26 0 -39 -3l15 89h133l11 65h-204l-39 -228q43 17 72 17 q31 0 46.5 -16.5t15.5 -43.5q0 -41 -24.5 -68t-58.5 -27q-32 0 -73 24z" />
<glyph unicode="&#x2465;" horiz-adv-x="820" d="M100 307q0 109 58.5 205t155 152t202.5 56q139 0 230 -92t91 -228q0 -108 -59 -204t-155.5 -152t-202.5 -56q-139 0 -229.5 91.5t-90.5 227.5zM336 254q0 -120 88 -120q59 0 100 50.5t41 130.5q0 48 -22 74t-64 26q-26 0 -51 -23q29 122 95 122q21 0 51 -21q3 11 20 67 q-39 15 -69 15q-77 0 -133 -87.5t-56 -233.5zM409 239q0 40 10 68t21 37.5t21 9.5q23 0 23 -47q0 -45 -16.5 -79t-33.5 -34q-25 0 -25 45z" />
<glyph unicode="&#x2466;" horiz-adv-x="820" d="M100 307q0 109 58.5 205t155 152t202.5 56q139 0 230 -92t91 -228q0 -108 -59 -204t-155.5 -152t-202.5 -56q-139 0 -229.5 91.5t-90.5 227.5zM346 141h86l175 367l10 60h-220l-11 -61h140z" />
<glyph unicode="&#x2467;" horiz-adv-x="820" d="M100 307q0 109 58.5 205t155 152t202.5 56q139 0 230 -92t91 -228q0 -108 -59 -204t-155.5 -152t-202.5 -56q-139 0 -229.5 91.5t-90.5 227.5zM331 228q0 -43 27 -68.5t73 -25.5q60 0 100.5 41t40.5 107q0 56 -48 86q35 18 59 52.5t24 70.5q0 38 -27.5 61t-72.5 23 q-60 0 -100.5 -36t-40.5 -94q0 -50 49 -82q-84 -43 -84 -135zM411 239q0 55 48 92q32 -23 32 -60q0 -33 -14.5 -55t-33.5 -22q-14 0 -23 12.5t-9 32.5zM443 453q0 24 16.5 43t34.5 19q14 0 22.5 -10.5t8.5 -27.5q0 -27 -14.5 -50.5t-29.5 -32.5q-38 25 -38 59z" />
<glyph unicode="&#x2468;" horiz-adv-x="820" d="M100 307q0 109 58.5 205t155 152t202.5 56q139 0 230 -92t91 -228q0 -108 -59 -204t-155.5 -152t-202.5 -56q-139 0 -229.5 91.5t-90.5 227.5zM340 148q34 -14 69 -14q75 0 132 87.5t57 231.5q0 122 -89 122q-59 0 -100 -52t-41 -132q0 -48 22 -73.5t64 -25.5q23 0 51 24 q-10 -48 -34 -84.5t-60 -36.5q-21 0 -51 19zM449 398q0 45 16.5 81t33.5 36q25 0 25 -45q0 -26 -12.5 -71t-39.5 -45q-23 0 -23 44z" />
<glyph unicode="&#x2469;" horiz-adv-x="820" d="M100 307q0 109 58.5 205t155 152t202.5 56q139 0 230 -92t91 -228q0 -108 -59 -204t-155.5 -152t-202.5 -56q-139 0 -229.5 91.5t-90.5 227.5zM263 474l19 -52l52 53l-56 -334h79l72 427h-58zM437 267q0 -133 89 -133q66 0 114 85.5t48 221.5q0 134 -88 134 q-67 0 -115 -86t-48 -222zM515 247q0 70 13.5 134.5t31 99t30.5 34.5q21 0 21 -55q0 -69 -13.5 -133t-30.5 -98.5t-31 -34.5q-21 0 -21 53z" />
<glyph unicode="&#x246a;" horiz-adv-x="820" d="M100 307q0 109 58.5 205t155 152t202.5 56q139 0 230 -92t91 -228q0 -108 -59 -204t-155.5 -152t-202.5 -56q-139 0 -229.5 91.5t-90.5 227.5zM281 474l19 -52l52 53l-56 -334h79l72 427h-58zM487 474l19 -52l52 53l-56 -334h79l72 427h-58z" />
<glyph unicode="&#x246b;" horiz-adv-x="820" d="M100 307q0 109 58.5 205t155 152t202.5 56q139 0 230 -92t91 -228q0 -108 -59 -204t-155.5 -152t-202.5 -56q-139 0 -229.5 91.5t-90.5 227.5zM261 474l19 -52l52 53l-56 -334h79l72 427h-58zM414 141h222l10 60h-128q3 4 31 35t43 50q91 117 91 195q0 44 -24 69t-66 25 q-57 0 -102 -31l-6 -68q14 11 40 24.5t47 13.5q28 0 28 -43q0 -33 -20.5 -73t-42 -65.5t-61.5 -68t-51 -55.5z" />
<glyph unicode="&#x246c;" horiz-adv-x="820" d="M100 307q0 109 58.5 205t155 152t202.5 56q139 0 230 -92t91 -228q0 -108 -59 -204t-155.5 -152t-202.5 -56q-139 0 -229.5 91.5t-90.5 227.5zM267 474l19 -52l52 53l-56 -334h79l72 427h-58zM409 152q30 -18 76 -18q72 0 116.5 40.5t44.5 111.5q0 58 -49 76 q36 14 58 46.5t22 75.5q0 42 -28 66.5t-77 24.5q-52 0 -85 -23l-8 -66q42 28 75 28q42 0 42 -45q0 -38 -23.5 -57t-55.5 -19h-25l-10 -62h30q54 0 54 -52q0 -37 -22.5 -60.5t-56.5 -23.5q-25 0 -67 25z" />
<glyph unicode="&#x246d;" horiz-adv-x="820" d="M100 307q0 109 58.5 205t155 152t202.5 56q139 0 230 -92t91 -228q0 -108 -59 -204t-155.5 -152t-202.5 -56q-139 0 -229.5 91.5t-90.5 227.5zM258 474l19 -52l52 53l-56 -334h79l72 427h-58zM406 233h134l-15 -92h76l15 92h44l11 60h-44l46 275h-99l-157 -274zM495 293 l81 153l-25 -153h-56z" />
<glyph unicode="&#x246e;" horiz-adv-x="820" d="M100 307q0 109 58.5 205t155 152t202.5 56q139 0 230 -92t91 -228q0 -108 -59 -204t-155.5 -152t-202.5 -56q-139 0 -229.5 91.5t-90.5 227.5zM259 474l19 -52l52 53l-56 -334h79l72 427h-58zM411 153q51 -18 90 -18q68 0 116 49t48 132q0 47 -26 74t-67 27q-26 0 -39 -3 l15 89h133l11 65h-204l-39 -228q43 17 72 17q31 0 46.5 -16.5t15.5 -43.5q0 -41 -24.5 -68t-58.5 -27q-32 0 -73 24z" />
<glyph unicode="&#x246f;" horiz-adv-x="820" d="M100 307q0 109 58.5 205t155 152t202.5 56q139 0 230 -92t91 -228q0 -108 -59 -204t-155.5 -152t-202.5 -56q-139 0 -229.5 91.5t-90.5 227.5zM253 474l19 -52l52 53l-56 -334h79l72 427h-58zM430 254q0 -120 88 -120q59 0 100 50.5t41 130.5q0 48 -22 74t-64 26 q-26 0 -51 -23q29 122 95 122q21 0 51 -21q3 11 20 67q-39 15 -69 15q-77 0 -133 -87.5t-56 -233.5zM503 239q0 40 10 68t21 37.5t21 9.5q23 0 23 -47q0 -45 -16.5 -79t-33.5 -34q-25 0 -25 45z" />
<glyph unicode="&#x2470;" horiz-adv-x="820" d="M100 307q0 109 58.5 205t155 152t202.5 56q139 0 230 -92t91 -228q0 -108 -59 -204t-155.5 -152t-202.5 -56q-139 0 -229.5 91.5t-90.5 227.5zM268 474l19 -52l52 53l-56 -334h79l72 427h-58zM433 141h86l175 367l10 60h-220l-11 -61h140z" />
<glyph unicode="&#x2471;" horiz-adv-x="820" d="M100 307q0 109 58.5 205t155 152t202.5 56q139 0 230 -92t91 -228q0 -108 -59 -204t-155.5 -152t-202.5 -56q-139 0 -229.5 91.5t-90.5 227.5zM251 474l19 -52l52 53l-56 -334h79l72 427h-58zM415 228q0 -43 27 -68.5t73 -25.5q60 0 100.5 41t40.5 107q0 56 -48 86 q35 18 59 52.5t24 70.5q0 38 -27.5 61t-72.5 23q-60 0 -100.5 -36t-40.5 -94q0 -50 49 -82q-84 -43 -84 -135zM495 239q0 55 48 92q32 -23 32 -60q0 -33 -14.5 -55t-33.5 -22q-14 0 -23 12.5t-9 32.5zM527 453q0 24 16.5 43t34.5 19q14 0 22.5 -10.5t8.5 -27.5 q0 -27 -14.5 -50.5t-29.5 -32.5q-38 25 -38 59z" />
<glyph unicode="&#x2472;" horiz-adv-x="820" d="M100 307q0 109 58.5 205t155 152t202.5 56q139 0 230 -92t91 -228q0 -108 -59 -204t-155.5 -152t-202.5 -56q-139 0 -229.5 91.5t-90.5 227.5zM266 474l19 -52l52 53l-56 -334h79l72 427h-58zM428 148q34 -14 69 -14q75 0 132 87.5t57 231.5q0 122 -89 122 q-59 0 -100 -52t-41 -132q0 -48 22 -73.5t64 -25.5q23 0 51 24q-10 -48 -34 -84.5t-60 -36.5q-21 0 -51 19zM537 398q0 45 16.5 81t33.5 36q25 0 25 -45q0 -26 -12.5 -71t-39.5 -45q-23 0 -23 44z" />
<glyph unicode="&#x2473;" horiz-adv-x="820" d="M100 307q0 109 58.5 205t155 152t202.5 56q139 0 230 -92t91 -228q0 -108 -59 -204t-155.5 -152t-202.5 -56q-139 0 -229.5 91.5t-90.5 227.5zM194 141h222l10 60h-128q3 4 31 35t43 50q91 117 91 195q0 44 -24 69t-66 25q-57 0 -102 -31l-6 -68q14 11 40 24.5t47 13.5 q28 0 28 -43q0 -33 -20.5 -73t-42 -65.5t-61.5 -68t-51 -55.5zM468 267q0 -133 89 -133q66 0 114 85.5t48 221.5q0 134 -88 134q-67 0 -115 -86t-48 -222zM545 248q0 70 13.5 134t31 98.5t31.5 34.5q21 0 21 -54q0 -69 -13.5 -133.5t-30.5 -99t-31 -34.5q-22 0 -22 54z" />
<glyph unicode="&#x25ca;" horiz-adv-x="667" d="M74 333l260 360l259 -360l-259 -359zM137 333l197 -270l197 270l-197 271z" />
<glyph unicode="&#xe000;" horiz-adv-x="495" d="M0 0v495h495v-495h-495z" />
<glyph unicode="&#xe103;" horiz-adv-x="640" d="M54 400l20 94h101q25 111 50 151q52 84 161 84q38 0 86 -10l-30 -95q-19 6 -37 6q-60 0 -84 -58q-9 -22 -21 -78h118l-20 -94h-116l-83 -400h-129l85 400h-101zM401 0l103 494h129l-103 -494h-129zM521 585l25 121h134l-25 -121h-134z" />
<glyph unicode="&#xe104;" horiz-adv-x="643" d="M54 400l20 94h101q25 113 50 151q52 85 161 85q31 0 87 -10l-31 -96q-22 7 -37 7q-60 0 -84 -58q-8 -23 -21 -79h118l-20 -94h-116l-83 -400h-129l85 400h-101zM401 0l153 719h129l-153 -719h-129z" />
<glyph unicode="&#xe105;" horiz-adv-x="354" d="M115 580l148 89h80l-85 -402h-95l50 235q10 47 16 65q-9 -9 -36 -26l-36 -22z" />
<glyph unicode="&#xe107;" horiz-adv-x="354" d="M38 267l15 72q83 61 129 99q58 48 76.5 70.5t18.5 44.5q0 23 -15.5 37t-42.5 14q-37 0 -105 -32l-4 77q71 28 125 28q64 0 102 -31t38 -83q0 -64 -80 -138q-50 -47 -112 -88l159 1l-15 -71h-289z" />
<glyph unicode="&#xe108;" horiz-adv-x="354" d="M46 284l20 71q54 -25 102 -25q41 0 66.5 16t25.5 43q0 53 -94 53q-13 0 -30 -1l13 72h11l18 -1q50 -3 80.5 12.5t30.5 42.5q0 19 -16 30.5t-42 11.5q-42 0 -107 -26l10 75q58 19 114 19q62 0 98.5 -27.5t36.5 -73.5q0 -73 -87 -101q60 -27 60 -86q0 -57 -49 -93t-128 -36 q-80 0 -133 24z" />
<glyph unicode="&#xec73;" horiz-adv-x="247" d="M-26 0l11 51q90 65 121 95t31 49q0 15 -10.5 24t-27.5 9q-26 0 -73 -22l-3 55q49 20 87 20q44 0 70.5 -21.5t26.5 -57.5q0 -44 -55 -95q-48 -42 -72 -56h105l-10 -51h-201zM19 307l11 53h247l-11 -53h-247zM111 614l102 62h57l-58 -276h-68l34 161q6 27 10 40l-10 -7.5 t-11 -7.5l-26 -15z" />
<glyph unicode="&#xec74;" horiz-adv-x="247" d="M-21 12l15 52q37 -18 70 -18q28 0 44.5 10.5t16.5 28.5q0 35 -63 35q-2 0 -4.5 -0.5t-7.5 -1t-10 -0.5l10 52q51 -1 72.5 7t21.5 28q0 12 -10.5 19.5t-27.5 7.5q-30 0 -74 -18l7 53q39 14 80 14q42 0 67.5 -19t25.5 -51q0 -49 -56 -68q38 -19 38 -58q0 -40 -34 -65 t-89 -25q-56 0 -92 17zM18 307l12 53h247l-12 -53h-247zM110 614l103 62h57l-59 -276h-67l34 161q6 29 9 40q-12 -10 -21 -15l-26 -15z" />
<glyph unicode="&#xec75;" horiz-adv-x="247" d="M-21 12l15 52q37 -18 70 -18q28 0 44.5 10.5t16.5 28.5q0 35 -63 35q-2 0 -4.5 -0.5t-7.5 -1t-10 -0.5l10 52q51 -1 72.5 7t21.5 28q0 12 -10.5 19.5t-27.5 7.5q-30 0 -74 -18l7 53q39 14 80 14q42 0 67.5 -19t25.5 -51q0 -49 -56 -68q38 -19 38 -58q0 -40 -34 -65 t-89 -25q-56 0 -92 17zM18 307l12 53h247l-12 -53h-247zM58 400l11 51q88 64 120 94.5t32 49.5q0 15 -10.5 24t-27.5 9q-27 0 -72 -21l-4 54q49 20 88 20q44 0 70 -21.5t26 -57.5q0 -44 -55 -95q-48 -42 -72 -56h106l-11 -51h-201z" />
<glyph unicode="&#xec76;" horiz-adv-x="247" d="M-17 55l7 50l143 171h81l-37 -173h39l-11 -48h-38l-12 -55h-65l11 55h-118zM19 307l11 53h247l-11 -53h-247zM54 103h58l14 68q2 13 9 35q-34 -50 -81 -103zM111 614l102 62h57l-58 -276h-68l34 161q6 27 10 40l-10 -7.5t-11 -7.5l-26 -15z" />
<glyph unicode="&#xec77;" horiz-adv-x="247" d="M-17 55l7 50l143 171h81l-37 -173h39l-11 -48h-38l-12 -55h-65l11 55h-118zM19 307l11 53h247l-11 -53h-247zM54 103h58l14 68q2 13 9 35q-34 -50 -81 -103zM65 412l14 52q37 -18 71 -18q28 0 44.5 10.5t16.5 28.5q0 35 -63 35q-10 0 -22 -2l9 52q41 0 48 1q47 5 47 34 q0 12 -11 19.5t-28 7.5q-30 0 -73 -18l7 54q40 13 79 13q43 0 68.5 -19t25.5 -50q0 -48 -56 -69q38 -19 38 -58q0 -40 -34.5 -65t-88.5 -25q-56 0 -92 17z" />
<glyph unicode="&#xec7c;" horiz-adv-x="247" d="M-9 73q0 52 62 77q-28 21 -28 52q0 36 29 57.5t77 21.5q43 0 69 -19t26 -50q0 -44 -54 -68q33 -20 33 -58q0 -40 -31 -65.5t-81 -25.5q-47 0 -74.5 21t-27.5 57zM18 307l11 53h248l-12 -53h-247zM58 75q0 -14 11 -23.5t27 -9.5q17 0 29 11.5t12 27.5q0 23 -30 40 q-1 0 -3 -1q-20 -5 -33 -18t-13 -27zM89 202q0 -19 30 -35q43 13 43 38q0 12 -10 19.5t-25 7.5q-16 0 -27 -8.5t-11 -21.5zM110 614l103 62h57l-59 -276h-68l35 161q7 35 9 40q-4 -3 -10.5 -7.5t-10.5 -7.5l-26 -15z" />
<glyph unicode="&#xec7d;" horiz-adv-x="247" d="M-9 73q0 52 62 77q-28 21 -28 52q0 36 29 57.5t77 21.5q43 0 69 -19t26 -50q0 -44 -54 -68q33 -20 33 -58q0 -40 -31 -65.5t-81 -25.5q-47 0 -74.5 21t-27.5 57zM18 307l11 53h248l-12 -53h-247zM58 75q0 -14 11 -23.5t27 -9.5q17 0 29 11.5t12 27.5q0 23 -30 40 q-1 0 -3 -1q-20 -5 -33 -18t-13 -27zM64 412l14 52q37 -18 71 -18q28 0 44.5 10.5t16.5 28.5q0 35 -63 35q-10 0 -22 -2l9 52q42 0 48 1q47 5 47 34q0 12 -11 19.5t-28 7.5q-30 0 -73 -18l7 54q40 13 79 13q43 0 68.5 -19t25.5 -50q0 -48 -56 -69q38 -19 38 -58 q0 -40 -34.5 -65t-88.5 -25q-56 0 -92 17zM89 202q0 -19 30 -35q43 13 43 38q0 12 -10 19.5t-25 7.5q-16 0 -27 -8.5t-11 -21.5z" />
<glyph unicode="&#xec7e;" horiz-adv-x="247" d="M-9 73q0 52 62 77q-28 21 -28 52q0 36 29 57.5t77 21.5q43 0 69 -19t26 -50q0 -44 -54 -68q33 -20 33 -58q0 -40 -31 -65.5t-81 -25.5q-47 0 -74.5 21t-27.5 57zM18 307l11 53h248l-12 -53h-247zM58 75q0 -14 11 -23.5t27 -9.5q17 0 29 11.5t12 27.5q0 23 -30 40 q-1 0 -3 -1q-20 -5 -33 -18t-13 -27zM77 410l11 53q37 -15 68 -15q29 0 45.5 12t16.5 32q0 18 -15 28.5t-41 10.5q-23 0 -59 -11l36 156h176l-10 -50l-113 -1l-11 -45q4 1 8 1q43 0 71 -24t28 -62q0 -45 -33 -72.5t-88 -27.5q-40 0 -90 15zM89 202q0 -19 30 -35q43 13 43 38 q0 12 -10 19.5t-25 7.5q-16 0 -27 -8.5t-11 -21.5z" />
<glyph unicode="&#xec7f;" horiz-adv-x="247" d="M-9 73q0 52 62 77q-28 21 -28 52q0 36 29 57.5t77 21.5q43 0 69 -19t26 -50q0 -44 -54 -68q33 -20 33 -58q0 -40 -31 -65.5t-81 -25.5q-47 0 -74.5 21t-27.5 57zM18 307l11 53h248l-12 -53h-247zM58 75q0 -14 11 -23.5t27 -9.5q17 0 29 11.5t12 27.5q0 23 -30 40 q-1 0 -3 -1q-20 -5 -33 -18t-13 -27zM77 400l141 208q6 9 12 16h-129l11 51h201l-11 -50l-146 -225h-79zM89 202q0 -19 30 -35q43 13 43 38q0 12 -10 19.5t-25 7.5q-16 0 -27 -8.5t-11 -21.5z" />
<glyph unicode="&#xf655;" horiz-adv-x="354" d="M16 133q0 107 43 185q52 92 145 92q126 0 126 -149q0 -99 -42 -175q-49 -93 -146 -93q-58 0 -92 37.5t-34 102.5zM106 120q0 -59 44 -59q23 0 39 21.5t30 71.5q21 74 21 128q0 60 -41 60q-43 0 -70 -87q-23 -80 -23 -135z" />
<glyph unicode="&#xf656;" horiz-adv-x="354" d="M58 313l148 90h80l-85 -403h-95l50 235q9 44 16 65q-16 -14 -36 -26l-36 -22z" />
<glyph unicode="&#xf657;" horiz-adv-x="354" d="M-19 0l15 72q83 61 129 99q58 48 76.5 70.5t18.5 44.5q0 23 -15.5 37t-42.5 14q-37 0 -105 -32l-4 77q71 28 125 28q64 0 102 -31t38 -83q0 -64 -80 -138q-50 -47 -112 -88l159 1l-15 -71h-289z" />
<glyph unicode="&#xf658;" horiz-adv-x="354" d="M-11 17l20 71q56 -25 102 -25q41 0 66.5 16.5t25.5 43.5q0 53 -94 53q-14 0 -30 -2l13 72q50 0 68 2q33 3 52.5 17t19.5 35q0 19 -16 30.5t-42 11.5q-45 0 -107 -26l10 75q58 19 114 19q62 0 98.5 -27.5t36.5 -73.5q0 -72 -87 -101q60 -26 60 -85q0 -58 -49 -94t-128 -36 q-80 0 -133 24z" />
<glyph unicode="&#xf659;" horiz-adv-x="354" d="M-5 81l9 72l210 250h114l-54 -255h57l-14 -67h-57l-17 -81h-92l18 81h-174zM91 147q9 1 21 1h71l22 103q11 43 16 62q-57 -86 -130 -166z" />
<glyph unicode="&#xf65a;" horiz-adv-x="354" d="M9 14l16 74q51 -22 97 -22q43 0 68 18t25 49q0 27 -22.5 43t-61.5 16q-33 0 -84 -15l52 225h254l-15 -70l-165 -1l-16 -70h15q61 0 101 -35t40 -89q0 -60 -43 -100q-47 -44 -132 -44q-59 0 -129 21z" />
<glyph unicode="&#xf65b;" horiz-adv-x="354" d="M21 130q0 106 44 181q29 52 72 75.5t107 23.5q56 0 103 -19l-22 -66q-41 17 -76 17q-83 0 -117 -93q32 16 63 16q55 0 87.5 -31.5t32.5 -84.5q0 -68 -40 -111q-39 -45 -116 -45q-67 0 -102.5 35.5t-35.5 101.5zM109 115q0 -26 13 -40t36 -14q26 0 44.5 24t18.5 58 q0 57 -49 57q-28 0 -45.5 -23.5t-17.5 -61.5z" />
<glyph unicode="&#xf65c;" horiz-adv-x="354" d="M10 0l205 303q7 10 21 28q-10 -1 -24 -1h-167l15 71h290l-15 -72l-213 -329h-112z" />
<glyph unicode="&#xf65d;" horiz-adv-x="354" d="M7 107q0 40 25 69.5t69 41.5q-44 25 -44 78q0 52 41.5 83t110.5 31q62 0 100 -27.5t38 -72.5q0 -33 -22.5 -60.5t-59.5 -38.5q51 -25 51 -87q0 -58 -45 -94.5t-117 -36.5q-68 0 -107.5 31t-39.5 83zM101 109q0 -23 16 -37t41 -14q27 0 45 17t18 42q0 36 -45 62 q-35 -10 -55 -29t-20 -41zM146 296q0 -29 45 -54q67 22 67 58q0 19 -15 30.5t-38 11.5q-25 0 -42 -13t-17 -33z" />
<glyph unicode="&#xf65e;" horiz-adv-x="354" d="M3 11l23 65q37 -15 72 -15q46 0 73.5 22.5t44.5 72.5q-28 -17 -66 -17q-55 0 -86.5 31t-31.5 84q0 71 41.5 113.5t111.5 42.5q67 0 103 -35.5t36 -100.5q0 -54 -14 -109t-37 -90q-55 -82 -160 -82q-65 0 -110 18zM126 257q0 -24 13.5 -39t35.5 -15q26 0 44 23.5t18 58.5 q0 57 -49 57q-26 0 -44 -24t-18 -61z" />
<glyph unicode="&#xf65f;" horiz-adv-x="186" d="M23 -64l64 151h102l-84 -151h-82z" />
<glyph unicode="&#xf660;" horiz-adv-x="186" d="M57 0l19 87h95l-19 -87h-95z" />
<glyph unicode="&#xf661;" horiz-adv-x="354" d="M73 400q0 107 43 185q52 92 145 92q126 0 126 -149q0 -99 -42 -175q-49 -93 -146 -93q-58 0 -92 37.5t-34 102.5zM163 387q0 -59 44 -59q23 0 39 21.5t30 71.5q21 73 21 128q0 60 -41 60q-43 0 -70 -87q-23 -80 -23 -135z" />
<glyph unicode="&#xf662;" horiz-adv-x="354" d="M115 580l148 89h80l-85 -402h-95l50 235q10 47 16 65q-9 -9 -36 -26l-36 -22z" />
<glyph unicode="&#xf663;" horiz-adv-x="354" d="M38 267l15 72q83 61 129 99q58 48 76.5 70.5t18.5 44.5q0 23 -15.5 37t-42.5 14q-37 0 -105 -32l-4 77q71 28 125 28q64 0 102 -31t38 -83q0 -64 -80 -138q-50 -47 -112 -88l159 1l-15 -71h-289z" />
<glyph unicode="&#xf664;" horiz-adv-x="354" d="M46 284l20 71q54 -25 102 -25q41 0 66.5 16t25.5 43q0 53 -94 53q-13 0 -30 -1l13 72h11l18 -1q50 -3 80.5 12.5t30.5 42.5q0 19 -16 30.5t-42 11.5q-42 0 -107 -26l10 75q58 19 114 19q62 0 98.5 -27.5t36.5 -73.5q0 -73 -87 -101q60 -27 60 -86q0 -57 -49 -93t-128 -36 q-80 0 -133 24z" />
<glyph unicode="&#xf665;" horiz-adv-x="354" d="M51 347l9 72l210 250h114l-54 -255h57l-14 -67h-57l-17 -80h-92l18 80h-174zM147 413q9 1 21 1h71l22 103q12 48 16 63q-51 -79 -130 -167z" />
<glyph unicode="&#xf666;" horiz-adv-x="354" d="M65 281l16 74q51 -22 97 -22q43 0 68 18t25 49q0 28 -22.5 44t-61.5 16q-36 0 -84 -16l52 225h254l-15 -70l-165 -1l-16 -70q6 1 15 1q61 0 101 -35t40 -89q0 -60 -43 -101q-45 -44 -132 -44q-59 0 -129 21z" />
<glyph unicode="&#xf667;" horiz-adv-x="354" d="M78 397q0 106 44 181q29 52 72 75.5t107 23.5q56 0 103 -19l-22 -66q-41 17 -76 17q-83 0 -117 -93q32 16 63 16q55 0 87.5 -31.5t32.5 -84.5q0 -68 -40 -111q-39 -45 -116 -45q-67 0 -102.5 35.5t-35.5 101.5zM166 382q0 -26 13 -40t36 -14q26 0 44.5 24t18.5 58 q0 57 -49 57q-28 0 -45.5 -23.5t-17.5 -61.5z" />
<glyph unicode="&#xf668;" horiz-adv-x="354" d="M66 267l205 302q10 14 21 28q-10 -1 -24 -1h-167l15 71h290l-15 -72l-213 -328h-112z" />
<glyph unicode="&#xf669;" horiz-adv-x="354" d="M64 374q0 40 25 69.5t69 41.5q-44 25 -44 78q0 52 41.5 83t110.5 31q62 0 100 -27.5t38 -72.5q0 -33 -22.5 -60.5t-59.5 -38.5q51 -26 51 -87q0 -58 -45 -94.5t-117 -36.5q-68 0 -107.5 31t-39.5 83zM158 376q0 -23 16 -37t41 -14q27 0 45 17t18 42q0 36 -45 62 q-35 -10 -55 -29t-20 -41zM203 563q0 -29 45 -54q67 22 67 58q0 19 -15 30.5t-38 11.5q-25 0 -42 -13t-17 -33z" />
<glyph unicode="&#xf66a;" horiz-adv-x="354" d="M60 278l23 65q37 -15 72 -15q46 0 73.5 22.5t44.5 72.5q-28 -17 -66 -17q-55 0 -86.5 31t-31.5 84q0 71 41.5 113.5t111.5 42.5q67 0 103 -35.5t36 -100.5q0 -54 -14 -109t-37 -90q-55 -82 -160 -82q-65 0 -110 18zM183 524q0 -24 13.5 -39t35.5 -15q26 0 44 23.5 t18 58.5q0 57 -49 57q-26 0 -44 -24t-18 -61z" />
<glyph unicode="&#xf66b;" horiz-adv-x="186" d="M23 203l64 151h102l-84 -151h-82z" />
<glyph unicode="&#xf66c;" horiz-adv-x="186" d="M57 267l19 87h95l-19 -87h-95z" />
<glyph unicode="&#xf6e1;" horiz-adv-x="132" d="M48 -43l45 105h73l-59 -105h-59z" />
<glyph unicode="&#xf6e2;" horiz-adv-x="132" d="M48 357l45 105h73l-59 -105h-59z" />
<glyph unicode="&#xf6e5;" horiz-adv-x="247" d="M19 307l11 53h247l-11 -53h-247z" />
<glyph unicode="&#xf6e6;" horiz-adv-x="247" d="M19 307l11 53h247l-11 -53h-247z" />
<glyph unicode="&#xf6e7;" horiz-adv-x="132" d="M72 0l13 62h68l-13 -62h-68z" />
<glyph unicode="&#xf6e8;" horiz-adv-x="132" d="M72 400l13 62h68l-13 -62h-68z" />
<glyph unicode="&#xf8ff;" horiz-adv-x="800" d="M35 101v635h629q42 0 71.5 -29.5t29.5 -71.5v-635h-629q-42 0 -71.5 29.5t-29.5 71.5zM86 123q0 -81 73 -81t73 89q0 25 -12 45.5t-54 49.5q-25 17 -25 40q0 38 19 38q18 0 18 -32v-25h54v29q0 81 -73 81t-73 -89q0 -17 3 -29t18.5 -30.5t44.5 -37.5q25 -17 25 -38 q0 -38 -19 -38q-18 0 -18 32v10h-54v-14zM90 383h54v103h59v60h-59v84h67v60h-121v-307zM231 450q0 -34 18 -53t52 -19t52 19t18 53v173q0 72 -70 72t-70 -72v-173zM262 46h54v215h-54v-215zM262 292h54v61h-54v-61zM285 453v166q0 23 16 23t16 -23v-166q0 -22 -16 -22 t-16 22zM342 246h19v-132q0 -34 18 -53t52 -19t52 19t18 53v34h-54v-31q0 -22 -16 -22t-16 22v129h78v52h-79v55h-54v-55h-18v-52zM398 383h54v236q0 23 16 23t16 -23v-236h54v242q0 68 -58 68q-22 0 -27 -10v7h-55v-307zM522 114q0 -34 18 -53t52 -19t52 19t18 53v12h-54 v-9q0 -22 -16 -22t-16 22v40h86v128q0 72 -70 72t-70 -72v-171zM559 585h19v-135q0 -34 18 -53t52 -19t52 19t18 53v34h-54v-31q0 -23 -16 -23t-16 23v132h78v52h-79v53h-54v-53h-18v-52zM576 203v78q0 23 16 23t16 -23v-78h-32zM672 71h10v-25h6v25h10v6h-26v-6zM703 46h6 v21l9 -21h4l9 21v-21h6v31h-8l-9 -21l-9 21h-8v-31z" />
</font>
</defs>
</svg>
