<?xml version="1.0" standalone="no"?>
<!DOCTYPE svg PUBLIC "-//W3C//DTD SVG 1.1//EN" "http://www.w3.org/Graphics/SVG/1.1/DTD/svg11.dtd" >
<svg xmlns="http://www.w3.org/2000/svg">
<metadata></metadata>
<defs>
<font id="cartogothic_stditalic" horiz-adv-x="560" >
<font-face units-per-em="1000" ascent="758" descent="-242" />
<missing-glyph horiz-adv-x="250" />
<glyph unicode="ft" horiz-adv-x="671" d="M26 419l15 70h117l13 58q12 54 28 84.5t44 53.5q51 40 118 40q28 0 68 -11l-15 -74q-27 8 -44 8q-60 0 -90 -53q-14 -27 -31 -106h218l24 114l97 35l-31 -149h133l-15 -70h-133l-53 -249q-6 -28 -6 -51q0 -25 18.5 -39.5t49.5 -14.5q25 0 58 15l-16 -73q-39 -15 -77 -15 q-61 0 -93.5 28t-32.5 80q0 29 8 66l54 253h-219l-89 -419h-90l89 419h-117z" />
<glyph unicode="ff" horiz-adv-x="656" d="M26 419l15 70h117l13 58q12 54 28 84.5t44 53.5q51 40 118 40q28 0 68 -11l-15 -74q-27 8 -44 8q-60 0 -90 -53q-14 -27 -31 -106h218l12 58q11 53 27.5 84t45.5 54q49 40 118 40q27 0 68 -11l-16 -74q-25 8 -43 8q-60 0 -90 -53q-15 -27 -31 -106h132l-15 -70h-133 l-89 -419h-90l89 419h-219l-89 -419h-90l89 419h-117z" />
<glyph unicode="fi" horiz-adv-x="575" d="M26 419l15 70h117l13 58q12 54 28 84.5t44 53.5q51 40 118 40q28 0 68 -11l-15 -74q-27 8 -44 8q-60 0 -90 -53q-14 -27 -31 -106h133l-15 -70h-134l-89 -419h-90l89 419h-117zM363 0l104 489h90l-104 -489h-90zM478 567l21 100h101l-21 -100h-101z" />
<glyph unicode="fl" horiz-adv-x="575" d="M26 419l15 70h117l13 58q12 54 28 84.5t44 53.5q51 40 118 40q28 0 68 -11l-15 -74q-27 8 -44 8q-60 0 -90 -53q-14 -27 -31 -106h133l-15 -70h-134l-89 -419h-90l89 419h-117zM363 0l153 720h90l-153 -720h-90z" />
<glyph unicode="ffi" horiz-adv-x="883" d="M26 419l15 70h117l13 58q12 54 28 84.5t44 53.5q51 40 118 40q28 0 68 -11l-15 -74q-27 8 -44 8q-60 0 -90 -53q-14 -27 -31 -106h218l12 58q11 53 27.5 84t45.5 54q49 40 118 40q27 0 68 -11l-16 -74q-25 8 -43 8q-60 0 -90 -53q-15 -27 -31 -106h132l-15 -70h-133 l-89 -419h-90l89 419h-219l-89 -419h-90l89 419h-117zM671 0l104 489h90l-104 -489h-90zM787 567l21 100h101l-22 -100h-100z" />
<glyph unicode="ffl" horiz-adv-x="883" d="M26 419l15 70h117l13 58q12 54 28 84.5t44 53.5q51 40 118 40q28 0 68 -11l-15 -74q-27 8 -44 8q-60 0 -90 -53q-14 -27 -31 -106h218l12 58q11 53 27.5 84t45.5 54q49 40 118 40q27 0 68 -11l-16 -74q-25 8 -43 8q-60 0 -90 -53q-15 -27 -31 -106h132l-15 -70h-133 l-89 -419h-90l89 419h-219l-89 -419h-90l89 419h-117zM671 0l154 720h90l-154 -720h-90z" />
<glyph unicode=" "  horiz-adv-x="250" />
<glyph unicode="&#x09;" horiz-adv-x="250" />
<glyph unicode="&#xa0;" horiz-adv-x="250" />
<glyph unicode="!" horiz-adv-x="319" d="M53 0l22 103h106l-22 -103h-106zM100 185l95 482h106l-115 -482h-86z" />
<glyph unicode="&#x22;" horiz-adv-x="346" d="M111 453l41 267h100l-72 -267h-69zM252 453l42 267h99l-72 -267h-69z" />
<glyph unicode="#" d="M41 202l14 64h86l31 147h-86l14 64h89l40 190h75l-40 -187h129l40 187h75l-41 -190h88l-14 -64h-87l-31 -147h89l-14 -64h-89l-43 -202h-75l43 202h-129l-43 -202h-75l43 202h-89zM219 266h129l31 147h-129z" />
<glyph unicode="$" d="M25 35l30 84q70 -38 148 -44l52 240q-37 19 -56 31t-43 33t-34 47.5t-10 61.5q0 109 98 155q48 22 129 26l19 88h53l-19 -90q72 -6 143 -35l-24 -82q-57 37 -134 44l-45 -212l12 -7q62 -36 78.5 -48t30.5 -29q33 -42 33 -100q0 -59 -30.5 -105.5t-86.5 -71.5 q-50 -24 -130 -25l-19 -85h-54l19 85q-77 4 -160 39zM210 498q0 -31 17.5 -52t56.5 -39l40 188q-53 -3 -83.5 -29t-30.5 -68zM257 74q58 2 94 33t36 78q0 35 -17.5 56.5t-67.5 48.5z" />
<glyph unicode="%" horiz-adv-x="697" d="M68 493q0 35 12 73t30 61q43 51 115 51q58 0 90 -32t32 -90q0 -85 -44 -140q-40 -49 -106 -49q-62 0 -95.5 32.5t-33.5 93.5zM70 -39l525 744h63l-526 -744h-62zM138 487q0 -69 58 -69q39 0 60 43q21 42 21 98q0 70 -54 70q-41 0 -65 -49q-20 -42 -20 -93zM383 115 q0 35 12 73t31 61q42 51 114 51q58 0 90.5 -32t32.5 -89q0 -79 -40 -134.5t-111 -55.5q-62 0 -95.5 32.5t-33.5 93.5zM453 109q0 -69 59 -69q39 0 60 44t21 97q0 70 -55 70q-40 0 -64 -49q-21 -44 -21 -93z" />
<glyph unicode="&#x26;" horiz-adv-x="685" d="M54 176q0 98 79 152q34 23 111 48q-51 77 -51 138q0 70 54 115t138 45q80 0 127.5 -39.5t47.5 -105.5q0 -65 -45 -110t-141 -76l108 -157q57 69 75 175h84q-11 -77 -41.5 -143t-72.5 -102l75 -116h-106l-35 54q-76 -63 -191 -63q-99 0 -157.5 50t-58.5 135zM151 183 q0 -51 36 -83.5t93 -32.5q38 0 69 12t69 42l-131 193q-54 -17 -84 -36q-52 -32 -52 -95zM281 511q0 -57 48 -109q64 13 104.5 48.5t40.5 75.5q0 33 -26 54.5t-66 21.5q-43 0 -72 -26.5t-29 -64.5z" />
<glyph unicode="'" horiz-adv-x="205" d="M111 453l41 267h100l-72 -267h-69z" />
<glyph unicode="(" horiz-adv-x="333" d="M74 186q0 183 106 352q46 75 147 182h93q-137 -152 -195 -281.5t-58 -284.5q0 -158 57 -357h-83q-67 217 -67 389z" />
<glyph unicode=")" horiz-adv-x="333" d="M-77 -203q136 150 194.5 281t58.5 285t-57 357h83q67 -223 67 -388q0 -183 -106 -353q-44 -70 -146 -182h-94z" />
<glyph unicode="*" d="M153 593l43 73l127 -93l15 156l85 -18l-46 -147l150 29l8 -84h-155l78 -135l-78 -33l-49 146l-105 -113l-58 62l127 91z" />
<glyph unicode="+" d="M69 304v73h193v186h73v-186h194v-73h-194v-187h-73v187h-193z" />
<glyph unicode="," horiz-adv-x="309" d="M-27 -128l111 236h115l-135 -236h-91z" />
<glyph unicode="-" horiz-adv-x="251" d="M-7 219l16 75h251l-16 -75h-251z" />
<glyph unicode="." horiz-adv-x="249" d="M17 0l23 107h108l-22 -107h-109z" />
<glyph unicode="/" horiz-adv-x="377" d="M-147 -203l538 923h82l-538 -923h-82z" />
<glyph unicode="0" d="M56 213q0 70 23.5 162.5t56.5 152.5q82 148 222 148q88 0 134.5 -53.5t46.5 -154.5q0 -108 -31 -210.5t-86 -176.5q-68 -90 -180 -90q-186 0 -186 222zM153 198q0 -131 93 -131q61 0 108 72t67.5 162t20.5 171q0 66 -21.5 96.5t-68.5 30.5q-82 0 -142 -135 q-23 -54 -40 -131.5t-17 -134.5z" />
<glyph unicode="1" d="M149 545l199 122h83l-142 -667h-96l108 510q8 35 16 54q-19 -19 -49 -39l-76 -51z" />
<glyph unicode="2" d="M0 0l21 97q119 87 242 196q151 135 151 218q0 40 -29.5 62.5t-80.5 22.5q-79 0 -164 -41l10 88q86 33 170 33q89 0 140.5 -40.5t51.5 -110.5q0 -114 -142 -252q-124 -118 -241 -193h312l-17 -80h-424z" />
<glyph unicode="3" d="M8 24l23 82q71 -38 153 -38q77 0 128 39t51 98q0 104 -170 104q-16 0 -28 -1l17 80q9 -1 20 -1q101 0 158.5 34t57.5 94q0 40 -28.5 62t-81.5 22q-72 0 -161 -33l11 89q91 21 158 21q94 0 146.5 -39.5t52.5 -109.5q0 -86 -72 -142q-37 -27 -99 -38q49 -14 71 -33 q43 -37 43 -107q0 -94 -77 -158q-71 -58 -195 -58q-93 0 -178 33z" />
<glyph unicode="4" d="M14 146l17 80l367 441h137l-94 -441h84l-17 -80h-84l-31 -146h-97l31 146h-313zM136 226h208l74 310q10 42 26 84q-29 -51 -77 -110z" />
<glyph unicode="5" d="M36 14l18 81q81 -27 134 -27q84 0 137 46.5t53 119.5q0 51 -39 80.5t-106 29.5q-59 0 -124 -18l80 341h358l-17 -80h-270l-42 -171q26 5 52 5q96 0 150 -47t54 -131q0 -52 -21.5 -102t-58.5 -84q-72 -66 -202 -66q-84 0 -156 23z" />
<glyph unicode="6" d="M67 200q0 156 76 303q90 173 282 173q65 0 143 -24l-28 -77q-53 24 -108 24q-121 0 -196 -115q-23 -34 -55 -122q64 70 154 70q79 0 125 -47t46 -129q0 -58 -20 -112t-54 -90q-61 -63 -169 -63q-94 0 -145 54t-51 155zM164 180q0 -52 27.5 -82t74.5 -30q58 0 101 55 t43 128q0 47 -28 75.5t-74 28.5q-60 0 -102 -51t-42 -124z" />
<glyph unicode="7" d="M73 0l378 587h-326l17 80h427l-20 -88l-363 -579h-113z" />
<glyph unicode="8" d="M39 165q0 77 48.5 128.5t131.5 61.5q-94 59 -94 147q0 79 59.5 126.5t157.5 47.5q95 0 149.5 -40t54.5 -110q0 -59 -41.5 -104.5t-116.5 -69.5q103 -46 103 -153q0 -83 -58 -143q-65 -65 -180 -65q-97 0 -155.5 47.5t-58.5 126.5zM137 173q0 -47 33.5 -76t88.5 -29 q57 0 97 37.5t40 90.5q0 36 -19 58.5t-71 49.5q-5 3 -23 12l-24 -8q-59 -20 -90.5 -55t-31.5 -80zM219 504q0 -65 100 -119q71 34 100.5 63.5t29.5 67.5q0 37 -30 60t-78 23q-53 0 -87.5 -27t-34.5 -68z" />
<glyph unicode="9" d="M21 18l28 81q68 -31 121 -31q121 0 191 121q15 27 52 128q-35 -40 -67.5 -56t-78.5 -16q-82 0 -130.5 48t-48.5 130q0 110 70 181.5t178 71.5q185 0 185 -200q0 -83 -25 -176.5t-67 -166.5q-80 -142 -256 -142q-79 0 -152 27zM185 430q0 -50 25 -79t69 -29q60 0 102.5 49 t42.5 119q0 48 -26.5 78.5t-67.5 30.5q-58 0 -101.5 -51t-43.5 -118z" />
<glyph unicode=":" horiz-adv-x="249" d="M18 0l23 107h108l-23 -107h-108zM99 382l23 107h108l-23 -107h-108z" />
<glyph unicode=";" horiz-adv-x="309" d="M-27 -129l111 235h114l-134 -235h-91zM136 382l23 107h108l-23 -107h-108z" />
<glyph unicode="&#x3c;" horiz-adv-x="500" d="M51 299v77l433 209v-90l-337 -157l337 -158v-89z" />
<glyph unicode="=" d="M69 234v73h460v-73h-460zM69 374v73h460v-73h-460z" />
<glyph unicode="&#x3e;" horiz-adv-x="500" d="M51 91v89l337 158l-337 157v89l433 -208v-77z" />
<glyph unicode="?" horiz-adv-x="455" d="M108 0l22 103h101l-22 -103h-101zM108 563l11 91q91 23 148 23q92 0 142.5 -39.5t50.5 -110.5q0 -67 -51 -124q-17 -20 -31 -32t-79 -65q-30 -25 -42.5 -49t-19.5 -71h-89l10 51q10 48 29.5 77t67.5 67q70 55 84 72q23 30 23 62q0 39 -28.5 60t-82.5 21q-67 0 -143 -33z " />
<glyph unicode="@" horiz-adv-x="763" d="M71 331q0 147 101.5 248t248.5 101q136 0 226.5 -84.5t90.5 -212.5q0 -93 -50 -164t-115 -71q-29 0 -49 17t-25 46q-44 -69 -125 -69q-61 0 -100.5 45.5t-39.5 114.5q0 83 51.5 143t123.5 60q77 0 106 -68l11 56h64l-40 -205q-6 -30 -6 -47t9 -28.5t23 -11.5 q40 0 72.5 56t32.5 125q0 105 -72.5 172.5t-184.5 67.5q-122 0 -206 -84.5t-84 -208.5q0 -119 79 -203q78 -81 212 -81q112 0 205 42l16 -58q-98 -42 -218 -42q-157 0 -255 95q-48 47 -75 113t-27 136zM306 304q0 -43 23.5 -70.5t60.5 -27.5q43 0 74 41t31 99q0 41 -21.5 66 t-57.5 25q-44 0 -77 -39.5t-33 -93.5z" />
<glyph unicode="A" horiz-adv-x="687" d="M-45 0l428 667h101l146 -667h-97l-36 167h-328l-106 -167h-108zM216 244h264l-45 233q-13 69 -15 112q-17 -42 -54 -103z" />
<glyph unicode="B" horiz-adv-x="566" d="M27 0l142 667h138q114 0 167 -27q33 -17 52.5 -51.5t19.5 -75.5q0 -64 -38.5 -108.5t-105.5 -58.5q112 -28 112 -134q0 -48 -23 -93t-62 -73q-66 -46 -210 -46h-192zM140 77h74q96 0 141 23q30 16 48 45.5t18 63.5q0 57 -43 81q-33 19 -123 19h-66zM205 382h69 q82 0 120 22q27 15 43 42.5t16 57.5q0 86 -132 86h-72z" />
<glyph unicode="C" horiz-adv-x="594" d="M63 286q0 89 36.5 169.5t101.5 133.5q105 87 265 87q94 0 163 -31l-27 -82q-64 30 -139 30q-128 0 -213.5 -85.5t-85.5 -212.5q0 -101 60.5 -161t162.5 -60q71 0 132 25l-12 -90q-60 -18 -132 -18q-140 0 -226 81.5t-86 213.5z" />
<glyph unicode="D" horiz-adv-x="673" d="M27 0l142 667h104q99 0 160 -12.5t109 -43.5q110 -69 110 -230q0 -98 -39.5 -182t-107.5 -130q-57 -39 -134.5 -54t-218.5 -15h-125zM141 82h61q150 0 225 45q58 35 91.5 102t33.5 147q0 110 -63.5 159.5t-202.5 49.5h-38z" />
<glyph unicode="E" horiz-adv-x="507" d="M27 0l142 667h364l-17 -82h-268l-42 -200h250l-17 -82h-251l-47 -221h280l-17 -82h-377z" />
<glyph unicode="F" horiz-adv-x="479" d="M27 0l142 667h352l-18 -82h-255l-43 -203h239l-18 -82h-238l-64 -300h-97z" />
<glyph unicode="G" horiz-adv-x="669" d="M62 289q0 84 34 163t92 131q107 93 273 93q115 0 206 -39l-27 -83q-91 39 -176 39q-129 0 -210 -75q-42 -39 -67 -99.5t-25 -124.5q0 -100 62 -160t166 -60q44 0 84 13l43 200h-140l17 82h237l-76 -355q-69 -23 -159 -23q-158 0 -246 78t-88 220z" />
<glyph unicode="H" horiz-adv-x="673" d="M27 0l142 667h96l-59 -280h319l60 280h97l-142 -667h-97l65 305h-320l-64 -305h-97z" />
<glyph unicode="I" horiz-adv-x="250" d="M23 0l142 667h96l-141 -667h-97z" />
<glyph unicode="J" horiz-adv-x="350" d="M-45 8l17 84q43 -18 74 -18q56 0 82 31q21 25 41 117l95 445h97l-103 -485q-24 -108 -67 -146q-53 -45 -138 -45q-48 0 -98 17z" />
<glyph unicode="K" horiz-adv-x="605" d="M27 0l142 667h96l-62 -294l318 294h127l-358 -327l269 -340h-121l-246 320l-68 -320h-97z" />
<glyph unicode="L" horiz-adv-x="449" d="M27 0l142 667h96l-124 -585h280l-18 -82h-376z" />
<glyph unicode="M" horiz-adv-x="881" d="M27 0l142 667h160l65 -417q14 -96 13 -133l-1 -33q9 41 64 134l265 449h154l-141 -667h-90l93 438q21 99 47 182h-4q-30 -72 -89 -169l-270 -451h-93l-53 312q-39 231 -42 310h-4q-8 -66 -49 -259l-77 -363h-90z" />
<glyph unicode="N" horiz-adv-x="681" d="M27 0l142 667h125l121 -355q65 -193 68 -256q6 90 35 225l82 386h90l-142 -667h-125l-128 377q-50 146 -60 226q-3 -58 -19 -135l-99 -468h-90z" />
<glyph unicode="O" horiz-adv-x="723" d="M60 276q0 80 32 161.5t86 136.5q97 102 253 102q126 0 196 -72.5t70 -203.5q0 -81 -29.5 -160.5t-81.5 -140.5q-93 -108 -254 -108q-131 0 -201.5 74t-70.5 211zM160 270q0 -93 48 -144.5t135 -51.5q115 0 182 98q72 104 72 233q0 84 -47 136t-123 52q-116 0 -194 -105 q-33 -44 -53 -104t-20 -114z" />
<glyph unicode="P" horiz-adv-x="539" d="M27 0l142 667h129q119 0 180 -37q72 -44 72 -138q0 -50 -22.5 -96t-60.5 -74q-72 -55 -216 -55h-70l-57 -267h-97zM198 349h54q103 0 147 33q51 38 51 104q0 99 -151 99h-51z" />
<glyph unicode="Q" horiz-adv-x="723" d="M60 270q0 85 31.5 166.5t86.5 137.5q102 102 253 102q126 0 196 -72.5t70 -203.5q0 -133 -69.5 -244t-174.5 -147l118 -132h-117l-96 115q-11 -1 -28 -1q-127 0 -198.5 74t-71.5 205zM160 270q0 -93 48 -144.5t135 -51.5q115 0 182 98q72 104 72 233q0 84 -47 136 t-123 52q-116 0 -194 -105q-33 -44 -53 -104t-20 -114z" />
<glyph unicode="R" horiz-adv-x="582" d="M27 0l142 667h121q81 0 120 -6t70 -22q71 -38 71 -129q0 -72 -48 -124.5t-123 -61.5q28 -10 38 -24t21 -54l63 -246h-98l-52 221q-11 49 -30.5 61.5t-81.5 12.5h-54l-62 -295h-97zM204 377h56q85 0 129 22q28 13 44.5 40t16.5 57q0 51 -38 72q-31 17 -115 17h-49z" />
<glyph unicode="S" horiz-adv-x="508" d="M22 31l30 83q81 -40 144 -40t104 34.5t41 87.5q0 48 -43 81q-10 8 -84 52q-55 34 -80 70t-25 83q0 85 63 139.5t161 54.5q85 0 158 -34l-24 -83q-62 34 -130 34q-57 0 -92.5 -27.5t-35.5 -73.5q0 -32 19 -53.5t78 -55.5q77 -44 106 -82.5t29 -97.5q0 -95 -65 -153.5 t-171 -58.5q-100 0 -183 40z" />
<glyph unicode="T" horiz-adv-x="525" d="M78 585l17 82h512l-18 -82h-206l-125 -585h-96l124 585h-208z" />
<glyph unicode="U" horiz-adv-x="671" d="M72 188q0 57 15 126l75 353h97l-78 -363q-13 -57 -13 -96q0 -60 39 -97t102 -37q42 0 79.5 18t60.5 49q39 51 64 168l77 358h96l-80 -376q-20 -95 -45.5 -148.5t-65.5 -87.5q-73 -64 -190 -64q-104 0 -168.5 54.5t-64.5 142.5z" />
<glyph unicode="V" horiz-adv-x="627" d="M92 667h96l59 -384q24 -158 24 -216q28 75 91 182l246 418h104l-397 -667h-114z" />
<glyph unicode="W" horiz-adv-x="957" d="M98 667h94l25 -344q2 -34 5 -71.5t3.5 -44.5t1.5 -32.5t1 -44.5v-71q8 47 74 188l197 420h129l14 -357q4 -104 4 -164q0 -43 -4 -87q16 62 94 218l197 390h102l-345 -667h-124l-17 457q-1 18 -1 69q0 43 3 88q-24 -80 -74 -188l-197 -426h-126z" />
<glyph unicode="X" horiz-adv-x="630" d="M-50 0l321 358l-159 309h103l130 -252l221 252h120l-288 -320l175 -347h-106l-141 289l-253 -289h-123z" />
<glyph unicode="Y" horiz-adv-x="622" d="M88 667h106l132 -299l263 299h121l-347 -387l-59 -280h-97l60 280z" />
<glyph unicode="Z" horiz-adv-x="558" d="M-7 0l17 81l449 504h-338l17 82h447l-18 -83l-440 -502h348l-17 -82h-465z" />
<glyph unicode="[" horiz-adv-x="333" d="M24 -203l196 923h184l-14 -63h-95l-170 -797h96l-14 -63h-183z" />
<glyph unicode="\" horiz-adv-x="371" d="M103 720h76l145 -923h-76z" />
<glyph unicode="]" horiz-adv-x="333" d="M-67 -203l13 63h96l169 797h-95l13 63h184l-197 -923h-183z" />
<glyph unicode="^" horiz-adv-x="500" d="M37 356l172 313h118l172 -313h-96l-135 242l-135 -242h-96z" />
<glyph unicode="_" horiz-adv-x="500" d="M0 -59h500v-82h-500v82z" />
<glyph unicode="`" horiz-adv-x="500" d="M213 704h94l79 -137h-60z" />
<glyph unicode="a" horiz-adv-x="506" d="M12 131q0 43 21.5 79t57.5 54q73 37 203 37q38 0 73 -5q3 30 3 39q0 43 -29 67.5t-79 24.5q-73 0 -152 -38l18 83q79 25 139 25q87 0 138 -40.5t51 -110.5q0 -28 -4 -54t-30 -154q-3 -10 -24 -138h-82q6 56 14 85q-59 -93 -164 -93q-69 0 -111.5 38.5t-42.5 100.5z M107 136q0 -33 23.5 -53.5t60.5 -20.5q63 0 107 50q32 39 51 121q-32 2 -43 2q-95 0 -147 -26t-52 -73z" />
<glyph unicode="b" horiz-adv-x="580" d="M15 0l155 720h89l-64 -302q37 44 72.5 61.5t88.5 17.5q86 0 135.5 -52t49.5 -143q0 -62 -20.5 -123.5t-55.5 -106.5q-63 -80 -172 -80q-73 0 -117 28q-36 22 -50 75l-20 -95h-91zM155 209q0 -68 33.5 -107.5t90.5 -39.5q73 0 118 71q48 77 48 169q0 59 -29 92t-81 33 q-71 0 -125.5 -65.5t-54.5 -152.5z" />
<glyph unicode="c" horiz-adv-x="442" d="M39 205q0 130 77 211t199 81q60 0 123 -22l-21 -69q-54 21 -96 21q-81 0 -133.5 -62t-52.5 -158q0 -70 35 -107.5t100 -37.5q43 0 103 22l-18 -78q-59 -14 -104 -14q-100 0 -156 56.5t-56 156.5z" />
<glyph unicode="d" horiz-adv-x="580" d="M38 198q0 116 68 208q68 91 182 91q80 0 126 -40q27 -22 35 -66q4 41 18 108l47 221h90l-119 -560q-14 -67 -27 -160h-84q6 48 14 77q-29 -45 -66 -65t-93 -20q-88 0 -139.5 55.5t-51.5 150.5zM135 208q0 -70 30 -108t84 -38q72 0 121.5 65t49.5 160q0 65 -31.5 102.5 t-86.5 37.5q-70 0 -114 -57q-53 -70 -53 -162z" />
<glyph unicode="e" horiz-adv-x="513" d="M37 200q0 61 21.5 121.5t58.5 101.5q66 74 180 74q89 0 138.5 -48.5t49.5 -134.5q0 -35 -11 -91h-344q-4 -32 -4 -44q0 -56 39 -86.5t111 -30.5q60 0 142 29l-17 -78q-75 -21 -137 -21q-111 0 -169 53.5t-58 154.5zM143 293h251q3 21 3 38q0 44 -27 70t-74 26 q-69 0 -113 -52q-25 -29 -40 -82z" />
<glyph unicode="f" horiz-adv-x="347" d="M26 419l15 70h117l13 58q12 54 28 84.5t44 53.5q51 40 118 40q28 0 68 -11l-15 -74q-27 8 -44 8q-60 0 -90 -53q-14 -27 -31 -106h133l-15 -70h-134l-89 -419h-90l89 419h-117z" />
<glyph unicode="g" horiz-adv-x="571" d="M12 -174l17 76q91 -42 162 -42q113 0 154 97q11 25 33 118q-30 -41 -65 -58.5t-84 -17.5q-89 0 -139.5 54.5t-50.5 150.5q0 119 71 209q66 84 180 84q131 0 159 -98q5 37 18 90h86l-101 -475q-15 -71 -36.5 -111t-59.5 -67q-67 -46 -167 -46q-77 0 -177 36zM136 212 q0 -68 30 -105.5t84 -37.5q71 0 120 65t49 159q0 61 -32 97.5t-85 36.5q-68 0 -117 -63.5t-49 -151.5z" />
<glyph unicode="h" horiz-adv-x="564" d="M15 0l153 720h90l-63 -297q33 41 67.5 57.5t84.5 16.5q77 0 122 -39t45 -105q0 -46 -15 -114l-51 -239h-90l58 271q9 45 9 66q0 39 -25.5 63t-67.5 24q-64 0 -111.5 -51.5t-66.5 -142.5l-49 -230h-90z" />
<glyph unicode="i" horiz-adv-x="227" d="M15 0l104 489h90l-104 -489h-90zM130 567l21 100h101l-21 -100h-101z" />
<glyph unicode="j" horiz-adv-x="242" d="M-121 -196l16 72q24 -10 43 -10q35 0 52.5 21t29.5 76l111 526h90l-113 -530q-19 -94 -45 -125q-17 -20 -47.5 -32t-63.5 -12q-32 0 -73 14zM141 567l21 100h102l-21 -100h-102z" />
<glyph unicode="k" horiz-adv-x="508" d="M15 0l153 720h90l-89 -421l231 190h130l-276 -220l200 -269h-115l-180 252l-54 -252h-90z" />
<glyph unicode="l" horiz-adv-x="227" d="M15 0l153 720h90l-153 -720h-90z" />
<glyph unicode="m" horiz-adv-x="828" d="M15 0l104 489h81q-10 -54 -19 -81q61 89 160 89t133 -89q64 89 165 89q66 0 105.5 -34t39.5 -92q0 -33 -12 -90l-60 -281h-89l60 285q10 50 10 64q0 35 -20.5 55t-56.5 20q-56 0 -96 -47.5t-58 -134.5l-51 -242h-90l59 283q11 55 11 71q0 31 -21.5 50.5t-55.5 19.5 q-57 0 -99 -52.5t-63 -150.5l-47 -221h-90z" />
<glyph unicode="n" horiz-adv-x="571" d="M21 0l74 348q8 38 24 141h87l-7 -33l-6 -34q-3 -13 -7 -25q33 53 74.5 76.5t99.5 23.5q72 0 115.5 -41t43.5 -109q0 -52 -16 -126l-47 -221h-90l48 227q15 73 15 113q0 38 -25 61t-66 23q-70 0 -117 -57q-43 -52 -66 -160l-44 -207h-90z" />
<glyph unicode="o" horiz-adv-x="569" d="M39 214q0 57 23 114.5t61 95.5q73 73 192 73q101 0 158.5 -58t57.5 -160q0 -66 -26 -127t-70 -98q-72 -62 -178 -62q-101 0 -159.5 59.5t-58.5 162.5zM136 209q0 -68 33 -107.5t90 -39.5q71 0 122.5 65.5t51.5 155.5q0 67 -33 105.5t-89 38.5q-73 0 -124 -64t-51 -154z " />
<glyph unicode="p" horiz-adv-x="576" d="M-23 -203l110 519q23 106 32 173h85q-3 -27 -16 -76q34 45 73 64.5t93 19.5q85 0 134 -52.5t49 -142.5q0 -63 -20.5 -124.5t-56.5 -106.5q-64 -79 -177 -79q-83 0 -126 43q-19 19 -32 55q-3 -35 -10 -66l-48 -227h-90zM156 200q0 -65 31.5 -101.5t87.5 -36.5q74 0 118 70 q48 78 48 170q0 59 -28 92t-78 33q-73 0 -126 -67.5t-53 -159.5z" />
<glyph unicode="q" horiz-adv-x="577" d="M38 194q0 115 63 206q68 97 191 97q84 0 126 -45q18 -18 32 -53l19 90h90l-147 -692h-90l55 259q-39 -38 -69.5 -51t-78.5 -13q-86 0 -138.5 55.5t-52.5 146.5zM135 206q0 -69 30 -106.5t85 -37.5q70 0 117 61q53 72 53 166q0 63 -32 100.5t-86 37.5q-70 0 -118.5 -64.5 t-48.5 -156.5z" />
<glyph unicode="r" horiz-adv-x="359" d="M19 0l74 347q13 57 24 142h84q-6 -54 -17 -93q30 51 64 76t91 25q29 0 56 -11l-16 -74q-31 12 -52 12q-129 0 -173 -210l-45 -214h-90z" />
<glyph unicode="s" horiz-adv-x="382" d="M-2 15l16 75q60 -28 115 -28q44 0 71.5 20.5t27.5 54.5q0 33 -31 61q-7 6 -74 53q-63 45 -63 109q0 61 50 99t130 38q70 0 133 -26l-25 -69q-57 25 -104 25q-39 0 -62.5 -17t-23.5 -46q0 -19 10.5 -31.5t41.5 -32.5q51 -34 82 -65q33 -32 33 -81q0 -71 -55 -116.5 t-141 -45.5q-62 0 -131 23z" />
<glyph unicode="t" horiz-adv-x="355" d="M26 419l15 70h110l24 114l97 35l-31 -149h133l-15 -70h-133l-53 -249q-6 -29 -6 -51q0 -25 18.5 -39.5t49.5 -14.5q27 0 58 15l-16 -73q-39 -15 -77 -15q-61 0 -93.5 28t-32.5 80q0 29 8 66l54 253h-110z" />
<glyph unicode="u" horiz-adv-x="562" d="M44 129q0 36 11 88l58 272h90l-61 -287q-6 -26 -6 -50q0 -39 25 -63t66 -24q57 0 103 48q49 53 74 169l44 207h90l-70 -332q-18 -84 -28 -157h-80l4 36q3 22 10 55q-29 -43 -54 -62q-50 -37 -118 -37q-70 0 -114 38t-44 99z" />
<glyph unicode="v" horiz-adv-x="459" d="M44 489h92l41 -283q11 -72 11 -115v-24q12 39 42 95l177 327h96l-274 -489h-107z" />
<glyph unicode="w" horiz-adv-x="792" d="M57 489h90l26 -290q6 -65 6 -100l-2 -36l13 32q53 128 202 394h108l26 -270q7 -76 7 -120q0 -20 -1 -36q20 68 70 165l136 261h98l-265 -489h-101l-32 285q-7 63 -7 103q0 1 2 41q-14 -55 -61 -141l-156 -288h-104z" />
<glyph unicode="x" horiz-adv-x="468" d="M-50 0l226 257l-104 232h97l76 -176l146 176h110l-208 -234l119 -255h-101l-84 193l-163 -193h-114z" />
<glyph unicode="y" horiz-adv-x="467" d="M-57 -199l16 75q21 -7 43 -7q36 0 59 17t49 61l20 35l-80 507h93l45 -321q8 -53 8 -75v-15q11 31 36 78l181 333h97l-318 -563q-44 -77 -83 -105.5t-103 -28.5q-30 0 -63 9z" />
<glyph unicode="z" horiz-adv-x="478" d="M-13 0l16 72l353 347h-277l15 70h386l-15 -71l-355 -348h290l-15 -70h-398z" />
<glyph unicode="{" horiz-adv-x="493" d="M121 -113q0 21 7 56l40 190q5 27 5 41q0 42 -41 52l14 65q32 8 49 29t26 63l42 198q16 76 61 107.5t133 31.5h16l-13 -64q-58 0 -79.5 -16t-32.5 -66l-42 -197q-10 -49 -28.5 -75t-54.5 -43q38 -27 38 -72q0 -20 -6 -49l-41 -193q-6 -27 -6 -42q0 -23 18.5 -32.5 t64.5 -8.5l-14 -65h-44q-112 0 -112 90z" />
<glyph unicode="|" horiz-adv-x="500" d="M223 -167v834h90v-834h-90z" />
<glyph unicode="}" horiz-adv-x="493" d="M23 -203l14 65q58 0 79.5 15.5t32.5 66.5l42 196q10 50 28.5 75.5t54.5 43.5q-38 26 -38 71q0 20 6 50l40 192q7 32 7 42q0 23 -18.5 32.5t-64.5 9.5l13 64h44q55 0 84 -23t29 -67q0 -21 -7 -56l-40 -190q-5 -20 -5 -41q0 -42 41 -52l-14 -65q-33 -8 -50 -29t-26 -63 l-42 -198q-16 -76 -61 -107.5t-133 -31.5h-16z" />
<glyph unicode="~" horiz-adv-x="667" d="M110 610q15 30 25.5 48t27.5 37.5t38.5 28t49.5 8.5q36 0 110 -32q67 -30 94 -30t44.5 13.5t40.5 50.5l53 -31q-30 -61 -61 -87q-42 -32 -89 -32q-32 0 -141 46q-33 15 -58 15t-43.5 -15.5t-38.5 -53.5z" />
<glyph unicode="&#xa1;" horiz-adv-x="319" d="M16 -177l115 481h86l-95 -481h-106zM136 386l22 103h106l-22 -103h-106z" />
<glyph unicode="&#xa2;" d="M117 286q0 126 72.5 207t190.5 85l18 82h53l-18 -84q42 -5 83 -20l-20 -69q-45 18 -78 21l-77 -365q57 1 111 21l-18 -77q-60 -15 -108 -14l-17 -82h-54l19 87q-76 15 -116.5 69t-40.5 139zM214 288q0 -104 76 -135l75 352q-68 -13 -109.5 -72.5t-41.5 -144.5z" />
<glyph unicode="&#xa3;" d="M24 0l16 77h90l53 247h-81l11 53h81l15 72q25 119 82 170q61 53 157 53q61 0 139 -26l-22 -78q-56 24 -108 24q-89 0 -129 -78q-16 -32 -37 -137h156l-12 -53h-155l-53 -247h239l-17 -77h-425z" />
<glyph unicode="&#xa4;" d="M52 485l43 43l79 -79q54 39 115 39t114 -38l79 77l42 -42l-78 -78q39 -56 39 -113t-38 -112l79 -78l-43 -43l-78 78q-56 -39 -115 -39q-57 0 -115 39l-79 -78l-42 43l77 78q-38 53 -38 112q0 58 39 112zM164 294q0 -52 36.5 -88.5t88.5 -36.5t88.5 36.5t36.5 88.5 q0 51 -36.5 88t-86.5 37q-53 0 -90 -36.5t-37 -88.5z" />
<glyph unicode="&#xa5;" d="M53 259l12 53h161l-17 54h-137l11 53h109l-78 248h87l92 -299l227 299h102l-185 -248h119l-11 -53h-149l-39 -54h175l-11 -53h-194l-58 -259h-96l57 259h-177z" />
<glyph unicode="&#xa6;" horiz-adv-x="500" d="M223 153h90v-320h-90v320zM223 330v337h90v-337h-90z" />
<glyph unicode="&#xa7;" d="M-26 -186l27 88q74 -35 153 -35q78 0 127 33.5t49 86.5q0 30 -20 49t-75 44l-53 24q-62 28 -89.5 59t-27.5 76q0 58 38 110q20 27 40 41.5t55 26.5q-36 23 -50.5 46t-14.5 60q0 86 78.5 146t191.5 60q80 0 145 -20l-26 -84q-67 28 -138 28q-70 0 -115.5 -31.5 t-45.5 -80.5q0 -28 20.5 -47.5t76.5 -45.5l64 -30q47 -22 60 -31q55 -36 55 -101q0 -116 -134 -177q35 -19 49 -41.5t14 -58.5q0 -41 -21.5 -82.5t-59.5 -72.5q-80 -66 -215 -66q-87 0 -158 26zM145 274q0 -40 39 -67q28 -18 70 -37l84 -36q77 56 77 120q0 31 -20.5 51.5 t-78.5 48.5l-89 42q-82 -60 -82 -122z" />
<glyph unicode="&#xa8;" horiz-adv-x="500" d="M188 583l21 97h87l-21 -97h-87zM369 583l20 97h88l-21 -97h-87z" />
<glyph unicode="&#xa9;" horiz-adv-x="779" d="M66 333q0 144 100 243.5t245 99.5q138 0 237 -101t99 -241q0 -142 -100 -242.5t-240 -100.5t-240.5 100.5t-100.5 241.5zM119 334q0 -121 84.5 -207.5t203.5 -86.5t203 86.5t84 207.5q0 120 -83.5 207t-199.5 87q-122 0 -207 -85.5t-85 -208.5zM219 335q0 83 59 136 t153 53q55 0 94 -18l-5 -58q-46 23 -86 23q-65 0 -106 -38t-41 -97q0 -60 42.5 -99.5t106.5 -39.5q41 0 89 18l4 -59q-41 -14 -91 -14q-100 0 -159.5 52t-59.5 141z" />
<glyph unicode="&#xaa;" horiz-adv-x="374" d="M73 290l9 43h258l-10 -43h-257zM97 456q0 104 180 104q12 0 42 -2q2 7 2 16q0 25 -17.5 39t-48.5 14q-45 0 -100 -26l13 59q52 16 91 16q57 0 90.5 -25.5t33.5 -68.5q0 -22 -20 -122q-8 -42 -15 -86h-59q0 6 0.5 11t1.5 12l2 14q-41 -42 -95 -42q-45 0 -73 24t-28 63z M165 459q0 -18 14 -29.5t36 -11.5q69 0 93 94h-7q-16 1 -17 1q-119 0 -119 -54z" />
<glyph unicode="&#xab;" horiz-adv-x="511" d="M46 281l160 160h92l-157 -181l74 -210h-79zM247 259l168 182h89l-163 -197l80 -194h-82z" />
<glyph unicode="&#xac;" horiz-adv-x="500" d="M51 183v84h433v-267h-90v183h-343z" />
<glyph unicode="&#xad;" horiz-adv-x="251" d="M-7 219l16 75h251l-16 -75h-251z" />
<glyph unicode="&#xae;" horiz-adv-x="779" d="M66 333q0 144 100 243.5t245 99.5q138 0 237 -101t99 -241q0 -142 -100 -242.5t-240 -100.5t-240.5 100.5t-100.5 241.5zM119 334q0 -121 84.5 -207.5t203.5 -86.5t203 86.5t84 207.5q0 120 -83.5 207t-199.5 87q-122 0 -207 -85.5t-85 -208.5zM281 145v377h99 q58 0 91 -10q31 -10 49.5 -35t18.5 -56q0 -69 -75 -88q23 -13 39 -47l70 -141h-73l-53 113q-16 34 -28.5 43t-44.5 9h-29v-165h-64zM345 363h31q52 0 74.5 12.5t22.5 41.5q0 28 -21.5 40t-69.5 12h-37v-106z" />
<glyph unicode="&#xaf;" horiz-adv-x="500" d="M182 601l12 57h284l-12 -57h-284z" />
<glyph unicode="&#xb0;" horiz-adv-x="397" d="M125 589q0 57 43 98.5t102 41.5q61 0 103.5 -41.5t42.5 -100.5t-42.5 -101t-102.5 -42q-61 0 -103.5 42t-42.5 103zM182 588q0 -38 26 -63.5t63 -25.5q36 0 62 26t26 61q0 37 -26 62.5t-63 25.5q-36 0 -62 -25.5t-26 -60.5z" />
<glyph unicode="&#xb1;" d="M49 57v73h460v-73h-460zM49 364v73h193v186h73v-186h194v-73h-194v-187h-73v187h-193z" />
<glyph unicode="&#xb2;" horiz-adv-x="257" d="M59 400l10 45q36 24 104 79q62 52 62 84q0 31 -45 31q-33 0 -74 -19l4 44q43 15 78 15q40 0 63.5 -17.5t23.5 -47.5q0 -37 -34 -76t-119 -98h126l-9 -40h-190z" />
<glyph unicode="&#xb3;" horiz-adv-x="257" d="M62 411l12 41q33 -16 69 -16q31 0 51 14t20 35q0 39 -71 39q-9 0 -15 -1l8 40h12q41 0 64.5 12t23.5 34q0 31 -45 31q-31 0 -72 -15l5 44q40 10 71 10q43 0 67 -17t24 -47q0 -53 -60 -72q37 -19 37 -56q0 -40 -33.5 -65t-86.5 -25q-42 0 -81 14z" />
<glyph unicode="&#xb4;" horiz-adv-x="500" d="M253 567l110 137h100l-146 -137h-64z" />
<glyph unicode="&#xb5;" horiz-adv-x="562" d="M-35 -203l147 692h90l-61 -287q-5 -21 -5 -50q0 -39 25 -63t66 -24q60 0 103 48q49 52 74 169l44 207h90l-71 -332q-18 -85 -27 -157h-81l4 36q3 23 10 55q-29 -43 -54 -62q-50 -37 -117 -37q-59 0 -105 31l-35 -226h-97z" />
<glyph unicode="&#xb6;" d="M77 433q0 49 22 98.5t59 80.5q62 55 178 55h265l-15 -70h-51l-170 -800h-77l170 800h-88l-170 -800h-78l107 500h-14q-64 0 -101 37t-37 99z" />
<glyph unicode="&#xb7;" horiz-adv-x="247" d="M59 203l23 107h108l-22 -107h-109z" />
<glyph unicode="&#xb8;" horiz-adv-x="500" d="M107 -179l20 33q32 -13 63 -13q25 0 40.5 11t15.5 29q0 14 -12.5 23.5t-29.5 9.5q-12 0 -36 -7l-14 16l53 77h41l-38 -53q27 4 37 4q32 0 51 -17.5t19 -45.5q0 -36 -35 -61.5t-84 -25.5q-48 0 -91 20z" />
<glyph unicode="&#xb9;" horiz-adv-x="257" d="M119 623l90 52h41l-58 -275h-50l47 219l-47 -30z" />
<glyph unicode="&#xba;" horiz-adv-x="417" d="M71 290l9 43h292l-9 -43h-292zM108 506q0 73 50 121.5t127 48.5q65 0 103 -36t38 -99q0 -75 -49.5 -123.5t-125.5 -48.5q-66 0 -104.5 37t-38.5 100zM177 504q0 -40 20.5 -63t55.5 -23q42 0 72.5 36.5t30.5 88.5q0 38 -20.5 61t-54.5 23q-44 0 -74 -35.5t-30 -87.5z" />
<glyph unicode="&#xbb;" horiz-adv-x="511" d="M4 50l164 197l-81 194h83l92 -209l-168 -182h-90zM210 50l158 181l-74 210h79l89 -231l-160 -160h-92z" />
<glyph unicode="&#xbc;" horiz-adv-x="911" d="M130 593l130 75h57l-85 -401h-69l65 305q1 3 2.5 9.5t2.5 9.5l-71 -46zM175 -39l526 744h62l-525 -744h-63zM534 86l11 52l230 263h92l-55 -260h53l-12 -55h-53l-18 -86h-69l18 86h-197zM623 141h120l48 199z" />
<glyph unicode="&#xbd;" horiz-adv-x="911" d="M130 593l130 75h57l-85 -401h-69l65 305q1 3 2.5 9.5t2.5 9.5l-71 -46zM175 -39l526 744h62l-525 -744h-63zM526 0l14 63q68 46 151 116q92 76 92 125q0 22 -18 34.5t-49 12.5q-48 0 -106 -26l6 61q57 20 111 20q58 0 92 -25t34 -69q0 -70 -89 -150q-72 -65 -139 -107 h188l-12 -55h-275z" />
<glyph unicode="&#xbe;" horiz-adv-x="911" d="M46 282l16 57q49 -25 100 -25q46 0 76.5 21.5t30.5 54.5q0 59 -106 59q-11 0 -21 -1l12 55q147 0 147 70q0 47 -68 47q-44 0 -104 -21l7 61q59 14 103 14q61 0 96 -24.5t35 -68.5q0 -39 -28 -70q-22 -24 -65 -37q60 -24 60 -82t-48.5 -94.5t-125.5 -36.5q-61 0 -117 21z M174 -39l526 744h63l-526 -744h-63zM533 86l11 52l231 263h92l-56 -260h53l-11 -55h-53l-19 -86h-69l19 86h-198zM623 141h120l48 199z" />
<glyph unicode="&#xbf;" horiz-adv-x="455" d="M-1 -37q0 67 51 124q17 20 31 32t79 65q30 25 42.5 48.5t19.5 71.5h89l-11 -51q-11 -48 -30 -77.5t-66 -66.5q-71 -54 -84 -72q-23 -30 -23 -62q0 -38 28.5 -59t81.5 -21q68 0 143 32l-11 -91q-92 -23 -148 -23q-91 0 -141.5 39.5t-50.5 110.5zM228 386l22 103h100 l-22 -103h-100z" />
<glyph unicode="&#xc0;" horiz-adv-x="687" d="M-45 0l428 667h101l146 -667h-97l-36 167h-328l-106 -167h-108zM216 244h264l-45 233q-13 69 -15 112q-17 -42 -54 -103zM294 859h108l81 -130h-65z" />
<glyph unicode="&#xc1;" horiz-adv-x="687" d="M-45 0l428 667h101l146 -667h-97l-36 167h-328l-106 -167h-108zM216 244h264l-45 233q-13 69 -15 112q-17 -42 -54 -103zM413 729l104 130h114l-149 -130h-69z" />
<glyph unicode="&#xc2;" horiz-adv-x="687" d="M-45 0l428 667h101l146 -667h-97l-36 167h-328l-106 -167h-108zM216 244h264l-45 233q-13 69 -15 112q-17 -42 -54 -103zM292 729l137 130h89l81 -130h-80l-54 83l-89 -83h-84z" />
<glyph unicode="&#xc3;" horiz-adv-x="687" d="M-45 0l428 667h101l146 -667h-97l-36 167h-328l-106 -167h-108zM216 244h264l-45 233q-13 69 -15 112q-17 -42 -54 -103zM306 745q32 103 105 103q32 0 90 -31q24 -13 37 -13q34 0 48 42l46 -1q-1 -2 -2 -5t-2 -4q-12 -39 -29 -60q-29 -35 -68 -35q-19 0 -33 4.5 t-55 25.5q-34 17 -47 17q-26 0 -44 -43h-46z" />
<glyph unicode="&#xc4;" horiz-adv-x="687" d="M-45 0l428 667h101l146 -667h-97l-36 167h-328l-106 -167h-108zM216 244h264l-45 233q-13 69 -15 112q-17 -42 -54 -103zM314 742l21 97h91l-21 -97h-91zM509 742l21 97h91l-22 -97h-90z" />
<glyph unicode="&#xc5;" horiz-adv-x="687" d="M-45 0l428 667h101l146 -667h-97l-36 167h-328l-106 -167h-108zM216 244h264l-45 233q-13 69 -15 112q-17 -42 -54 -103zM349 802q0 41 29.5 70t71.5 29q40 0 69 -29.5t29 -69.5q0 -41 -29 -70.5t-70 -29.5q-42 0 -71 29.5t-29 70.5zM400 802q0 -20 14 -34.5t34 -14.5 t34 14.5t14 34.5q0 19 -14 33.5t-33 14.5q-20 0 -34.5 -14t-14.5 -34z" />
<glyph unicode="&#xc6;" horiz-adv-x="881" d="M-51 0l534 667h417l-16 -82h-245l-39 -201h228l-18 -82h-227l-42 -220h251l-17 -82h-348l32 168h-257l-136 -168h-117zM266 250h209l72 355z" />
<glyph unicode="&#xc7;" horiz-adv-x="594" d="M63 286q0 89 36.5 169.5t101.5 133.5q105 87 265 87q94 0 163 -31l-27 -82q-64 30 -139 30q-128 0 -213.5 -85t-85.5 -213q0 -100 61 -160t162 -60q71 0 132 25l-12 -91q-59 -17 -145 -18l-35 -44q28 4 35 4q30 0 50 -18t20 -45q0 -40 -34.5 -66t-86.5 -26q-49 0 -90 20 l20 36q31 -14 63 -14q25 0 40.5 11.5t15.5 29.5q0 15 -12 25t-31 10q-7 0 -35 -7l-14 16l53 72q-105 18 -166 73q-92 80 -92 218z" />
<glyph unicode="&#xc8;" horiz-adv-x="507" d="M27 0l142 667h364l-17 -82h-268l-42 -200h250l-17 -82h-251l-47 -221h280l-17 -82h-377zM217 859h108l81 -130h-65z" />
<glyph unicode="&#xc9;" horiz-adv-x="507" d="M27 0l142 667h364l-17 -82h-268l-42 -200h250l-17 -82h-251l-47 -221h280l-17 -82h-377zM321 729l104 130h114l-149 -130h-69z" />
<glyph unicode="&#xca;" horiz-adv-x="507" d="M27 0l142 667h364l-17 -82h-268l-42 -200h250l-17 -82h-251l-47 -221h280l-17 -82h-377zM212 729l137 130h89l81 -130h-80l-54 83l-89 -83h-84z" />
<glyph unicode="&#xcb;" horiz-adv-x="507" d="M27 0l142 667h364l-17 -82h-268l-42 -200h250l-17 -82h-251l-47 -221h280l-17 -82h-377zM230 742l21 97h91l-21 -97h-91zM425 742l21 97h91l-22 -97h-90z" />
<glyph unicode="&#xcc;" horiz-adv-x="250" d="M23 0l142 667h96l-141 -667h-97zM84 859h105l75 -130h-66z" />
<glyph unicode="&#xcd;" horiz-adv-x="250" d="M23 0l142 667h96l-141 -667h-97zM187 729l98 130h110l-139 -130h-69z" />
<glyph unicode="&#xce;" horiz-adv-x="250" d="M23 0l142 667h96l-141 -667h-97zM85 729l120 130h89l65 -130h-77l-40 86l-77 -86h-80z" />
<glyph unicode="&#xcf;" horiz-adv-x="250" d="M23 0l142 667h96l-141 -667h-97zM117 742l21 97h86l-21 -97h-86zM256 742l21 97h86l-21 -97h-86z" />
<glyph unicode="&#xd0;" horiz-adv-x="673" d="M25 303l17 80h67l60 284h105q98 0 159.5 -12.5t109.5 -43.5q109 -69 109 -231q0 -98 -39.5 -181.5t-107.5 -129.5q-57 -39 -134.5 -54t-218.5 -15h-125l65 303h-67zM141 82h61q150 0 225 45q58 35 91.5 102t33.5 147q0 109 -63 159t-202 50h-39l-43 -202h174l-17 -80 h-174z" />
<glyph unicode="&#xd1;" horiz-adv-x="681" d="M27 0l142 667h125l121 -355q65 -193 68 -256q6 90 35 225l82 386h90l-142 -667h-125l-128 377q-50 146 -60 226q-3 -58 -19 -135l-99 -468h-90zM306 745q32 103 105 103q32 0 90 -31q24 -13 37 -13q34 0 48 42l46 -1q-1 -2 -2 -5t-2 -4q-12 -39 -29 -60q-29 -35 -68 -35 q-19 0 -33 4.5t-55 25.5q-34 17 -47 17q-26 0 -44 -43h-46z" />
<glyph unicode="&#xd2;" horiz-adv-x="723" d="M60 276q0 80 32 161.5t86 136.5q97 102 253 102q126 0 196 -72.5t70 -203.5q0 -81 -29.5 -160.5t-81.5 -140.5q-93 -108 -254 -108q-131 0 -201.5 74t-70.5 211zM160 270q0 -93 48 -144.5t135 -51.5q115 0 182 98q72 104 72 233q0 84 -47 136t-123 52q-116 0 -194 -105 q-33 -44 -53 -104t-20 -114zM314 859h108l81 -130h-65z" />
<glyph unicode="&#xd3;" horiz-adv-x="723" d="M60 276q0 80 32 161.5t86 136.5q97 102 253 102q126 0 196 -72.5t70 -203.5q0 -81 -29.5 -160.5t-81.5 -140.5q-93 -108 -254 -108q-131 0 -201.5 74t-70.5 211zM160 270q0 -93 48 -144.5t135 -51.5q115 0 182 98q72 104 72 233q0 84 -47 136t-123 52q-116 0 -194 -105 q-33 -44 -53 -104t-20 -114zM413 729l104 130h114l-149 -130h-69z" />
<glyph unicode="&#xd4;" horiz-adv-x="723" d="M60 276q0 80 32 161.5t86 136.5q97 102 253 102q126 0 196 -72.5t70 -203.5q0 -81 -29.5 -160.5t-81.5 -140.5q-93 -108 -254 -108q-131 0 -201.5 74t-70.5 211zM160 270q0 -93 48 -144.5t135 -51.5q115 0 182 98q72 104 72 233q0 84 -47 136t-123 52q-116 0 -194 -105 q-33 -44 -53 -104t-20 -114zM305 729l137 130h89l81 -130h-80l-54 83l-89 -83h-84z" />
<glyph unicode="&#xd5;" horiz-adv-x="723" d="M60 276q0 80 32 161.5t86 136.5q97 102 253 102q126 0 196 -72.5t70 -203.5q0 -81 -29.5 -160.5t-81.5 -140.5q-93 -108 -254 -108q-131 0 -201.5 74t-70.5 211zM160 270q0 -93 48 -144.5t135 -51.5q115 0 182 98q72 104 72 233q0 84 -47 136t-123 52q-116 0 -194 -105 q-33 -44 -53 -104t-20 -114zM319 745q32 103 105 103q32 0 90 -31q24 -13 37 -13q34 0 48 42l46 -1q-1 -2 -2 -5t-2 -4q-12 -39 -29 -60q-29 -35 -68 -35q-18 0 -32.5 4.5t-55.5 25.5q-34 17 -47 17q-26 0 -44 -43h-46z" />
<glyph unicode="&#xd6;" horiz-adv-x="723" d="M60 276q0 80 32 161.5t86 136.5q97 102 253 102q126 0 196 -72.5t70 -203.5q0 -81 -29.5 -160.5t-81.5 -140.5q-93 -108 -254 -108q-131 0 -201.5 74t-70.5 211zM160 270q0 -93 48 -144.5t135 -51.5q115 0 182 98q72 104 72 233q0 84 -47 136t-123 52q-116 0 -194 -105 q-33 -44 -53 -104t-20 -114zM322 742l21 97h91l-21 -97h-91zM517 742l21 97h91l-22 -97h-90z" />
<glyph unicode="&#xd7;" d="M101 194l146 146l-146 146l52 52l146 -146l146 146l52 -52l-146 -146l146 -146l-52 -52l-146 146l-146 -146z" />
<glyph unicode="&#xd8;" horiz-adv-x="723" d="M43 24l65 69q-48 74 -48 179q0 83 32 164.5t86 137.5q100 102 251 102q110 0 178 -53l60 63l47 -43l-64 -68q47 -73 47 -177q0 -80 -29.5 -159t-81.5 -140q-93 -108 -252 -108q-114 0 -182 54l-62 -65zM160 263q0 -47 20 -96l356 386q-42 40 -110 40q-108 0 -187 -98 t-79 -232zM219 115q57 -41 123 -41q116 0 183 98q33 49 52.5 112t19.5 122q0 53 -21 95z" />
<glyph unicode="&#xd9;" horiz-adv-x="671" d="M72 188q0 57 15 126l75 353h97l-78 -363q-13 -57 -13 -96q0 -60 39 -97t102 -37q42 0 79.5 18t60.5 49q39 51 64 168l77 358h96l-80 -376q-20 -95 -45.5 -148.5t-65.5 -87.5q-73 -64 -190 -64q-104 0 -168.5 54.5t-64.5 142.5zM291 859h108l81 -130h-65z" />
<glyph unicode="&#xda;" horiz-adv-x="671" d="M72 188q0 57 15 126l75 353h97l-78 -363q-13 -57 -13 -96q0 -60 39 -97t102 -37q42 0 79.5 18t60.5 49q39 51 64 168l77 358h96l-80 -376q-20 -95 -45.5 -148.5t-65.5 -87.5q-73 -64 -190 -64q-104 0 -168.5 54.5t-64.5 142.5zM397 729l104 130h114l-149 -130h-69z" />
<glyph unicode="&#xdb;" horiz-adv-x="671" d="M72 188q0 57 15 126l75 353h97l-78 -363q-13 -57 -13 -96q0 -60 39 -97t102 -37q42 0 79.5 18t60.5 49q39 51 64 168l77 358h96l-80 -376q-20 -95 -45.5 -148.5t-65.5 -87.5q-73 -64 -190 -64q-104 0 -168.5 54.5t-64.5 142.5zM290 729l137 130h89l81 -130h-80l-54 83 l-89 -83h-84z" />
<glyph unicode="&#xdc;" horiz-adv-x="671" d="M72 188q0 57 15 126l75 353h97l-78 -363q-13 -57 -13 -96q0 -60 39 -97t102 -37q42 0 79.5 18t60.5 49q39 51 64 168l77 358h96l-80 -376q-20 -95 -45.5 -148.5t-65.5 -87.5q-73 -64 -190 -64q-104 0 -168.5 54.5t-64.5 142.5zM304 742l21 97h91l-21 -97h-91zM499 742 l21 97h91l-22 -97h-90z" />
<glyph unicode="&#xdd;" horiz-adv-x="622" d="M88 667h106l132 -299l263 299h121l-347 -387l-59 -280h-97l60 280zM353 729l104 130h114l-149 -130h-69z" />
<glyph unicode="&#xde;" horiz-adv-x="539" d="M27 0l142 667h97l-22 -100h32q120 0 181 -37q72 -44 72 -138q0 -49 -22.5 -95t-60.5 -75q-72 -55 -216 -55h-71l-35 -167h-97zM177 249h54q103 0 147 33q51 38 51 104q0 99 -152 99h-50z" />
<glyph unicode="&#xdf;" horiz-adv-x="570" d="M15 0l109 512q23 112 72 161q56 57 163 57q104 0 151 -50q44 -44 44 -121q0 -84 -61 -137q-36 -33 -102 -43q62 -20 95.5 -54t33.5 -94q0 -94 -58 -162q-65 -77 -195 -77q-43 0 -92 8l17 75q38 -13 74 -13q71 0 113.5 44.5t42.5 118.5q0 61 -35 89t-110 29l16 73 q5 -1 11 -1q63 0 108 42t45 100q0 47 -28.5 75t-76.5 28q-59 0 -92 -41t-54 -141l-101 -478h-90z" />
<glyph unicode="&#xe0;" horiz-adv-x="506" d="M12 131q0 43 21.5 79t57.5 54q73 37 203 37q38 0 73 -5q3 30 3 39q0 43 -29 67.5t-79 24.5q-73 0 -152 -38l18 83q79 25 139 25q87 0 138 -40.5t51 -110.5q0 -28 -4 -54t-30 -154q-3 -10 -24 -138h-82q6 56 14 85q-59 -93 -164 -93q-69 0 -111.5 38.5t-42.5 100.5z M107 136q0 -33 23.5 -53.5t60.5 -20.5q63 0 107 50q32 39 51 121q-32 2 -43 2q-95 0 -147 -26t-52 -73zM174 704h94l79 -137h-60z" />
<glyph unicode="&#xe1;" horiz-adv-x="506" d="M12 131q0 43 21.5 79t57.5 54q73 37 203 37q38 0 73 -5q3 30 3 39q0 43 -29 67.5t-79 24.5q-73 0 -152 -38l18 83q79 25 139 25q87 0 138 -40.5t51 -110.5q0 -28 -4 -54t-30 -154q-3 -10 -24 -138h-82q6 56 14 85q-59 -93 -164 -93q-69 0 -111.5 38.5t-42.5 100.5z M107 136q0 -33 23.5 -53.5t60.5 -20.5q63 0 107 50q32 39 51 121q-32 2 -43 2q-95 0 -147 -26t-52 -73zM275 567l110 137h100l-146 -137h-64z" />
<glyph unicode="&#xe2;" horiz-adv-x="506" d="M12 131q0 43 21.5 79t57.5 54q73 37 203 37q38 0 73 -5q3 30 3 39q0 43 -29 67.5t-79 24.5q-73 0 -152 -38l18 83q79 25 139 25q87 0 138 -40.5t51 -110.5q0 -28 -4 -54t-30 -154q-3 -10 -24 -138h-82q6 56 14 85q-59 -93 -164 -93q-69 0 -111.5 38.5t-42.5 100.5z M107 136q0 -33 23.5 -53.5t60.5 -20.5q63 0 107 50q32 39 51 121q-32 2 -43 2q-95 0 -147 -26t-52 -73zM165 567l132 137h86l74 -137h-77l-48 92l-91 -92h-76z" />
<glyph unicode="&#xe3;" horiz-adv-x="506" d="M12 131q0 43 21.5 79t57.5 54q73 37 203 37q38 0 73 -5q3 30 3 39q0 43 -29 67.5t-79 24.5q-73 0 -152 -38l18 83q79 25 139 25q87 0 138 -40.5t51 -110.5q0 -28 -4 -54t-30 -154q-3 -10 -24 -138h-82q6 56 14 85q-59 -93 -164 -93q-69 0 -111.5 38.5t-42.5 100.5z M107 136q0 -33 23.5 -53.5t60.5 -20.5q63 0 107 50q32 39 51 121q-32 2 -43 2q-95 0 -147 -26t-52 -73zM173 585q28 98 102 98q23 0 84 -29q23 -11 34 -11q29 0 41 37h48q-14 -47 -39 -73t-58 -26q-23 0 -103 38q-10 5 -20 5q-28 0 -42 -39h-47z" />
<glyph unicode="&#xe4;" horiz-adv-x="506" d="M12 131q0 43 21.5 79t57.5 54q73 37 203 37q38 0 73 -5q3 30 3 39q0 43 -29 67.5t-79 24.5q-73 0 -152 -38l18 83q79 25 139 25q87 0 138 -40.5t51 -110.5q0 -28 -4 -54t-30 -154q-3 -10 -24 -138h-82q6 56 14 85q-59 -93 -164 -93q-69 0 -111.5 38.5t-42.5 100.5z M107 136q0 -33 23.5 -53.5t60.5 -20.5q63 0 107 50q32 39 51 121q-32 2 -43 2q-95 0 -147 -26t-52 -73zM185 583l21 97h87l-21 -97h-87zM366 583l20 97h88l-21 -97h-87z" />
<glyph unicode="&#xe5;" horiz-adv-x="506" d="M12 131q0 43 21.5 79t57.5 54q73 37 203 37q38 0 73 -5q3 30 3 39q0 43 -29 67.5t-79 24.5q-73 0 -152 -38l18 83q79 25 139 25q87 0 138 -40.5t51 -110.5q0 -28 -4 -54t-30 -154q-3 -10 -24 -138h-82q6 56 14 85q-59 -93 -164 -93q-69 0 -111.5 38.5t-42.5 100.5z M107 136q0 -33 23.5 -53.5t60.5 -20.5q63 0 107 50q32 39 51 121q-32 2 -43 2q-95 0 -147 -26t-52 -73zM227 640q0 40 29 68t70 28q38 0 66.5 -28.5t28.5 -68.5t-28.5 -68.5t-68.5 -28.5t-68.5 28.5t-28.5 69.5zM276 639q0 -20 14 -34t34 -14t34 14.5t14 33.5t-14 33.5 t-33 14.5q-20 0 -34.5 -14t-14.5 -34z" />
<glyph unicode="&#xe6;" horiz-adv-x="835" d="M12 137q0 41 21 75.5t57 53.5q71 37 210 37q41 0 82 -4q5 21 5 37q0 43 -32 67t-88 24q-74 0 -158 -36l17 83q75 23 148 23q68 0 112 -19q23 -10 36 -23.5t24 -40.5q28 45 65.5 64t98.5 19q95 0 146 -49.5t51 -141.5q0 -36 -11 -83h-343q-2 -24 -2 -32q0 -62 39.5 -95.5 t112.5 -33.5q61 0 136 31l-14 -83q-75 -18 -144 -18q-161 0 -190 105q-26 -55 -72 -80t-121 -25q-88 0 -137 38.5t-49 106.5zM108 136q0 -34 25.5 -54t66.5 -20q78 0 123 62q24 33 43 107q-32 2 -50 2q-92 0 -136 -14q-72 -23 -72 -83zM465 293h252q2 26 2 35q0 47 -28 73 t-77 26q-67 0 -108 -49q-26 -28 -41 -85z" />
<glyph unicode="&#xe7;" horiz-adv-x="442" d="M39 205q0 130 77 211t199 81q60 0 123 -22l-21 -69q-54 21 -96 21q-81 0 -133.5 -62t-52.5 -158q0 -70 35 -107.5t100 -37.5q43 0 103 22l-18 -78q-59 -14 -102 -14h-11l-32 -45q27 4 37 4q32 0 51 -17.5t19 -45.5q0 -36 -35 -61.5t-84 -25.5q-48 0 -91 20l20 33 q30 -13 63 -13q25 0 40.5 11t15.5 29q0 14 -12.5 23.5t-29.5 9.5q-9 0 -36 -7l-14 17l50 72q-79 13 -122 67t-43 142z" />
<glyph unicode="&#xe8;" horiz-adv-x="513" d="M37 200q0 61 21.5 121.5t58.5 101.5q66 74 180 74q89 0 138.5 -48.5t49.5 -134.5q0 -35 -11 -91h-344q-4 -32 -4 -44q0 -56 39 -86.5t111 -30.5q60 0 142 29l-17 -78q-75 -21 -137 -21q-111 0 -169 53.5t-58 154.5zM143 293h251q3 21 3 38q0 44 -27 70t-74 26 q-69 0 -113 -52q-25 -29 -40 -82zM191 704h94l79 -137h-60z" />
<glyph unicode="&#xe9;" horiz-adv-x="513" d="M37 200q0 61 21.5 121.5t58.5 101.5q66 74 180 74q89 0 138.5 -48.5t49.5 -134.5q0 -35 -11 -91h-344q-4 -32 -4 -44q0 -56 39 -86.5t111 -30.5q60 0 142 29l-17 -78q-75 -21 -137 -21q-111 0 -169 53.5t-58 154.5zM143 293h251q3 21 3 38q0 44 -27 70t-74 26 q-69 0 -113 -52q-25 -29 -40 -82zM283 567l110 137h100l-146 -137h-64z" />
<glyph unicode="&#xea;" horiz-adv-x="513" d="M37 200q0 61 21.5 121.5t58.5 101.5q66 74 180 74q89 0 138.5 -48.5t49.5 -134.5q0 -35 -11 -91h-344q-4 -32 -4 -44q0 -56 39 -86.5t111 -30.5q60 0 142 29l-17 -78q-75 -21 -137 -21q-111 0 -169 53.5t-58 154.5zM143 293h251q3 21 3 38q0 44 -27 70t-74 26 q-69 0 -113 -52q-25 -29 -40 -82zM180 567l132 137h86l74 -137h-77l-48 92l-91 -92h-76z" />
<glyph unicode="&#xeb;" horiz-adv-x="513" d="M37 200q0 61 21.5 121.5t58.5 101.5q66 74 180 74q89 0 138.5 -48.5t49.5 -134.5q0 -35 -11 -91h-344q-4 -32 -4 -44q0 -56 39 -86.5t111 -30.5q60 0 142 29l-17 -78q-75 -21 -137 -21q-111 0 -169 53.5t-58 154.5zM143 293h251q3 21 3 38q0 44 -27 70t-74 26 q-69 0 -113 -52q-25 -29 -40 -82zM200 583l21 97h87l-21 -97h-87zM381 583l20 97h88l-21 -97h-87z" />
<glyph unicode="&#xec;" horiz-adv-x="227" d="M15 0l104 489h90l-104 -489h-90zM50 704h90l77 -137h-60z" />
<glyph unicode="&#xed;" horiz-adv-x="227" d="M15 0l104 489h90l-104 -489h-90zM145 567l104 137h96l-136 -137h-64z" />
<glyph unicode="&#xee;" horiz-adv-x="227" d="M15 0l104 489h90l-104 -489h-90zM51 567l115 137h86l57 -137h-73l-35 97l-77 -97h-73z" />
<glyph unicode="&#xef;" horiz-adv-x="227" d="M15 0l104 489h90l-104 -489h-90zM73 583l21 97h82l-21 -97h-82zM205 583l21 97h82l-20 -97h-83z" />
<glyph unicode="&#xf0;" horiz-adv-x="569" d="M39 211q0 124 77.5 206t194.5 82q43 0 69 -12t57 -46q-1 44 -18 89t-43 69l-95 -58l-31 44l82 51q-39 20 -99 33l25 55q36 -4 76 -17.5t64 -29.5l98 60l33 -44l-89 -55q44 -48 69 -129.5t25 -176.5q0 -163 -72.5 -251t-205.5 -88q-101 0 -159 58.5t-58 159.5zM136 208 q0 -68 32.5 -106.5t90.5 -38.5q73 0 123 65q53 72 53 157q0 65 -33.5 104.5t-89.5 39.5q-74 0 -125 -63.5t-51 -157.5z" />
<glyph unicode="&#xf1;" horiz-adv-x="571" d="M21 0l74 348q8 38 24 141h87l-7 -33l-6 -34q-3 -13 -7 -25q33 53 74.5 76.5t99.5 23.5q72 0 115.5 -41t43.5 -109q0 -52 -16 -126l-47 -221h-90l48 227q15 73 15 113q0 38 -25 61t-66 23q-70 0 -117 -57q-43 -52 -66 -160l-44 -207h-90zM207 585q28 98 102 98 q23 0 84 -29q23 -11 34 -11q29 0 41 37h48q-14 -47 -39 -73t-58 -26q-23 0 -103 38q-10 5 -20 5q-28 0 -42 -39h-47z" />
<glyph unicode="&#xf2;" horiz-adv-x="569" d="M39 214q0 57 23 114.5t61 95.5q73 73 192 73q101 0 158.5 -58t57.5 -160q0 -66 -26 -127t-70 -98q-72 -62 -178 -62q-101 0 -159.5 59.5t-58.5 162.5zM136 209q0 -68 33 -107.5t90 -39.5q71 0 122.5 65.5t51.5 155.5q0 67 -33 105.5t-89 38.5q-73 0 -124 -64t-51 -154z M209 704h94l79 -137h-60z" />
<glyph unicode="&#xf3;" horiz-adv-x="569" d="M39 214q0 57 23 114.5t61 95.5q73 73 192 73q101 0 158.5 -58t57.5 -160q0 -66 -26 -127t-70 -98q-72 -62 -178 -62q-101 0 -159.5 59.5t-58.5 162.5zM136 209q0 -68 33 -107.5t90 -39.5q71 0 122.5 65.5t51.5 155.5q0 67 -33 105.5t-89 38.5q-73 0 -124 -64t-51 -154z M307 567l110 137h100l-146 -137h-64z" />
<glyph unicode="&#xf4;" horiz-adv-x="569" d="M39 214q0 57 23 114.5t61 95.5q73 73 192 73q101 0 158.5 -58t57.5 -160q0 -66 -26 -127t-70 -98q-72 -62 -178 -62q-101 0 -159.5 59.5t-58.5 162.5zM136 209q0 -68 33 -107.5t90 -39.5q71 0 122.5 65.5t51.5 155.5q0 67 -33 105.5t-89 38.5q-73 0 -124 -64t-51 -154z M203 567l132 137h86l74 -137h-77l-48 92l-91 -92h-76z" />
<glyph unicode="&#xf5;" horiz-adv-x="569" d="M39 214q0 57 23 114.5t61 95.5q73 73 192 73q101 0 158.5 -58t57.5 -160q0 -66 -26 -127t-70 -98q-72 -62 -178 -62q-101 0 -159.5 59.5t-58.5 162.5zM136 209q0 -68 33 -107.5t90 -39.5q71 0 122.5 65.5t51.5 155.5q0 67 -33 105.5t-89 38.5q-73 0 -124 -64t-51 -154z M211 585q28 98 102 98q23 0 84 -29q23 -11 34 -11q29 0 41 37h48q-14 -47 -39 -73t-58 -26q-23 0 -103 38q-10 5 -20 5q-28 0 -42 -39h-47z" />
<glyph unicode="&#xf6;" horiz-adv-x="569" d="M39 214q0 57 23 114.5t61 95.5q73 73 192 73q101 0 158.5 -58t57.5 -160q0 -66 -26 -127t-70 -98q-72 -62 -178 -62q-101 0 -159.5 59.5t-58.5 162.5zM136 209q0 -68 33 -107.5t90 -39.5q71 0 122.5 65.5t51.5 155.5q0 67 -33 105.5t-89 38.5q-73 0 -124 -64t-51 -154z M224 583l21 97h87l-21 -97h-87zM405 583l20 97h88l-21 -97h-87z" />
<glyph unicode="&#xf7;" d="M69 304v73h460v-73h-460zM251 142v95h95v-95h-95zM251 444v95h95v-95h-95z" />
<glyph unicode="&#xf8;" horiz-adv-x="569" d="M23 16l56 57q-40 61 -40 137q0 60 23 118t61 96q75 73 190 73q86 0 138 -38l53 55l43 -37l-56 -58q40 -58 40 -142q0 -64 -26 -125t-70 -98q-72 -62 -178 -62q-80 0 -139 41l-52 -54zM136 204q0 -35 12 -66l241 261q-26 28 -80 28q-72 0 -122.5 -65t-50.5 -158zM179 91 q32 -29 79 -29q72 0 123.5 65.5t51.5 156.5q0 34 -11 69z" />
<glyph unicode="&#xf9;" horiz-adv-x="562" d="M44 129q0 36 11 88l58 272h90l-61 -287q-6 -26 -6 -50q0 -39 25 -63t66 -24q57 0 103 48q49 53 74 169l44 207h90l-70 -332q-18 -84 -28 -157h-80l4 36q3 22 10 55q-29 -43 -54 -62q-50 -37 -118 -37q-70 0 -114 38t-44 99zM211 704h94l79 -137h-60z" />
<glyph unicode="&#xfa;" horiz-adv-x="562" d="M44 129q0 36 11 88l58 272h90l-61 -287q-6 -26 -6 -50q0 -39 25 -63t66 -24q57 0 103 48q49 53 74 169l44 207h90l-70 -332q-18 -84 -28 -157h-80l4 36q3 22 10 55q-29 -43 -54 -62q-50 -37 -118 -37q-70 0 -114 38t-44 99zM299 567l110 137h100l-146 -137h-64z" />
<glyph unicode="&#xfb;" horiz-adv-x="562" d="M44 129q0 36 11 88l58 272h90l-61 -287q-6 -26 -6 -50q0 -39 25 -63t66 -24q57 0 103 48q49 53 74 169l44 207h90l-70 -332q-18 -84 -28 -157h-80l4 36q3 22 10 55q-29 -43 -54 -62q-50 -37 -118 -37q-70 0 -114 38t-44 99zM199 567l132 137h86l74 -137h-77l-48 92 l-91 -92h-76z" />
<glyph unicode="&#xfc;" horiz-adv-x="562" d="M44 129q0 36 11 88l58 272h90l-61 -287q-6 -26 -6 -50q0 -39 25 -63t66 -24q57 0 103 48q49 53 74 169l44 207h90l-70 -332q-18 -84 -28 -157h-80l4 36q3 22 10 55q-29 -43 -54 -62q-50 -37 -118 -37q-70 0 -114 38t-44 99zM218 583l21 97h87l-21 -97h-87zM399 583l20 97 h88l-21 -97h-87z" />
<glyph unicode="&#xfd;" horiz-adv-x="467" d="M-57 -199l16 75q21 -7 43 -7q36 0 59 17t49 61l20 35l-80 507h93l45 -321q8 -53 8 -75v-15q11 31 36 78l181 333h97l-318 -563q-44 -77 -83 -105.5t-103 -28.5q-30 0 -63 9zM245 567l110 137h100l-146 -137h-64z" />
<glyph unicode="&#xfe;" horiz-adv-x="575" d="M-23 -203l196 923h90l-45 -215q-10 -48 -30 -92q35 44 73.5 64t92.5 20q85 0 134 -52.5t49 -143.5q0 -62 -20.5 -123.5t-56.5 -106.5q-64 -79 -177 -79q-83 0 -126 43q-19 19 -32 55q-3 -33 -10 -66l-48 -227h-90zM156 200q0 -65 31 -101.5t87 -36.5q74 0 118 70 q48 78 48 170q0 59 -28 92t-78 33q-73 0 -125.5 -67.5t-52.5 -159.5z" />
<glyph unicode="&#xff;" horiz-adv-x="467" d="M-57 -199l16 75q21 -7 43 -7q36 0 59 17t49 61l20 35l-80 507h93l45 -321q8 -53 8 -75v-15q11 31 36 78l181 333h97l-318 -563q-44 -77 -83 -105.5t-103 -28.5q-30 0 -63 9zM166 583l21 97h87l-21 -97h-87zM347 583l20 97h88l-21 -97h-87z" />
<glyph unicode="&#x131;" horiz-adv-x="227" d="M15 0l104 489h90l-104 -489h-90z" />
<glyph unicode="&#x141;" horiz-adv-x="449" d="M5 212l20 95l77 47l66 313h97l-58 -275l159 91l-20 -95l-160 -91l-45 -216h280l-18 -81h-376l55 259z" />
<glyph unicode="&#x142;" horiz-adv-x="247" d="M17 269l19 88l76 44l68 319h90l-61 -286l76 43l-18 -88l-76 -43l-74 -346h-90l66 313z" />
<glyph unicode="&#x152;" horiz-adv-x="904" d="M68 296q0 161 101 268q104 111 300 111q27 0 96 -5q33 -3 56 -3h302l-17 -82h-254l-42 -200h241l-18 -82h-241l-46 -221h269l-18 -82h-278q-13 0 -101 -6q-26 -2 -42 -2q-144 0 -226 81t-82 223zM168 289q0 -94 61 -154t157 -60q27 0 63 7l106 499q-42 7 -78 7 q-156 0 -238 -98q-71 -84 -71 -201z" />
<glyph unicode="&#x153;" horiz-adv-x="896" d="M39 213q0 124 82 208q75 76 196 76q94 0 139 -43q20 -18 35 -59q32 56 72 79t107 23q94 0 145.5 -49t51.5 -139q0 -36 -11 -87h-339q-2 -24 -2 -33q0 -58 43 -92.5t115 -34.5q54 0 128 30l-14 -77q-74 -23 -136 -23q-87 0 -142 34q-38 23 -52 77q-21 -53 -60 -77 q-55 -34 -135 -34q-101 0 -162 60.5t-61 160.5zM136 210q0 -76 37 -112q38 -36 91 -36q69 0 121 66.5t52 155.5q0 66 -33 104.5t-89 38.5q-74 0 -126.5 -63.5t-52.5 -153.5zM531 292h247q2 26 2 35q0 46 -22 69q-28 31 -78 31q-63 0 -107 -50q-26 -30 -42 -85z" />
<glyph unicode="&#x160;" horiz-adv-x="508" d="M22 31l30 83q81 -40 144 -40t104 34.5t41 87.5q0 48 -43 81q-10 8 -84 52q-55 34 -80 70t-25 83q0 85 63 139.5t161 54.5q85 0 158 -34l-24 -83q-62 34 -130 34q-57 0 -92.5 -27.5t-35.5 -73.5q0 -32 19 -53.5t78 -55.5q77 -44 106 -82.5t29 -97.5q0 -95 -65 -153.5 t-171 -58.5q-100 0 -183 40zM218 859h80l54 -83l90 83h83l-138 -130h-89z" />
<glyph unicode="&#x161;" horiz-adv-x="382" d="M-2 15l16 75q60 -28 115 -28q44 0 71.5 20.5t27.5 54.5q0 33 -31 61q-7 6 -74 53q-63 45 -63 109q0 61 50 99t130 38q70 0 133 -26l-25 -69q-57 25 -104 25q-39 0 -62.5 -17t-23.5 -46q0 -19 10.5 -31.5t41.5 -32.5q51 -34 82 -65q33 -32 33 -81q0 -71 -55 -116.5 t-141 -45.5q-62 0 -131 23zM137 704h76l49 -92l90 92h77l-132 -137h-86z" />
<glyph unicode="&#x178;" horiz-adv-x="622" d="M88 667h106l132 -299l263 299h121l-347 -387l-59 -280h-97l60 280zM266 742l21 97h91l-21 -97h-91zM461 742l21 97h91l-22 -97h-90z" />
<glyph unicode="&#x17d;" horiz-adv-x="558" d="M-7 0l17 81l449 504h-338l17 82h447l-18 -83l-440 -502h348l-17 -82h-465zM253 859h80l54 -83l90 83h83l-138 -130h-89z" />
<glyph unicode="&#x17e;" horiz-adv-x="478" d="M-13 0l16 72l353 347h-277l15 70h386l-15 -71l-355 -348h290l-15 -70h-398zM187 704h76l49 -92l90 92h77l-132 -137h-86z" />
<glyph unicode="&#x192;" d="M-15 -191l22 77q29 -5 52 -5q34 0 51.5 15t28.5 55l113 392h-119l15 53h119l34 120q22 79 66 116.5t115 37.5q34 0 85 -12l-22 -77q-28 12 -55 12q-40 0 -60 -19t-36 -72l-31 -106h129l-15 -53h-128l-111 -394q-22 -79 -59 -113q-40 -36 -117 -36q-30 0 -77 9z" />
<glyph unicode="&#x2c6;" horiz-adv-x="500" d="M170 567l132 137h86l74 -137h-77l-48 92l-91 -92h-76z" />
<glyph unicode="&#x2c7;" horiz-adv-x="500" d="M200 704h76l49 -92l90 92h77l-132 -137h-86z" />
<glyph unicode="&#x2d8;" horiz-adv-x="500" d="M208 675q0 8 3 29h52v-13q0 -28 18.5 -45t47.5 -17q35 0 62.5 20t39.5 55h52q-16 -62 -59.5 -98.5t-102.5 -36.5q-53 0 -83 28t-30 78z" />
<glyph unicode="&#x2d9;" horiz-adv-x="500" d="M278 583l21 97h87l-21 -97h-87z" />
<glyph unicode="&#x2da;" horiz-adv-x="500" d="M236 640q0 40 29 68t70 28q38 0 66.5 -28.5t28.5 -68.5t-28.5 -68.5t-68.5 -28.5t-68.5 28.5t-28.5 69.5zM285 639q0 -20 14 -34t34 -14q19 0 33.5 14.5t14.5 33.5t-14 33.5t-33 14.5q-20 0 -34.5 -14t-14.5 -34z" />
<glyph unicode="&#x2db;" horiz-adv-x="500" d="M299 -105q0 55 91 105h51q-72 -50 -72 -89q0 -16 11.5 -27t27.5 -11q14 0 34 6l-6 -42q-26 -13 -53 -13q-37 0 -60.5 20t-23.5 51z" />
<glyph unicode="&#x2dc;" horiz-adv-x="500" d="M178 585q28 98 102 98q23 0 84 -29q23 -11 34 -11q29 0 41 37h48q-14 -47 -39 -73t-58 -26q-23 0 -103 38q-10 5 -20 5q-29 0 -42 -39h-47z" />
<glyph unicode="&#x2dd;" horiz-adv-x="500" d="M194 567l90 137h94l-127 -137h-57zM341 567l90 137h93l-126 -137h-57z" />
<glyph unicode="&#x3a9;" horiz-adv-x="667" d="M46 0v81h166q-86 52 -126 120.5t-40 163.5q0 135 87.5 226.5t217.5 91.5t217.5 -91.5t87.5 -227.5q0 -95 -40.5 -163.5t-125.5 -119.5h166v-81h-264v73q67 38 102 79q70 84 70 202q0 106 -66 179q-63 69 -146 69q-79 0 -139 -57q-75 -71 -75 -192q0 -185 172 -280v-73 h-264z" />
<glyph unicode="&#x3c0;" horiz-adv-x="606" d="M49 398v81h544v-81h-73v-398h-90v398h-216v-398h-90v398h-75z" />
<glyph unicode="&#x2000;" horiz-adv-x="450" />
<glyph unicode="&#x2001;" horiz-adv-x="901" />
<glyph unicode="&#x2002;" horiz-adv-x="450" />
<glyph unicode="&#x2003;" horiz-adv-x="901" />
<glyph unicode="&#x2004;" horiz-adv-x="300" />
<glyph unicode="&#x2005;" horiz-adv-x="225" />
<glyph unicode="&#x2006;" horiz-adv-x="150" />
<glyph unicode="&#x2007;" horiz-adv-x="150" />
<glyph unicode="&#x2008;" horiz-adv-x="112" />
<glyph unicode="&#x2009;" horiz-adv-x="180" />
<glyph unicode="&#x200a;" horiz-adv-x="50" />
<glyph unicode="&#x2010;" horiz-adv-x="251" d="M-7 219l16 75h251l-16 -75h-251z" />
<glyph unicode="&#x2011;" horiz-adv-x="251" d="M-7 219l16 75h251l-16 -75h-251z" />
<glyph unicode="&#x2012;" horiz-adv-x="251" d="M-7 219l16 75h251l-16 -75h-251z" />
<glyph unicode="&#x2013;" d="M20 222l15 69h506l-14 -69h-507z" />
<glyph unicode="&#x2014;" horiz-adv-x="698" d="M-6 222l15 69h698l-15 -69h-698z" />
<glyph unicode="&#x2018;" horiz-adv-x="302" d="M103 485l134 235h92l-111 -235h-115z" />
<glyph unicode="&#x2019;" horiz-adv-x="302" d="M103 485l111 235h115l-135 -235h-91z" />
<glyph unicode="&#x201a;" horiz-adv-x="302" d="M-27 -127l111 235h115l-135 -235h-91z" />
<glyph unicode="&#x201c;" horiz-adv-x="489" d="M103 484l134 236h92l-111 -236h-115zM290 484l135 236h91l-111 -236h-115z" />
<glyph unicode="&#x201d;" horiz-adv-x="489" d="M103 484l111 236h115l-135 -236h-91zM290 484l111 236h115l-135 -236h-91z" />
<glyph unicode="&#x201e;" horiz-adv-x="489" d="M-27 -128l111 235h115l-135 -235h-91zM160 -128l111 235h115l-135 -235h-91z" />
<glyph unicode="&#x2020;" d="M122 484l15 73h165l35 163h85l-35 -163h165l-15 -73h-165l-146 -687h-86l147 687h-165z" />
<glyph unicode="&#x2021;" d="M16 -17l16 73h164l91 428h-164l15 73h165l34 163h86l-35 -163h165l-16 -73h-164l-91 -428h164l-15 -73h-165l-40 -186h-85l40 186h-165z" />
<glyph unicode="&#x2022;" horiz-adv-x="667" d="M196 338q0 58 40.5 98.5t99.5 40.5q56 0 96.5 -41t40.5 -98t-40.5 -97.5t-97.5 -40.5q-58 0 -98.5 40.5t-40.5 97.5z" />
<glyph unicode="&#x2024;" horiz-adv-x="280" d="M38 0l20 95h98l-21 -95h-97z" />
<glyph unicode="&#x2025;" d="M38 0l20 95h98l-21 -95h-97zM318 0l20 95h98l-21 -95h-97z" />
<glyph unicode="&#x2026;" horiz-adv-x="746" d="M17 0l23 107h108l-22 -107h-109zM266 0l22 107h109l-23 -107h-108zM514 0l23 107h109l-23 -107h-109z" />
<glyph unicode="&#x202f;" horiz-adv-x="180" />
<glyph unicode="&#x2030;" horiz-adv-x="1050" d="M68 493q0 35 12 73t30 61q43 51 115 51q58 0 90 -32t32 -90q0 -85 -44 -140q-40 -49 -106 -49q-62 0 -95.5 32.5t-33.5 93.5zM70 -39l525 744h63l-526 -744h-62zM138 487q0 -69 58 -69q39 0 60 43q21 42 21 98q0 70 -54 70q-41 0 -65 -49q-20 -42 -20 -93zM383 115 q0 35 12 73t31 61q42 51 114 51q58 0 90.5 -32t32.5 -89q0 -79 -40 -134.5t-111 -55.5q-62 0 -95.5 32.5t-33.5 93.5zM453 109q0 -69 59 -69q39 0 60 44t21 97q0 70 -55 70q-40 0 -64 -49q-21 -44 -21 -93zM720 115q0 35 12 73t31 61q40 51 114 51q58 0 90 -32t32 -89 q0 -78 -40 -134t-110 -56q-62 0 -95.5 32.5t-33.5 93.5zM790 109q0 -69 58 -69q39 0 60 44t21 97q0 70 -54 70q-41 0 -65 -49q-20 -42 -20 -93z" />
<glyph unicode="&#x2032;" horiz-adv-x="205" d="M111 453l41 267h100l-72 -267h-69z" />
<glyph unicode="&#x2033;" horiz-adv-x="346" d="M111 453l41 267h100l-72 -267h-69zM252 453l42 267h99l-72 -267h-69z" />
<glyph unicode="&#x2039;" horiz-adv-x="309" d="M44 271l168 170h90l-161 -191l78 -201h-82z" />
<glyph unicode="&#x203a;" horiz-adv-x="309" d="M4 49l161 191l-78 201h83l92 -222l-168 -170h-90z" />
<glyph unicode="&#x2044;" horiz-adv-x="172" d="M-195 -39l526 744h62l-525 -744h-63z" />
<glyph unicode="&#x205f;" horiz-adv-x="225" />
<glyph unicode="&#x2070;" horiz-adv-x="257" d="M83 492q0 66 33 125q36 62 99 62q40 0 61 -23t21 -67q0 -92 -49 -154q-30 -38 -81 -38q-84 0 -84 95zM133 487q0 -51 37 -51q31 0 54 46t23 108q0 50 -36 50q-34 0 -56 -51.5t-22 -101.5z" />
<glyph unicode="&#x2074;" horiz-adv-x="257" d="M64 458l8 37l157 180h65l-37 -177h36l-9 -40h-36l-12 -58h-50l13 58h-135zM129 498h78l31 129z" />
<glyph unicode="&#x2075;" horiz-adv-x="257" d="M75 407l9 41q38 -12 61 -12q34 0 55 17t21 44q0 19 -16 30t-44 11q-26 0 -57 -9l34 146h162l-8 -40h-117l-15 -60q20 2 22 2q41 0 65 -20.5t24 -55.5q0 -47 -34.5 -75.5t-90.5 -28.5q-40 0 -71 10z" />
<glyph unicode="&#x2076;" horiz-adv-x="257" d="M87 487q0 61 31 120q38 72 125 72q29 0 66 -11l-15 -39q-27 11 -50 11q-34 0 -56.5 -18t-39.5 -59q31 18 58 18q36 0 57 -20t21 -55q0 -49 -29.5 -79t-78.5 -30q-43 0 -66 23.5t-23 66.5zM137 478q0 -20 11.5 -31t30.5 -11q23 0 39.5 20t16.5 47q0 17 -11.5 28t-30.5 11 q-23 0 -39.5 -18.5t-16.5 -45.5z" />
<glyph unicode="&#x2077;" horiz-adv-x="258" d="M88 400l159 235h-138l8 40h192l-9 -40l-155 -235h-57z" />
<glyph unicode="&#x2078;" horiz-adv-x="258" d="M75 471q0 29 16 47.5t52 30.5q-33 25 -33 56q0 33 27 53.5t70 20.5t67.5 -17.5t24.5 -46.5q0 -44 -59 -70q38 -24 38 -61q0 -38 -29.5 -62.5t-76.5 -24.5q-43 0 -70 20.5t-27 53.5zM125 475q0 -17 14 -28t36 -11q23 0 38.5 13t15.5 33q0 13 -7.5 20t-30.5 20l-9 5 q-57 -23 -57 -52zM159 607q0 -25 40 -44q50 22 50 47q0 13 -12.5 21.5t-31.5 8.5q-20 0 -33 -9.5t-13 -23.5z" />
<glyph unicode="&#x2079;" horiz-adv-x="258" d="M68 408l15 41q29 -14 55 -14q34 0 55 18.5t37 62.5q-28 -19 -54 -19q-37 0 -59 21t-22 56q0 46 31 75.5t79 29.5q84 0 84 -87q0 -73 -38 -136q-35 -60 -113 -60q-31 0 -70 12zM145 577q0 -19 10.5 -30t27.5 -11q23 0 39.5 18t16.5 44q0 19 -10.5 30.5t-27.5 11.5 q-23 0 -39.5 -19t-16.5 -44z" />
<glyph unicode="&#x2080;" horiz-adv-x="257" d="M-2 91q0 66 33 125q36 62 99 62q40 0 61 -23t21 -67q0 -92 -49 -154q-30 -38 -81 -38q-84 0 -84 95zM48 86q0 -51 37 -51q31 0 54 46.5t23 107.5q0 50 -36 50q-34 0 -56 -51.5t-22 -101.5z" />
<glyph unicode="&#x2081;" horiz-adv-x="257" d="M34 223l90 52h41l-58 -275h-50l47 219l-47 -31z" />
<glyph unicode="&#x2082;" horiz-adv-x="257" d="M-26 0l10 45q55 38 104 79q62 52 62 83t-45 31q-32 0 -74 -18l4 44q42 14 78 14q40 0 63.5 -17.5t23.5 -46.5q0 -37 -34 -76t-119 -98h126l-9 -40h-190z" />
<glyph unicode="&#x2083;" horiz-adv-x="257" d="M-23 11l12 41q36 -17 69 -17q31 0 51 14t20 36q0 39 -71 39q-9 0 -15 -1l8 40q100 0 100 45q0 31 -45 31q-30 0 -72 -14l5 44q42 9 71 9q43 0 67 -17t24 -47q0 -52 -60 -72q37 -17 37 -56q0 -40 -33.5 -65t-86.5 -25q-43 0 -81 15z" />
<glyph unicode="&#x2084;" horiz-adv-x="257" d="M-21 58l8 37l157 180h65l-37 -177h36l-9 -40h-36l-12 -58h-50l13 58h-135zM44 98h78l31 129z" />
<glyph unicode="&#x2085;" horiz-adv-x="257" d="M-10 6l9 41q42 -12 61 -12q34 0 55 17t21 44q0 19 -16 30.5t-44 11.5q-26 0 -57 -9l34 146h162l-8 -40h-117l-15 -60q20 2 22 2q40 0 64.5 -20.5t24.5 -55.5q0 -47 -34.5 -76t-90.5 -29q-36 0 -71 10z" />
<glyph unicode="&#x2086;" horiz-adv-x="257" d="M2 86q0 61 31 120q38 72 125 72q29 0 66 -11l-15 -38q-29 10 -50 10q-34 0 -56.5 -18t-39.5 -59q30 19 58 19q36 0 57 -20t21 -55q0 -50 -29.5 -80t-78.5 -30q-43 0 -66 23.5t-23 66.5zM52 78q0 -20 11.5 -31.5t30.5 -11.5q22 0 39 20.5t17 47.5q0 17 -11.5 28t-30.5 11 q-23 0 -39.5 -19t-16.5 -45z" />
<glyph unicode="&#x2087;" horiz-adv-x="258" d="M3 0l159 235h-138l8 40h192l-9 -40l-155 -235h-57z" />
<glyph unicode="&#x2088;" horiz-adv-x="258" d="M-10 70q0 29 16 47.5t52 30.5q-33 26 -33 57q0 33 26.5 53t70.5 20q43 0 67.5 -17.5t24.5 -46.5q0 -43 -59 -69q38 -24 38 -62t-29.5 -62.5t-76.5 -24.5q-43 0 -70 20.5t-27 53.5zM40 75q0 -18 14 -29t36 -11q23 0 38.5 13t15.5 33q0 25 -38 41l-9 4q-2 -1 -5 -1 q-52 -16 -52 -50zM74 207q0 -24 40 -45q50 21 50 47q0 13 -12 21.5t-32 8.5t-33 -9t-13 -23z" />
<glyph unicode="&#x2089;" horiz-adv-x="258" d="M-17 8l15 41q31 -14 55 -14q34 0 54.5 18.5t37.5 62.5q-26 -18 -54 -18q-37 0 -59 21t-22 55q0 45 31 74.5t79 29.5q84 0 84 -87q0 -72 -38 -136q-36 -59 -113 -59q-33 0 -70 12zM60 178q0 -19 10.5 -30t27.5 -11q23 0 39.5 18t16.5 43q0 18 -10.5 29.5t-27.5 11.5 q-22 0 -39 -18.5t-17 -42.5z" />
<glyph unicode="&#x20ac;" horiz-adv-x="718" d="M56 267l28 53h65q2 16 5 33h-80l28 53h65q40 127 132 198.5t217 71.5q113 0 181 -57l-50 -92q-50 66 -134 66q-76 0 -139 -49t-100 -138h309l-28 -53h-298l-3 -13q-2 -12 -3 -20h286l-28 -53h-263q0 -90 49 -141.5t134 -51.5q76 0 137 48l-24 -112q-54 -19 -122 -19 q-130 0 -200.5 71t-73.5 205h-90z" />
<glyph unicode="&#x2113;" horiz-adv-x="500" d="M112 178q0 10 19 28q21 21 49 53q41 215 89.5 317t109.5 102q31 0 49 -23t18 -61q0 -84 -63 -189q-34 -55 -112 -137q-24 -123 -28 -148t-4 -52t17 -27q25 0 49 52q8 19 19 19q15 0 15 -17q0 -28 -30 -66q-36 -43 -75 -43q-33 0 -51 25.5t-18 72.5q0 26 7 111 q-37 -35 -45 -35q-5 0 -10 5.5t-5 12.5zM283 340q54 59 86 126t32 121q0 44 -22 44q-10 0 -20.5 -12t-17.5 -31q-27 -77 -58 -248z" />
<glyph unicode="&#x2117;" horiz-adv-x="779" d="M66 333q0 144 100 243.5t245 99.5q138 0 237 -101t99 -241q0 -142 -100 -242.5t-240 -100.5t-240.5 100.5t-100.5 241.5zM119 334q0 -121 84.5 -207.5t203.5 -86.5t203 86.5t84 207.5q0 120 -83.5 207t-199.5 87q-122 0 -207 -85.5t-85 -208.5zM298 145v377h99 q59 0 91 -10q31 -10 49.5 -35t18.5 -56q0 -43 -37.5 -77t-121.5 -34h-35v-165h-64zM362 363h31q52 0 74.5 12.5t22.5 41.5q0 28 -21.5 40t-69.5 12h-37v-106z" />
<glyph unicode="&#x2122;" horiz-adv-x="843" d="M77 614l11 54h315l-11 -54h-124l-70 -327h-66l70 327h-125zM366 287l81 381h103l43 -235q7 -34 9 -71q14 28 29 53l157 253h100l-81 -381h-62l53 249q7 37 17 73q-30 -54 -38 -67l-160 -255h-60l-35 177q-16 77 -26 150l-10 -54q-1 -3 -8 -38q-10 -46 -28 -131.5 t-22 -103.5h-62z" />
<glyph unicode="&#x2126;" horiz-adv-x="667" d="M46 0v81h166q-86 52 -126 120.5t-40 163.5q0 135 87.5 226.5t217.5 91.5t217.5 -91.5t87.5 -227.5q0 -95 -40.5 -163.5t-125.5 -119.5h166v-81h-264v73q67 38 102 79q70 84 70 202q0 106 -66 179q-63 69 -146 69q-79 0 -139 -57q-75 -71 -75 -192q0 -185 172 -280v-73 h-264z" />
<glyph unicode="&#x212e;" horiz-adv-x="874" d="M60 333q0 156 111 249q112 94 280 94q169 0 275 -99q105 -98 105 -262h-610v-183q86 -101 232 -101q142 0 228 101h99q-111 -141 -335 -141q-165 0 -274 93q-111 93 -111 249zM221 358h457v169q-82 108 -232 108q-147 0 -225 -108v-169z" />
<glyph unicode="&#x2153;" horiz-adv-x="911" d="M130 593l130 75h57l-85 -401h-69l65 305q1 3 2.5 9.5t2.5 9.5l-71 -46zM175 -39l526 744h62l-525 -744h-63zM531 15l17 57q50 -24 99 -24q46 0 76.5 21.5t30.5 53.5q0 59 -105 59h-21l11 55q7 -1 16 -1q62 0 96.5 18.5t34.5 51.5q0 48 -68 48q-43 0 -103 -22l6 61 q59 14 103 14q61 0 96 -24.5t35 -68.5q0 -38 -28 -69q-22 -24 -64 -37q59 -24 59 -83q0 -58 -48.5 -94t-125.5 -36q-58 0 -117 20z" />
<glyph unicode="&#x2154;" horiz-adv-x="911" d="M41 267l14 63q65 45 151 117q92 79 92 124q0 22 -18 35t-49 13q-49 0 -106 -27l6 61q60 21 111 21q58 0 92 -25t34 -69q0 -68 -89 -151q-68 -61 -139 -107h188l-12 -55h-275zM174 -39l526 744h63l-526 -744h-63zM531 15l16 57q49 -24 99 -24q46 0 76.5 21.5t30.5 53.5 q0 59 -105 59h-21l12 55q6 -1 15 -1q62 0 97 18.5t35 51.5q0 48 -68 48q-44 0 -104 -22l7 61q59 14 103 14q61 0 96 -24.5t35 -68.5q0 -38 -28 -69q-22 -24 -65 -37q59 -25 59 -83t-48.5 -94t-125.5 -36q-59 0 -116 20z" />
<glyph unicode="&#x215b;" horiz-adv-x="911" d="M130 593l130 75h57l-85 -401h-69l65 305q1 3 2.5 9.5t2.5 9.5l-71 -46zM175 -39l526 744h62l-525 -744h-63zM550 102q0 44 29 76q21 22 74 38q-52 30 -52 85q0 48 38.5 77t102.5 29q61 0 97 -25t36 -68q0 -33 -25 -61t-66 -42q59 -26 59 -90q0 -56 -43 -91t-110 -35 q-63 0 -101.5 29.5t-38.5 77.5zM620 108q0 -27 20.5 -43.5t53.5 -16.5q35 0 58 20t23 50q0 20 -12 33.5t-44 28.5q-6 2 -14 6q-85 -26 -85 -78zM669 303q0 -37 60 -68q42 19 59.5 35.5t17.5 37.5q0 20 -18.5 33t-47.5 13q-31 0 -51 -14.5t-20 -36.5z" />
<glyph unicode="&#x215c;" horiz-adv-x="911" d="M46 282l16 57q49 -25 100 -25q46 0 76.5 21.5t30.5 54.5q0 59 -106 59q-11 0 -21 -1l12 55q147 0 147 70q0 47 -68 47q-44 0 -104 -21l7 61q59 14 103 14q61 0 96 -24.5t35 -68.5q0 -39 -28 -70q-22 -24 -65 -37q60 -24 60 -82t-48.5 -94.5t-125.5 -36.5q-61 0 -117 21z M174 -39l526 744h63l-526 -744h-63zM549 102q0 44 29 76q21 22 75 38q-52 30 -52 85q0 48 38.5 77t101.5 29q61 0 97 -25t36 -68q0 -33 -25 -61t-66 -42q59 -26 59 -90q0 -56 -43 -91t-110 -35q-63 0 -101.5 29.5t-38.5 77.5zM619 108q0 -27 20.5 -43.5t53.5 -16.5 q35 0 58 20t23 50q0 20 -12 33t-44 29q-3 1 -13 6q-86 -26 -86 -78zM669 303q0 -37 60 -68q41 18 58.5 35t17.5 38q0 20 -18.5 33t-47.5 13q-31 0 -50.5 -14.5t-19.5 -36.5z" />
<glyph unicode="&#x215d;" horiz-adv-x="911" d="M64 275l12 57q56 -18 89 -18q50 0 81.5 25.5t31.5 67.5q0 29 -24 46t-65 17q-34 0 -82 -13l49 211h234l-12 -55h-170l-23 -92q22 2 30 2q62 0 97 -29.5t35 -81.5q0 -68 -49.5 -109.5t-130.5 -41.5q-50 0 -103 14zM174 -39l526 744h63l-526 -744h-63zM549 102q0 44 29 76 q21 22 75 38q-52 30 -52 85q0 48 38.5 77t101.5 29q61 0 97 -25t36 -68q0 -33 -24.5 -61t-65.5 -42q58 -27 58 -90q0 -56 -43 -91t-110 -35q-63 0 -101.5 29.5t-38.5 77.5zM619 108q0 -27 20.5 -43.5t53.5 -16.5q35 0 58 20t23 50q0 20 -12 33t-44 29q-3 1 -13 6 q-86 -26 -86 -78zM669 303q0 -37 60 -68q41 18 58.5 35t17.5 38q0 20 -18.5 33t-47.5 13q-31 0 -50.5 -14.5t-19.5 -36.5z" />
<glyph unicode="&#x215e;" horiz-adv-x="911" d="M85 267l233 346h-203l12 55h277l-13 -57l-226 -344h-80zM175 -39l525 744h63l-525 -744h-63zM550 102q0 44 29 76q21 22 74 38q-52 30 -52 85q0 48 38.5 77t101.5 29q61 0 97 -25t36 -68q0 -33 -24.5 -61t-65.5 -42q59 -26 59 -90q0 -56 -43 -91t-110 -35 q-63 0 -101.5 29.5t-38.5 77.5zM620 108q0 -27 20.5 -43.5t53.5 -16.5q35 0 58 20t23 50q0 20 -12 33t-44 29q-6 2 -14 6q-45 -13 -65 -32t-20 -46zM669 303q0 -37 60 -68q76 33 76 73q0 20 -18.5 33t-47.5 13q-31 0 -50.5 -14.5t-19.5 -36.5z" />
<glyph unicode="&#x21e7;" horiz-adv-x="931" d="M109 333l471 388l306 -388h-196l-71 -333h-385l71 333h-196zM274 392h110l-70 -326h253l70 326h110l-186 236z" />
<glyph unicode="&#x2202;" horiz-adv-x="500" d="M44 216q0 91 60.5 154.5t147.5 63.5q44 0 75.5 -14.5t63.5 -50.5q-26 63 -48 93t-66 60q-83 56 -181 68l12 79q89 -12 148 -36.5t108 -69.5q61 -56 94 -137t33 -174q0 -100 -43 -165q-30 -46 -77.5 -71.5t-102.5 -25.5q-92 0 -158 66.5t-66 159.5zM135 212 q0 -64 38.5 -109t93.5 -45t93.5 46t38.5 113q0 64 -36.5 107t-91.5 43q-58 0 -97 -45t-39 -110z" />
<glyph unicode="&#x2206;" horiz-adv-x="667" d="M42 0l259 667h97l262 -667h-618zM171 84h359l-180 473z" />
<glyph unicode="&#x220f;" horiz-adv-x="709" d="M55 -166h80v833h-80v84h634v-84h-81v-833h81v-84h-252v84h81v833h-293v-833h81v-84h-251v84z" />
<glyph unicode="&#x2211;" horiz-adv-x="667" d="M43 -156l247 425l-247 389v92h579v-235h-81l-9 151h-388l252 -397l-252 -435h397l5 150h85v-234h-588v94z" />
<glyph unicode="&#x2212;" d="M69 304v73h460v-73h-460z" />
<glyph unicode="&#x221a;" horiz-adv-x="667" d="M18 290v84h160l32 -116q6 -19 24 -141h7q28 157 73 327l102 386h269v-84h-191l-200 -746h-115l-74 290h-87z" />
<glyph unicode="&#x221e;" horiz-adv-x="667" d="M35 341q0 68 44 111.5t112 43.5q89 0 158 -96q67 96 162 96q68 0 111.5 -44t43.5 -113q0 -68 -43.5 -112t-110.5 -44q-92 0 -159 97q-73 -96 -163 -96q-68 0 -111.5 44t-43.5 113zM124 340q0 -34 22.5 -57t54.5 -23q29 0 53 18.5t52 61.5q-1 1 -3.5 4.5t-3.5 5.5 q-46 69 -98 69q-33 0 -55 -22.5t-22 -56.5zM395 340q50 -80 106 -80q32 0 54 23t22 57t-22 56.5t-55 22.5q-29 0 -52.5 -18t-52.5 -61z" />
<glyph unicode="&#x222b;" horiz-adv-x="500" d="M99 -239l18 80q30 -9 49 -9q48 0 55 48q2 13 2 75v573q0 105 9 138q11 39 46 61.5t84 22.5q31 0 75 -10l-18 -80q-28 9 -48 9q-50 0 -56 -48q-2 -12 -2 -119v-530q0 -87 -4.5 -116.5t-20.5 -52.5q-36 -51 -121 -51q-38 0 -68 9z" />
<glyph unicode="&#x2248;" horiz-adv-x="500" d="M26 203q30 67 62.5 95t79.5 28q35 0 109 -32q67 -30 94 -30t44.5 13.5t40.5 50.5l53 -31q-30 -61 -61 -87q-40 -32 -89 -32q-35 0 -141 46q-35 15 -58 15q-25 0 -44 -16t-38 -53zM26 381q30 66 62.5 94t79.5 28q37 0 109 -32q70 -30 94 -30q27 0 45 13.5t40 50.5l53 -31 q-30 -61 -61 -87q-42 -32 -89 -32q-30 0 -141 47q-33 14 -58 14t-44 -16t-38 -53z" />
<glyph unicode="&#x2260;" d="M69 234v73h174l31 67h-205v73h239l52 111l67 -31l-38 -80h140v-73h-174l-31 -67h205v-73h-239l-52 -111l-67 31l38 80h-140z" />
<glyph unicode="&#x2264;" horiz-adv-x="500" d="M51 41v84h433v-84h-433zM51 351v77l433 200v-86l-337 -151l337 -151v-86z" />
<glyph unicode="&#x2265;" horiz-adv-x="500" d="M51 41v84h433v-84h-433zM51 154v86l337 151l-337 151v86l433 -200v-77z" />
<glyph unicode="&#x2303;" horiz-adv-x="856" d="M156 370l362 297l233 -297l-77 -64l-184 233l-283 -233z" />
<glyph unicode="&#x2318;" horiz-adv-x="842" d="M66 110q0 70 59 127.5t132 57.5h86l16 77h-86q-55 0 -90 34.5t-35 86.5q0 72 59 128.5t131 56.5q54 0 89 -35.5t35 -87.5q0 -15 -3 -30l-19 -87h76l19 87q14 63 68 108t118 45q54 0 88.5 -34.5t34.5 -86.5q0 -73 -58.5 -129t-129.5 -56h-87l-16 -77h87q54 0 88 -34.5 t34 -86.5q0 -73 -57.5 -129t-129.5 -56q-56 0 -91 34.5t-35 86.5q0 10 4 32l19 87h-76l-19 -87q-14 -63 -67.5 -108t-117.5 -45q-56 0 -91 34.5t-35 86.5zM135 125q0 -29 20 -49.5t51 -20.5q36 0 66 26t38 61l19 87h-86q-41 0 -74.5 -31t-33.5 -73zM217 505q0 -29 19.5 -48 t50.5 -19h86l19 87q2 12 2 18q0 29 -19.5 49t-50.5 20q-42 0 -74.5 -33t-32.5 -74zM410 295h76l16 77h-76zM518 125q0 -29 20 -49.5t51 -20.5q41 0 73.5 32.5t32.5 73.5q0 29 -19.5 48.5t-49.5 19.5h-87l-19 -87q-2 -12 -2 -17zM583 438h87q41 0 74 32t33 72q0 29 -20 49.5 t-50 20.5q-36 0 -66.5 -25.5t-38.5 -61.5z" />
<glyph unicode="&#x2325;" horiz-adv-x="915" d="M166 594l16 73h265l167 -593h205l-16 -74h-264l-167 594h-206zM613 594l16 73h316l-16 -73h-316z" />
<glyph unicode="&#x2460;" horiz-adv-x="820" d="M101 316q0 107 56 200.5t149 148.5t199 55q142 0 237 -95.5t95 -234.5q0 -162 -122.5 -282t-283.5 -120q-141 0 -235.5 94.5t-94.5 233.5zM153 320q0 -121 80.5 -203t202.5 -82q139 0 244 105t105 247q0 121 -81.5 203.5t-203.5 82.5q-139 0 -243 -105t-104 -248z M397 475l106 92h51l-71 -425h-70l58 346l-57 -58z" />
<glyph unicode="&#x2461;" horiz-adv-x="820" d="M101 316q0 107 56 200.5t149 148.5t199 55q142 0 237 -95.5t95 -234.5q0 -162 -122.5 -282t-283.5 -120q-141 0 -235.5 94.5t-94.5 233.5zM153 320q0 -121 80.5 -203t202.5 -82q139 0 244 105t105 247q0 121 -81.5 203.5t-203.5 82.5q-139 0 -243 -105t-104 -248z M327 142l11 65q10 13 66 72.5t83 103.5t27 88q0 47 -33 47q-23 0 -47.5 -11t-34.5 -20q4 40 5 59q40 28 98 28q40 0 63 -24t23 -67q0 -49 -19 -93t-42.5 -70.5t-58 -62.5t-50.5 -60h132l-9 -55h-214z" />
<glyph unicode="&#x2462;" horiz-adv-x="820" d="M101 316q0 107 56 200.5t149 148.5t199 55q142 0 237 -95.5t95 -234.5q0 -162 -122.5 -282t-283.5 -120q-141 0 -235.5 94.5t-94.5 233.5zM153 320q0 -121 80.5 -203t202.5 -82q139 0 244 105t105 247q0 121 -81.5 203.5t-203.5 82.5q-139 0 -243 -105t-104 -248z M337 151l12 60q24 -20 61 -20t60.5 24.5t23.5 63.5q0 55 -58 55h-26l10 56h21q34 0 59 20t25 60q0 48 -47 48q-34 0 -70 -23l7 58q31 21 81 21q48 0 75 -24t27 -65q0 -45 -25 -78.5t-63 -44.5q55 -15 55 -78q0 -69 -43 -109t-113 -40q-43 0 -72 16z" />
<glyph unicode="&#x2463;" horiz-adv-x="820" d="M101 316q0 107 56 200.5t149 148.5t199 55q142 0 237 -95.5t95 -234.5q0 -162 -122.5 -282t-283.5 -120q-141 0 -235.5 94.5t-94.5 233.5zM153 320q0 -121 80.5 -203t202.5 -82q139 0 244 105t105 247q0 121 -81.5 203.5t-203.5 82.5q-139 0 -243 -105t-104 -248z M318 235l10 58l156 274h91l-46 -277h44l-9 -55h-44l-16 -93h-67l16 93h-135zM395 290h67l31 187z" />
<glyph unicode="&#x2464;" horiz-adv-x="820" d="M101 316q0 107 56 200.5t149 148.5t199 55q142 0 237 -95.5t95 -234.5q0 -162 -122.5 -282t-283.5 -120q-141 0 -235.5 94.5t-94.5 233.5zM153 320q0 -121 80.5 -203t202.5 -82q139 0 244 105t105 247q0 121 -81.5 203.5t-203.5 82.5q-139 0 -243 -105t-104 -248z M337 153l15 65q33 -20 70 -20t62.5 28.5t25.5 71.5q0 27 -16.5 44.5t-49.5 17.5q-32 0 -68 -14l37 221h196l-10 -60h-134l-16 -97q18 5 45 5q39 0 64 -26.5t25 -73.5q0 -82 -47 -130.5t-113 -48.5q-40 0 -86 17z" />
<glyph unicode="&#x2465;" horiz-adv-x="820" d="M101 316q0 107 56 200.5t149 148.5t199 55q142 0 237 -95.5t95 -234.5q0 -162 -122.5 -282t-283.5 -120q-141 0 -235.5 94.5t-94.5 233.5zM153 320q0 -121 80.5 -203t202.5 -82q139 0 244 105t105 247q0 121 -81.5 203.5t-203.5 82.5q-139 0 -243 -105t-104 -248z M340 252q0 146 55 234t130 88q31 0 65 -14q-17 -56 -18 -59q-24 17 -49 17q-74 0 -104 -144q26 39 60 39q40 0 61.5 -25.5t21.5 -71.5q0 -79 -40.5 -130t-97.5 -51q-84 0 -84 117zM404 239q0 -49 29 -49q20 0 38 35t18 82q0 50 -28 50q-11 0 -23.5 -10t-23 -38.5 t-10.5 -69.5z" />
<glyph unicode="&#x2466;" horiz-adv-x="820" d="M101 316q0 107 56 200.5t149 148.5t199 55q142 0 237 -95.5t95 -234.5q0 -162 -122.5 -282t-283.5 -120q-141 0 -235.5 94.5t-94.5 233.5zM153 320q0 -121 80.5 -203t202.5 -82q139 0 244 105t105 247q0 121 -81.5 203.5t-203.5 82.5q-139 0 -243 -105t-104 -248z M351 142l182 369h-142l9 56h212l-9 -57l-176 -368h-76z" />
<glyph unicode="&#x2467;" horiz-adv-x="820" d="M101 316q0 107 56 200.5t149 148.5t199 55q142 0 237 -95.5t95 -234.5q0 -162 -122.5 -282t-283.5 -120q-141 0 -235.5 94.5t-94.5 233.5zM153 320q0 -121 80.5 -203t202.5 -82q139 0 244 105t105 247q0 121 -81.5 203.5t-203.5 82.5q-139 0 -243 -105t-104 -248z M335 227q0 94 88 136q-52 31 -52 82q0 57 39 93t97 36q43 0 69.5 -22.5t26.5 -60.5q0 -37 -25.5 -72.5t-61.5 -50.5q53 -30 53 -88q0 -64 -39.5 -104.5t-97.5 -40.5q-45 0 -71 25t-26 67zM407 239q0 -21 10 -35t26 -14q20 0 36.5 23t16.5 58q0 39 -36 64q-53 -39 -53 -96z M439 453q0 -34 41 -63q17 11 33.5 35t16.5 54q0 40 -36 40q-20 0 -37.5 -20t-17.5 -46z" />
<glyph unicode="&#x2468;" horiz-adv-x="820" d="M101 316q0 107 56 200.5t149 148.5t199 55q142 0 237 -95.5t95 -234.5q0 -162 -122.5 -282t-283.5 -120q-141 0 -235.5 94.5t-94.5 233.5zM153 320q0 -121 80.5 -203t202.5 -82q139 0 244 105t105 247q0 121 -81.5 203.5t-203.5 82.5q-139 0 -243 -105t-104 -248z M344 148q2 8 6 22t7 24t4 13q25 -16 49 -16q42 0 68 45t35 98q-9 -17 -25.5 -28t-32.5 -11q-40 0 -61.5 25.5t-21.5 71.5q0 79 40 130.5t97 51.5q85 0 85 -119q0 -144 -55.5 -232t-129.5 -88q-36 0 -65 13zM444 399q0 -48 27 -48q16 0 28.5 16t18 38.5t8 39t2.5 24.5 q0 50 -29 50q-20 0 -37.5 -36.5t-17.5 -83.5z" />
<glyph unicode="&#x2469;" horiz-adv-x="820" d="M101 316q0 107 56 200.5t149 148.5t199 55q142 0 237 -95.5t95 -234.5q0 -162 -122.5 -282t-283.5 -120q-141 0 -235.5 94.5t-94.5 233.5zM153 320q0 -121 80.5 -203t202.5 -82q139 0 244 105t105 247q0 121 -81.5 203.5t-203.5 82.5q-139 0 -243 -105t-104 -248z M265 475l106 92h51l-71 -425h-70l58 346l-57 -58zM442 264q0 137 47 223.5t112 86.5q84 0 84 -131q0 -137 -46.5 -222.5t-111.5 -85.5q-85 0 -85 129zM510 248q0 -58 26 -58q16 0 34.5 34t32.5 98t14 137q0 60 -26 60q-42 0 -69 -166q-12 -74 -12 -105z" />
<glyph unicode="&#x246a;" horiz-adv-x="820" d="M101 316q0 107 56 200.5t149 148.5t199 55q142 0 237 -95.5t95 -234.5q0 -162 -122.5 -282t-283.5 -120q-141 0 -235.5 94.5t-94.5 233.5zM153 320q0 -121 80.5 -203t202.5 -82q139 0 244 105t105 247q0 121 -81.5 203.5t-203.5 82.5q-139 0 -243 -105t-104 -248z M285 475l106 92h51l-71 -425h-70l58 346l-57 -58zM492 475l106 92h51l-71 -425h-70l58 346l-57 -58z" />
<glyph unicode="&#x246b;" horiz-adv-x="820" d="M101 316q0 107 56 200.5t149 148.5t199 55q142 0 237 -95.5t95 -234.5q0 -162 -122.5 -282t-283.5 -120q-141 0 -235.5 94.5t-94.5 233.5zM153 320q0 -121 80.5 -203t202.5 -82q139 0 244 105t105 247q0 121 -81.5 203.5t-203.5 82.5q-139 0 -243 -105t-104 -248z M263 475l106 92h51l-71 -425h-70l58 346l-57 -58zM419 142l11 65q10 13 66 72.5t83 103.5t27 88q0 47 -33 47q-23 0 -47.5 -11t-34.5 -20q4 40 5 59q40 28 98 28q40 0 63 -24t23 -67q0 -49 -19 -93t-42.5 -70.5t-58 -62.5t-50.5 -60h132l-9 -55h-214z" />
<glyph unicode="&#x246c;" horiz-adv-x="820" d="M101 316q0 107 56 200.5t149 148.5t199 55q142 0 237 -95.5t95 -234.5q0 -162 -122.5 -282t-283.5 -120q-141 0 -235.5 94.5t-94.5 233.5zM153 320q0 -121 80.5 -203t202.5 -82q139 0 244 105t105 247q0 121 -81.5 203.5t-203.5 82.5q-139 0 -243 -105t-104 -248z M270 475l106 92h51l-71 -425h-70l58 346l-57 -58zM418 151l12 60q24 -20 61 -20t60.5 24.5t23.5 63.5q0 55 -58 55h-26l10 56h21q34 0 59 20t25 60q0 48 -47 48q-34 0 -70 -23l7 58q32 21 81 21q48 0 75 -24t27 -65q0 -45 -25 -78.5t-63 -44.5q55 -15 55 -78q0 -69 -43 -109 t-113 -40q-43 0 -72 16z" />
<glyph unicode="&#x246d;" horiz-adv-x="820" d="M101 316q0 107 56 200.5t149 148.5t199 55q142 0 237 -95.5t95 -234.5q0 -162 -122.5 -282t-283.5 -120q-141 0 -235.5 94.5t-94.5 233.5zM153 320q0 -121 80.5 -203t202.5 -82q139 0 244 105t105 247q0 121 -81.5 203.5t-203.5 82.5q-139 0 -243 -105t-104 -248z M260 475l106 92h51l-71 -425h-70l58 346l-57 -58zM412 235l10 58l155 274h92l-46 -277h43l-9 -55h-43l-16 -93h-67l16 93h-135zM489 290h67l31 187z" />
<glyph unicode="&#x246e;" horiz-adv-x="820" d="M101 316q0 107 56 200.5t149 148.5t199 55q142 0 237 -95.5t95 -234.5q0 -162 -122.5 -282t-283.5 -120q-141 0 -235.5 94.5t-94.5 233.5zM153 320q0 -121 80.5 -203t202.5 -82q139 0 244 105t105 247q0 121 -81.5 203.5t-203.5 82.5q-139 0 -243 -105t-104 -248z M261 475l106 92h51l-71 -425h-70l58 346l-57 -58zM416 153l15 65q33 -20 70 -20t62.5 28.5t25.5 71.5q0 27 -16.5 44.5t-49.5 17.5q-32 0 -68 -14l37 221h196l-10 -60h-134l-16 -97q18 5 45 5q39 0 64 -26.5t25 -73.5q0 -82 -47 -130.5t-113 -48.5q-40 0 -86 17z" />
<glyph unicode="&#x246f;" horiz-adv-x="820" d="M101 316q0 107 56 200.5t149 148.5t199 55q142 0 237 -95.5t95 -234.5q0 -162 -122.5 -282t-283.5 -120q-141 0 -235.5 94.5t-94.5 233.5zM153 320q0 -121 80.5 -203t202.5 -82q139 0 244 105t105 247q0 121 -81.5 203.5t-203.5 82.5q-139 0 -243 -105t-104 -248z M255 475l106 92h51l-71 -425h-70l58 346l-57 -58zM435 252q0 146 55 234t130 88q31 0 65 -14q-17 -56 -18 -59q-24 17 -49 17q-74 0 -104 -144q26 39 60 39q40 0 61.5 -25.5t21.5 -71.5q0 -79 -40.5 -130t-97.5 -51q-84 0 -84 117zM499 239q0 -49 29 -49q20 0 38 35t18 82 q0 50 -28 50q-11 0 -23.5 -10t-23 -38.5t-10.5 -69.5z" />
<glyph unicode="&#x2470;" horiz-adv-x="820" d="M101 316q0 107 56 200.5t149 148.5t199 55q142 0 237 -95.5t95 -234.5q0 -162 -122.5 -282t-283.5 -120q-141 0 -235.5 94.5t-94.5 233.5zM153 320q0 -121 80.5 -203t202.5 -82q139 0 244 105t105 247q0 121 -81.5 203.5t-203.5 82.5q-139 0 -243 -105t-104 -248z M270 475l106 92h51l-71 -425h-70l58 346l-57 -58zM439 142l183 369h-142l9 56h211l-9 -57l-175 -368h-77z" />
<glyph unicode="&#x2471;" horiz-adv-x="820" d="M101 316q0 107 56 200.5t149 148.5t199 55q142 0 237 -95.5t95 -234.5q0 -162 -122.5 -282t-283.5 -120q-141 0 -235.5 94.5t-94.5 233.5zM153 320q0 -121 80.5 -203t202.5 -82q139 0 244 105t105 247q0 121 -81.5 203.5t-203.5 82.5q-139 0 -243 -105t-104 -248z M253 475l106 92h51l-71 -425h-70l58 346l-57 -58zM420 227q0 95 88 136q-52 31 -52 82q0 58 38.5 93.5t97.5 35.5q43 0 69.5 -22.5t26.5 -60.5q0 -37 -25.5 -72.5t-61.5 -50.5q52 -30 52 -87q0 -65 -39.5 -105.5t-97.5 -40.5q-44 0 -70 25t-26 67zM492 238q0 -21 9.5 -34.5 t25.5 -13.5q21 0 37.5 23t16.5 57q0 38 -36 65q-53 -39 -53 -97zM523 453q0 -34 42 -63q17 11 33.5 35t16.5 53q0 19 -10 30t-26 11q-21 0 -38.5 -20t-17.5 -46z" />
<glyph unicode="&#x2472;" horiz-adv-x="820" d="M101 316q0 107 56 200.5t149 148.5t199 55q142 0 237 -95.5t95 -234.5q0 -162 -122.5 -282t-283.5 -120q-141 0 -235.5 94.5t-94.5 233.5zM153 320q0 -121 80.5 -203t202.5 -82q139 0 244 105t105 247q0 121 -81.5 203.5t-203.5 82.5q-139 0 -243 -105t-104 -248z M268 475l106 92h51l-71 -425h-70l58 346l-57 -58zM433 148q2 8 6 22t7 24t4 13q25 -16 49 -16q42 0 68 45t35 98q-9 -17 -25.5 -28t-32.5 -11q-40 0 -61.5 25.5t-21.5 71.5q0 79 40 130.5t97 51.5q85 0 85 -119q0 -144 -55.5 -232t-129.5 -88q-36 0 -65 13zM533 399 q0 -48 27 -48q16 0 28.5 16t18 38.5t8 39t2.5 24.5q0 50 -29 50q-20 0 -37.5 -36.5t-17.5 -83.5z" />
<glyph unicode="&#x2473;" horiz-adv-x="820" d="M101 316q0 107 56 200.5t149 148.5t199 55q142 0 237 -95.5t95 -234.5q0 -162 -122.5 -282t-283.5 -120q-141 0 -235.5 94.5t-94.5 233.5zM153 320q0 -121 80.5 -203t202.5 -82q139 0 244 105t105 247q0 121 -81.5 203.5t-203.5 82.5q-139 0 -243 -105t-104 -248z M215 142l11 65q6 6 42.5 45t50.5 56.5t38.5 50.5t34.5 60t10 52q0 47 -33 47q-23 0 -47.5 -11t-34.5 -20q4 40 5 59q40 28 98 28q40 0 63 -24t23 -67q0 -83 -90 -195q-26 -33 -80 -91h132l-9 -55h-214zM476 264q0 136 47 223t112 87q84 0 84 -131q0 -130 -47 -219t-111 -89 q-85 0 -85 129zM544 248q0 -58 26 -58q16 0 34.5 34t32.5 98t14 137q0 60 -26 60q-42 0 -69 -166q-12 -74 -12 -105z" />
<glyph unicode="&#x25ca;" horiz-adv-x="667" d="M74 333l260 360l259 -360l-259 -359zM137 333l197 -270l197 270l-197 271z" />
<glyph unicode="&#xe000;" horiz-adv-x="490" d="M0 0v490h490v-490h-490z" />
<glyph unicode="&#xe103;" horiz-adv-x="575" d="M26 419l15 70h117l13 58q12 54 28 84.5t44 53.5q51 40 118 40q28 0 68 -11l-15 -74q-27 8 -44 8q-60 0 -90 -53q-14 -27 -31 -106h133l-15 -70h-134l-89 -419h-90l89 419h-117zM363 0l104 489h90l-104 -489h-90zM478 567l21 100h101l-21 -100h-101z" />
<glyph unicode="&#xe104;" horiz-adv-x="575" d="M26 419l15 70h117l13 58q12 54 28 84.5t44 53.5q51 40 118 40q28 0 68 -11l-15 -74q-27 8 -44 8q-60 0 -90 -53q-14 -27 -31 -106h133l-15 -70h-134l-89 -419h-90l89 419h-117zM363 0l153 720h90l-153 -720h-90z" />
<glyph unicode="&#xe105;" horiz-adv-x="369" d="M130 593l130 75h57l-85 -401h-69l65 305q1 3 2.5 9.5t2.5 9.5l-71 -46z" />
<glyph unicode="&#xe107;" horiz-adv-x="370" d="M41 267l14 63q65 45 151 117q92 79 92 124q0 22 -18 35t-49 13q-49 0 -106 -27l6 61q60 21 111 21q58 0 92 -25t34 -69q0 -68 -89 -151q-68 -61 -139 -107h188l-12 -55h-275z" />
<glyph unicode="&#xe108;" horiz-adv-x="369" d="M46 282l16 57q49 -25 100 -25q46 0 76.5 21.5t30.5 54.5q0 59 -106 59q-11 0 -21 -1l12 55q147 0 147 70q0 47 -68 47q-44 0 -104 -21l7 61q59 14 103 14q61 0 96 -24.5t35 -68.5q0 -39 -28 -70q-22 -24 -65 -37q60 -24 60 -82t-48.5 -94.5t-125.5 -36.5q-61 0 -117 21z " />
<glyph unicode="&#xec73;" horiz-adv-x="257" d="M-26 0l10 45q55 38 104 79q62 52 62 83t-45 31q-32 0 -74 -18l4 44q42 14 78 14q40 0 63.5 -17.5t23.5 -46.5q0 -37 -34 -76t-119 -98h126l-9 -40h-190zM13 313l9 40h257l-8 -40h-258zM119 623l90 52h41l-59 -275h-49l47 219l-47 -30z" />
<glyph unicode="&#xec74;" horiz-adv-x="257" d="M-23 11l12 41q36 -17 69 -17q31 0 51 14t20 36q0 39 -71 39q-9 0 -15 -1l8 40q100 0 100 45q0 31 -45 31q-30 0 -72 -14l5 44q42 9 71 9q43 0 67 -17t24 -47q0 -52 -60 -72q37 -17 37 -56q0 -40 -33.5 -65t-86.5 -25q-43 0 -81 15zM13 313l8 40h258l-9 -40h-257zM118 623 l91 52h41l-59 -275h-50l47 219l-47 -30z" />
<glyph unicode="&#xec75;" horiz-adv-x="257" d="M-23 11l12 41q36 -17 69 -17q31 0 51 14t20 36q0 39 -71 39q-9 0 -15 -1l8 40q100 0 100 45q0 31 -45 31q-30 0 -72 -14l5 44q42 9 71 9q43 0 67 -17t24 -47q0 -52 -60 -72q37 -17 37 -56q0 -40 -33.5 -65t-86.5 -25q-43 0 -81 15zM13 313l8 40h258l-9 -40h-257zM59 400 l9 45q55 37 105 79q62 52 62 84q0 31 -45 31q-33 0 -74 -19l4 44q42 15 78 15q40 0 63.5 -17.5t23.5 -47.5q0 -37 -34 -76t-119 -98h126l-9 -40h-190z" />
<glyph unicode="&#xec76;" horiz-adv-x="257" d="M-21 58l8 37l157 180h65l-37 -177h36l-9 -40h-36l-12 -58h-50l13 58h-135zM13 313l9 40h257l-8 -40h-258zM44 98h78l31 129zM118 623l91 52h41l-59 -275h-49l46 219l-47 -30z" />
<glyph unicode="&#xec77;" horiz-adv-x="257" d="M-21 58l8 37l157 180h65l-37 -177h36l-9 -40h-36l-12 -58h-50l13 58h-135zM13 313l9 40h257l-8 -40h-258zM44 98h78l31 129zM62 411l12 41q33 -16 69 -16q31 0 51 14t20 35q0 39 -71 39q-8 0 -15 -1l8 40h12q41 0 64.5 12t23.5 34q0 31 -45 31q-31 0 -72 -15l5 44 q40 10 72 10q42 0 66 -17t24 -47q0 -54 -60 -72q37 -19 37 -56q0 -40 -33.5 -65t-86.5 -25q-40 0 -81 14z" />
<glyph unicode="&#xec7c;" horiz-adv-x="257" d="M-10 70q0 29 16 47.5t52 30.5q-33 26 -33 57q0 33 26.5 53t70.5 20q43 0 67.5 -17.5t24.5 -46.5q0 -43 -59 -69q38 -24 38 -62t-29.5 -62.5t-76.5 -24.5q-43 0 -70 20.5t-27 53.5zM13 313l9 40h257l-8 -40h-258zM40 75q0 -18 14 -29t36 -11q23 0 38.5 13t15.5 33 q0 25 -38 41l-9 4q-2 -1 -5 -1q-52 -16 -52 -50zM74 207q0 -24 40 -45q50 21 50 47q0 13 -12 21.5t-32 8.5t-33 -9t-13 -23zM118 623l91 52h41l-59 -275h-49l46 219l-47 -30z" />
<glyph unicode="&#xec7d;" horiz-adv-x="257" d="M-10 70q0 29 16 47.5t52 30.5q-33 26 -33 57q0 33 26.5 53t70.5 20q43 0 67.5 -17.5t24.5 -46.5q0 -43 -59 -69q38 -24 38 -62t-29.5 -62.5t-76.5 -24.5q-43 0 -70 20.5t-27 53.5zM13 313l9 40h257l-8 -40h-258zM40 75q0 -18 14 -29t36 -11q23 0 38.5 13t15.5 33 q0 25 -38 41l-9 4q-2 -1 -5 -1q-52 -16 -52 -50zM62 411l12 41q33 -16 69 -16q31 0 51 14t20 35q0 39 -71 39q-8 0 -15 -1l8 40h12q41 0 64.5 12t23.5 34q0 31 -45 31q-31 0 -72 -15l5 44q40 10 72 10q42 0 66 -17t24 -47q0 -54 -60 -72q37 -19 37 -56q0 -40 -33.5 -65 t-86.5 -25q-40 0 -81 14zM74 207q0 -24 40 -45q50 21 50 47q0 13 -12 21.5t-32 8.5t-33 -9t-13 -23z" />
<glyph unicode="&#xec7e;" horiz-adv-x="257" d="M-10 70q0 29 16 47.5t52 30.5q-33 26 -33 57q0 33 26.5 53t70.5 20q43 0 67.5 -17.5t24.5 -46.5q0 -43 -59 -69q38 -24 38 -62t-29.5 -62.5t-76.5 -24.5q-43 0 -70 20.5t-27 53.5zM13 313l9 40h257l-8 -40h-258zM40 75q0 -18 14 -29t36 -11q23 0 38.5 13t15.5 33 q0 25 -38 41l-9 4q-2 -1 -5 -1q-52 -16 -52 -50zM74 207q0 -24 40 -45q50 21 50 47q0 13 -12 21.5t-32 8.5t-33 -9t-13 -23zM74 407l9 41q38 -12 62 -12q34 0 54.5 17t20.5 44q0 19 -16 30t-44 11q-26 0 -57 -9l34 146h162l-8 -40h-116l-15 -60q18 2 21 2q41 0 65 -20.5 t24 -55.5q0 -47 -34.5 -75.5t-89.5 -28.5q-39 0 -72 10z" />
<glyph unicode="&#xec7f;" horiz-adv-x="257" d="M-10 70q0 29 16 47.5t52 30.5q-33 26 -33 57q0 33 26.5 53t70.5 20q43 0 67.5 -17.5t24.5 -46.5q0 -43 -59 -69q38 -24 38 -62t-29.5 -62.5t-76.5 -24.5q-43 0 -70 20.5t-27 53.5zM13 313l9 40h257l-8 -40h-258zM40 75q0 -18 14 -29t36 -11q23 0 38.5 13t15.5 33 q0 25 -38 41l-9 4q-2 -1 -5 -1q-52 -16 -52 -50zM74 207q0 -24 40 -45q50 21 50 47q0 13 -12 21.5t-32 8.5t-33 -9t-13 -23zM88 400l159 235h-138l8 40h192l-9 -40l-155 -235h-57z" />
<glyph unicode="&#xf655;" horiz-adv-x="369" d="M19 133q0 41 14 94.5t34 89.5q52 90 143 90q58 0 88.5 -33.5t30.5 -96.5q0 -134 -72 -227q-44 -55 -117 -55q-121 0 -121 138zM88 125q0 -77 56 -77q46 0 81 69.5t35 161.5q0 75 -55 75q-35 0 -63 -40.5t-41 -92t-13 -96.5z" />
<glyph unicode="&#xf656;" horiz-adv-x="369" d="M73 326l130 75h57l-85 -401h-69l65 305q1 3 2.5 9.5t2.5 9.5l-71 -46z" />
<glyph unicode="&#xf657;" horiz-adv-x="370" d="M-15 0l14 63q79 54 151 116q92 79 92 125q0 22 -18 34.5t-49 12.5q-47 0 -106 -26l6 61q57 20 111 20q58 0 92 -25t34 -69q0 -70 -89 -150q-72 -65 -139 -107h188l-12 -55h-275z" />
<glyph unicode="&#xf658;" horiz-adv-x="370" d="M-10 15l16 57q49 -24 100 -24q46 0 76.5 21.5t30.5 53.5q0 59 -106 59h-21l12 55q7 -1 16 -1q62 0 96.5 18.5t34.5 51.5q0 48 -68 48q-44 0 -104 -22l7 61q59 14 103 14q61 0 96 -24.5t35 -68.5q0 -38 -28 -69q-22 -24 -65 -37q60 -24 60 -83q0 -58 -48.5 -94t-125.5 -36 q-60 0 -117 20z" />
<glyph unicode="&#xf659;" horiz-adv-x="369" d="M-8 86l11 52l230 263h92l-55 -260h53l-12 -55h-53l-18 -86h-69l18 86h-197zM81 141h120l48 199z" />
<glyph unicode="&#xf65a;" horiz-adv-x="369" d="M7 9l12 56q55 -17 89 -17q50 0 81.5 25.5t31.5 66.5q0 29 -24 46t-65 17q-37 0 -82 -12l49 210h234l-12 -55h-170l-23 -92q22 2 30 2q62 0 97 -29t35 -81q0 -68 -49.5 -109.5t-130.5 -41.5q-52 0 -103 14z" />
<glyph unicode="&#xf65b;" horiz-adv-x="369" d="M26 126q0 90 46 176q27 50 73.5 77.5t104.5 27.5q45 0 97 -16l-20 -53q-37 16 -72 16q-51 0 -85.5 -29t-59.5 -93q36 31 88 31t82 -29.5t30 -79.5q0 -72 -42.5 -115.5t-113.5 -43.5q-62 0 -95 34t-33 97zM95 113q0 -30 16.5 -47.5t45.5 -17.5q34 0 59 30.5t25 71.5 q0 27 -17 43.5t-45 16.5q-35 0 -59.5 -28t-24.5 -69z" />
<glyph unicode="&#xf65c;" horiz-adv-x="370" d="M28 0l233 346h-203l12 55h277l-13 -57l-226 -344h-80z" />
<glyph unicode="&#xf65d;" horiz-adv-x="369" d="M8 102q0 44 29 76q21 22 74 38q-51 30 -51 85q0 48 38.5 77t101.5 29q61 0 97 -25t36 -68q0 -33 -25 -61t-66 -42q59 -26 59 -90q0 -56 -43 -91t-110 -35q-63 0 -101.5 29.5t-38.5 77.5zM78 108q0 -27 20.5 -43.5t53.5 -16.5q35 0 58 20t23 50q0 20 -12 33t-44 29 q-6 2 -14 6q-85 -26 -85 -78zM128 303q0 -37 59 -68q41 18 59 35t18 38q0 20 -18.5 33t-47.5 13q-31 0 -50.5 -14.5t-19.5 -36.5z" />
<glyph unicode="&#xf65e;" horiz-adv-x="370" d="M-2 12l20 56q44 -20 80 -20q59 0 97 44q23 27 43 84q-25 -19 -41.5 -25.5t-42.5 -6.5q-53 0 -85 30t-32 80q0 67 45 110t114 43q122 0 122 -126q0 -106 -56 -200q-51 -86 -163 -86q-53 0 -101 17zM106 259q0 -29 15.5 -45.5t42.5 -16.5q35 0 60 27.5t25 66.5 q0 28 -16 45.5t-41 17.5q-35 0 -60.5 -28.5t-25.5 -66.5z" />
<glyph unicode="&#xf65f;" horiz-adv-x="212" d="M24 -76l72 147h81l-87 -147h-66z" />
<glyph unicode="&#xf660;" horiz-adv-x="173" d="M52 0l15 71h77l-16 -71h-76z" />
<glyph unicode="&#xf661;" horiz-adv-x="369" d="M76 400q0 41 14 94.5t34 89.5q52 90 143 90q58 0 88.5 -33.5t30.5 -96.5q0 -134 -72 -227q-44 -55 -117 -55q-121 0 -121 138zM145 392q0 -77 56 -77q46 0 81 69.5t35 161.5q0 75 -55 75q-35 0 -63 -40.5t-41 -92t-13 -96.5z" />
<glyph unicode="&#xf662;" horiz-adv-x="369" d="M130 593l130 75h57l-85 -401h-69l65 305q1 3 2.5 9.5t2.5 9.5l-71 -46z" />
<glyph unicode="&#xf663;" horiz-adv-x="370" d="M41 267l14 63q65 45 151 117q92 79 92 124q0 22 -18 35t-49 13q-49 0 -106 -27l6 61q60 21 111 21q58 0 92 -25t34 -69q0 -68 -89 -151q-68 -61 -139 -107h188l-12 -55h-275z" />
<glyph unicode="&#xf664;" horiz-adv-x="369" d="M46 282l16 57q49 -25 100 -25q46 0 76.5 21.5t30.5 54.5q0 59 -106 59q-11 0 -21 -1l12 55q147 0 147 70q0 47 -68 47q-44 0 -104 -21l7 61q59 14 103 14q61 0 96 -24.5t35 -68.5q0 -39 -28 -70q-22 -24 -65 -37q60 -24 60 -82t-48.5 -94.5t-125.5 -36.5q-61 0 -117 21z " />
<glyph unicode="&#xf665;" horiz-adv-x="369" d="M49 353l11 52l230 263h92l-55 -260h53l-12 -55h-53l-18 -86h-69l18 86h-197zM138 408h120l48 200z" />
<glyph unicode="&#xf666;" horiz-adv-x="369" d="M64 275l12 57q56 -18 89 -18q50 0 81.5 25.5t31.5 67.5q0 29 -24 46t-65 17q-34 0 -82 -13l49 211h234l-12 -55h-170l-23 -92q22 2 30 2q62 0 97 -29.5t35 -81.5q0 -68 -49.5 -109.5t-130.5 -41.5q-50 0 -103 14z" />
<glyph unicode="&#xf667;" horiz-adv-x="369" d="M83 392q0 88 46 177q27 50 73.5 77.5t104.5 27.5q46 0 97 -16l-20 -53q-37 16 -72 16q-51 0 -85.5 -29t-59.5 -94q37 31 88 31q52 0 82 -29.5t30 -79.5q0 -72 -42.5 -115.5t-113.5 -43.5q-62 0 -95 34t-33 97zM152 379q0 -30 16.5 -47.5t45.5 -17.5q34 0 59 30.5t25 71.5 q0 27 -17 43.5t-45 16.5q-35 0 -59.5 -28t-24.5 -69z" />
<glyph unicode="&#xf668;" horiz-adv-x="370" d="M85 267l233 346h-203l12 55h277l-13 -57l-226 -344h-80z" />
<glyph unicode="&#xf669;" horiz-adv-x="369" d="M65 369q0 44 29 76q21 22 74 38q-51 30 -51 85q0 48 38.5 77t101.5 29q61 0 97 -25t36 -68q0 -33 -25 -61t-66 -42q59 -26 59 -90q0 -56 -43 -91t-110 -35q-63 0 -101.5 29.5t-38.5 77.5zM135 375q0 -27 20.5 -43.5t53.5 -16.5q35 0 58 20t23 50q0 20 -12 33t-44 29 q-6 2 -14 6q-85 -26 -85 -78zM185 570q0 -37 59 -68q41 18 59 35t18 38q0 20 -18.5 33t-47.5 13q-31 0 -50.5 -14.5t-19.5 -36.5z" />
<glyph unicode="&#xf66a;" horiz-adv-x="370" d="M54 279l20 56q44 -20 80 -20q59 0 97 44q23 27 43 84q-25 -19 -41.5 -25.5t-42.5 -6.5q-53 0 -85 30t-32 80q0 67 45 110t114 43q122 0 122 -126q0 -106 -56 -200q-51 -86 -163 -86q-53 0 -101 17zM162 526q0 -29 15.5 -45.5t42.5 -16.5q35 0 60 27.5t25 66.5 q0 28 -16 45.5t-41 17.5q-35 0 -60.5 -28.5t-25.5 -66.5z" />
<glyph unicode="&#xf66b;" horiz-adv-x="212" d="M24 191l72 147h81l-87 -147h-66z" />
<glyph unicode="&#xf66c;" horiz-adv-x="173" d="M52 267l15 71h77l-16 -71h-76z" />
<glyph unicode="&#xf6e1;" horiz-adv-x="150" d="M47 -51l50 102h58l-61 -102h-47z" />
<glyph unicode="&#xf6e2;" horiz-adv-x="150" d="M47 349l50 102h58l-61 -102h-47z" />
<glyph unicode="&#xf6e5;" horiz-adv-x="257" d="M13 313l9 40h257l-9 -40h-257z" />
<glyph unicode="&#xf6e6;" horiz-adv-x="257" d="M13 313l9 40h257l-9 -40h-257z" />
<glyph unicode="&#xf6e7;" horiz-adv-x="124" d="M66 0l11 51h55l-11 -51h-55z" />
<glyph unicode="&#xf6e8;" horiz-adv-x="124" d="M66 400l11 51h55l-11 -51h-55z" />
<glyph unicode="&#xf8ff;" horiz-adv-x="800" d="M35 101v635h629q42 0 71.5 -29.5t29.5 -71.5v-635h-629q-42 0 -71.5 29.5t-29.5 71.5zM86 123q0 -81 73 -81t73 89q0 25 -12 45.5t-54 49.5q-25 17 -25 40q0 38 19 38q18 0 18 -32v-25h54v29q0 81 -73 81t-73 -89q0 -17 3 -29t18.5 -30.5t44.5 -37.5q25 -17 25 -38 q0 -38 -19 -38q-18 0 -18 32v10h-54v-14zM90 383h54v103h59v60h-59v84h67v60h-121v-307zM231 450q0 -34 18 -53t52 -19t52 19t18 53v173q0 72 -70 72t-70 -72v-173zM262 46h54v215h-54v-215zM262 292h54v61h-54v-61zM285 453v166q0 23 16 23t16 -23v-166q0 -22 -16 -22 t-16 22zM342 246h19v-132q0 -34 18 -53t52 -19t52 19t18 53v34h-54v-31q0 -22 -16 -22t-16 22v129h78v52h-79v55h-54v-55h-18v-52zM398 383h54v236q0 23 16 23t16 -23v-236h54v242q0 68 -58 68q-22 0 -27 -10v7h-55v-307zM522 114q0 -34 18 -53t52 -19t52 19t18 53v12h-54 v-9q0 -22 -16 -22t-16 22v40h86v128q0 72 -70 72t-70 -72v-171zM559 585h19v-135q0 -34 18 -53t52 -19t52 19t18 53v34h-54v-31q0 -23 -16 -23t-16 23v132h78v52h-79v53h-54v-53h-18v-52zM576 203v78q0 23 16 23t16 -23v-78h-32zM672 71h10v-25h6v25h10v6h-26v-6zM703 46h6 v21l9 -21h4l9 21v-21h6v31h-8l-9 -21l-9 21h-8v-31z" />
</font>
</defs>
</svg>
